<svg id="Ebene_2" data-name="Ebene 2" xmlns="http://www.w3.org/2000/svg" viewBox="0 0 56.69 170.08"><path d="M24.39,137.33v3.46H24a3.46,3.46,0,0,0-.12-.76c-.06-.2-.13-.3-.22-.3h-.13l-.13,0-1.87.69v2.92l.72.27.56.18.41.11.26,0c.16,0,.28-.12.36-.37a3,3,0,0,0,.16-.83h.41v3.13H24a2.41,2.41,0,0,0-.07-.38,1.5,1.5,0,0,0-.15-.38,2,2,0,0,0-.33-.36,2.12,2.12,0,0,0-.48-.25l-3.52-1.39L16,141.8v-.47l7.17-2.77a1.58,1.58,0,0,0,.37-.2,1.73,1.73,0,0,0,.28-.31,1.28,1.28,0,0,0,.13-.35,2.32,2.32,0,0,0,.07-.37ZM21,140.68l-3.22,1.26L21,143.18Z"/><path d="M21.5,131.08a3.08,3.08,0,0,1,2.18.82,2.53,2.53,0,0,1,.89,1.9,3,3,0,0,1-.15.94,4.19,4.19,0,0,1-.39.86l.67.44-.08.36-1,0h-6.9a.93.93,0,0,0-.4.09.63.63,0,0,0-.29.23,1,1,0,0,0-.12.37c0,.18,0,.32,0,.42h-.37l-.13-2.12.09-.08h3.81v0a2.55,2.55,0,0,1-.58-.8,2,2,0,0,1-.19-.84,2.23,2.23,0,0,1,.84-1.78A3.26,3.26,0,0,1,21.5,131.08Zm0,1.22a4.58,4.58,0,0,0-.89.1,2.48,2.48,0,0,0-.78.29,1.61,1.61,0,0,0-.55.52,1.42,1.42,0,0,0-.21.78,1.46,1.46,0,0,0,.16.71,1.91,1.91,0,0,0,.43.56h3.37a2,2,0,0,0,.33-.14,1.48,1.48,0,0,0,.35-.28,1.56,1.56,0,0,0,.27-.4,1.24,1.24,0,0,0,.1-.54,1.34,1.34,0,0,0-.69-1.16A3.52,3.52,0,0,0,21.54,132.3Z"/><path d="M23,124.85a3,3,0,0,1,1.1,1,2.42,2.42,0,0,1,.41,1.4,2.93,2.93,0,0,1-.24,1.23,2.5,2.5,0,0,1-.67.86,2.78,2.78,0,0,1-1,.51,4.27,4.27,0,0,1-1.19.16,3.78,3.78,0,0,1-1.11-.17,3,3,0,0,1-1-.53,2.51,2.51,0,0,1-.68-.83,2.39,2.39,0,0,1-.25-1.11,2.7,2.7,0,0,1,.2-1.08,1.84,1.84,0,0,1,.54-.73,2.23,2.23,0,0,1,.78-.41,3.65,3.65,0,0,1,1-.13h.39v3.83a4.58,4.58,0,0,0,1-.11,2.53,2.53,0,0,0,.82-.34,1.64,1.64,0,0,0,.54-.6,1.87,1.87,0,0,0,.2-.88,1.64,1.64,0,0,0-.25-.9,2.5,2.5,0,0,0-.88-.73Zm-2.2,1.3a5.91,5.91,0,0,0-.7,0,2.37,2.37,0,0,0-.63.18,1.11,1.11,0,0,0-.43.37,1,1,0,0,0-.17.6,1.28,1.28,0,0,0,.51,1,2.35,2.35,0,0,0,1.42.44Z"/><path d="M19.36,119.52a1,1,0,0,1,.53.15.5.5,0,0,1,.23.45.7.7,0,0,1-.17.5.53.53,0,0,1-.38.17.86.86,0,0,1-.23,0l-.21,0a1.28,1.28,0,0,0,.22.65A1.9,1.9,0,0,0,20,122h3.36a.62.62,0,0,0,.33-.07.56.56,0,0,0,.2-.25,2.49,2.49,0,0,0,.08-.38,3.58,3.58,0,0,0,0-.4h.39v3H24a2.45,2.45,0,0,0,0-.27.85.85,0,0,0-.05-.25.42.42,0,0,0-.18-.25.68.68,0,0,0-.34-.08H19.84a.81.81,0,0,0-.63.33.68.68,0,0,0-.11.26,3,3,0,0,0,0,.33h-.39l-.13-1.92.09-.09h.81v0a2.7,2.7,0,0,1-.72-.81,1.78,1.78,0,0,1-.25-.82.81.81,0,0,1,.24-.6A.92.92,0,0,1,19.36,119.52Z"/><path d="M24.39,116.08v2.82H24c0-.09,0-.19,0-.29a1.37,1.37,0,0,0-.05-.25.42.42,0,0,0-.18-.25.68.68,0,0,0-.34-.08h-6.7a.93.93,0,0,0-.4.09.76.76,0,0,0-.29.24,1.19,1.19,0,0,0-.12.39,4,4,0,0,0-.08.45h-.37L15.32,117l.09-.08h7.93a.65.65,0,0,0,.33-.07.53.53,0,0,0,.21-.25c0-.09.06-.17.08-.25a1.27,1.27,0,0,0,0-.29Z"/><path d="M21.44,109.48a3.77,3.77,0,0,1,1.2.19,2.84,2.84,0,0,1,1,.55,2.55,2.55,0,0,1,.7.94,3.09,3.09,0,0,1,.23,1.2,2.66,2.66,0,0,1-.21,1,2.54,2.54,0,0,1-.61.88,2.77,2.77,0,0,1-1,.61,3.37,3.37,0,0,1-1.26.23,3.19,3.19,0,0,1-2.22-.79,2.7,2.7,0,0,1-.86-2.07,2.63,2.63,0,0,1,.82-2A3,3,0,0,1,21.44,109.48Zm0,1.21a5,5,0,0,0-.93.09,2.8,2.8,0,0,0-.83.26,1.69,1.69,0,0,0-.59.5,1.27,1.27,0,0,0-.21.74,1.29,1.29,0,0,0,.22.77,1.56,1.56,0,0,0,.61.52,2.58,2.58,0,0,0,.81.27,5.51,5.51,0,0,0,.89.07,5.67,5.67,0,0,0,1-.09,2.84,2.84,0,0,0,.85-.29,1.62,1.62,0,0,0,.59-.5,1.35,1.35,0,0,0-.5-1.91A3.71,3.71,0,0,0,21.46,110.69Z"/><path d="M24.29,102.21l.12,1.89-.08.09H23.6v0l.31.32a1.78,1.78,0,0,1,.31.4,3.82,3.82,0,0,1,.24.51,2.49,2.49,0,0,1,.08.7,1.39,1.39,0,0,1-.5,1.16,2.29,2.29,0,0,1-1.46.4H19.82a.72.72,0,0,0-.35.08.71.71,0,0,0-.25.24.89.89,0,0,0-.11.26c0,.11,0,.22,0,.34h-.39l-.14-1.93.09-.09h4a1.35,1.35,0,0,0,.94-.28.88.88,0,0,0,.32-.67,1.5,1.5,0,0,0-.1-.58,1.84,1.84,0,0,0-.23-.42,3.58,3.58,0,0,0-.26-.28,1.54,1.54,0,0,0-.26-.18H19.78a.74.74,0,0,0-.34.08.82.82,0,0,0-.26.23.73.73,0,0,0-.08.31c0,.14,0,.3,0,.47h-.39l-.14-2.11.09-.08h4.58a.64.64,0,0,0,.34-.09.83.83,0,0,0,.24-.22.66.66,0,0,0,.08-.26,1.51,1.51,0,0,0,0-.32Z"/><path d="M19.36,96.84a1,1,0,0,1,.53.15.49.49,0,0,1,.23.45.7.7,0,0,1-.17.5.53.53,0,0,1-.38.17l-.23,0-.21,0a1.28,1.28,0,0,0,.22.65,1.9,1.9,0,0,0,.64.62h3.36a.62.62,0,0,0,.33-.07.56.56,0,0,0,.2-.25,2.49,2.49,0,0,0,.08-.38,3.58,3.58,0,0,0,0-.4h.39v3H24a2.45,2.45,0,0,0,0-.27.85.85,0,0,0-.05-.25.42.42,0,0,0-.18-.25.68.68,0,0,0-.34-.08H19.84a.73.73,0,0,0-.35.09.66.66,0,0,0-.28.24.68.68,0,0,0-.11.26,3,3,0,0,0,0,.33h-.39l-.13-1.92.09-.09h.81v0a2.7,2.7,0,0,1-.72-.81,1.78,1.78,0,0,1-.25-.82.81.81,0,0,1,.24-.6A.92.92,0,0,1,19.36,96.84Z"/><path d="M20.28,84.86a3.93,3.93,0,0,1,1.84.4,3.74,3.74,0,0,1,1.28,1,4.76,4.76,0,0,1,.75,1.45,5.8,5.8,0,0,1,.24,1.66v3.44H24c0-.11,0-.26,0-.44a1.3,1.3,0,0,0-.07-.36.47.47,0,0,0-.23-.25.68.68,0,0,0-.36-.08h-6a1,1,0,0,0-.35.06.57.57,0,0,0-.26.27,1.61,1.61,0,0,0-.12.39,3.49,3.49,0,0,0-.06.37h-.41V89.16a4.61,4.61,0,0,1,.23-1.47,4.29,4.29,0,0,1,.62-1.27,3.66,3.66,0,0,1,1.37-1.15A4.51,4.51,0,0,1,20.28,84.86Zm0,1.43a4.74,4.74,0,0,0-1.51.23,3.23,3.23,0,0,0-1.18.65,3,3,0,0,0-.76,1,3.1,3.1,0,0,0-.27,1.31c0,.16,0,.34,0,.54s0,.35,0,.45H23a.82.82,0,0,0,.74-.31,1.86,1.86,0,0,0,.2-1,3.11,3.11,0,0,0-.26-1.3,2.4,2.4,0,0,0-.73-.9,3.32,3.32,0,0,0-1.14-.53A6.07,6.07,0,0,0,20.28,86.29Z"/><path d="M21.44,78.11a3.77,3.77,0,0,1,1.2.19,2.84,2.84,0,0,1,1,.55,2.63,2.63,0,0,1,.7.94,3.09,3.09,0,0,1,.23,1.2A2.66,2.66,0,0,1,24.36,82a2.54,2.54,0,0,1-.61.88,2.77,2.77,0,0,1-1,.61,3.37,3.37,0,0,1-1.26.23A3.19,3.19,0,0,1,19.31,83a2.7,2.7,0,0,1-.86-2.07,2.63,2.63,0,0,1,.82-2A3,3,0,0,1,21.44,78.11Zm0,1.21a5,5,0,0,0-.93.09,3.13,3.13,0,0,0-.83.26,1.69,1.69,0,0,0-.59.5,1.27,1.27,0,0,0-.21.74,1.29,1.29,0,0,0,.22.77,1.56,1.56,0,0,0,.61.52,2.58,2.58,0,0,0,.81.27,5.51,5.51,0,0,0,.89.07,5.67,5.67,0,0,0,1-.09,2.84,2.84,0,0,0,.85-.29,1.62,1.62,0,0,0,.59-.5,1.35,1.35,0,0,0-.5-1.91A3.71,3.71,0,0,0,21.46,79.32Z"/><path d="M24.29,70.84l.12,1.89-.08.09H23.6v0l.31.32a2,2,0,0,1,.31.4,3.82,3.82,0,0,1,.24.51,2.49,2.49,0,0,1,.08.7,1.39,1.39,0,0,1-.5,1.16,2.29,2.29,0,0,1-1.46.4H19.82a.72.72,0,0,0-.35.08.82.82,0,0,0-.25.24.89.89,0,0,0-.11.26c0,.11,0,.22,0,.34h-.39l-.14-1.93.09-.09h4a1.35,1.35,0,0,0,.94-.28.88.88,0,0,0,.32-.67,1.5,1.5,0,0,0-.1-.58,2.08,2.08,0,0,0-.23-.42,3.58,3.58,0,0,0-.26-.28,1.54,1.54,0,0,0-.26-.18H19.78a.74.74,0,0,0-.34.08.82.82,0,0,0-.26.23.73.73,0,0,0-.08.31c0,.14,0,.3,0,.47h-.39l-.14-2.1.09-.09h4.58a.74.74,0,0,0,.34-.08,1,1,0,0,0,.24-.23.67.67,0,0,0,.08-.25,1.69,1.69,0,0,0,0-.33Z"/><path d="M21.5,64a3.08,3.08,0,0,1,2.18.82,2.53,2.53,0,0,1,.89,1.9,3,3,0,0,1-.15.94,4.45,4.45,0,0,1-.39.86l.67.44-.08.36-1,0h-6.9a.93.93,0,0,0-.4.09.58.58,0,0,0-.29.23,1,1,0,0,0-.12.37c0,.17,0,.31,0,.42h-.37l-.13-2.12.09-.08h3.81v0a2.55,2.55,0,0,1-.58-.8,2,2,0,0,1-.19-.85,2.25,2.25,0,0,1,.84-1.78A3.3,3.3,0,0,1,21.5,64Zm0,1.22a3.92,3.92,0,0,0-.89.1,2.48,2.48,0,0,0-.78.29,1.61,1.61,0,0,0-.55.52,1.4,1.4,0,0,0-.21.78,1.46,1.46,0,0,0,.16.71,1.91,1.91,0,0,0,.43.56h3.37a2,2,0,0,0,.33-.14,1.48,1.48,0,0,0,.35-.28,1.56,1.56,0,0,0,.27-.4,1.27,1.27,0,0,0,.1-.54,1.34,1.34,0,0,0-.69-1.16A3.52,3.52,0,0,0,21.54,65.25Z"/><path d="M24.39,60.23V63H24c0-.09,0-.18,0-.28a1.22,1.22,0,0,0-.05-.25.39.39,0,0,0-.18-.25.59.59,0,0,0-.34-.08h-6.7a.93.93,0,0,0-.4.09.76.76,0,0,0-.29.24,1.12,1.12,0,0,0-.12.38,4.4,4.4,0,0,0-.08.45h-.37l-.13-2.17.09-.08h7.93a.64.64,0,0,0,.33-.08.5.5,0,0,0,.21-.24c0-.09.06-.18.08-.26a1.18,1.18,0,0,0,0-.28Z"/><path d="M23,54.13a2.88,2.88,0,0,1,1.1,1,2.4,2.4,0,0,1,.41,1.4,2.92,2.92,0,0,1-.24,1.22,2.54,2.54,0,0,1-.67.87,2.93,2.93,0,0,1-1,.5,4.28,4.28,0,0,1-1.19.17,3.49,3.49,0,0,1-1.11-.18,3,3,0,0,1-1-.52,2.61,2.61,0,0,1-.68-.83,2.39,2.39,0,0,1-.25-1.11,2.75,2.75,0,0,1,.2-1.09,1.91,1.91,0,0,1,.54-.73,2.22,2.22,0,0,1,.78-.4,3.28,3.28,0,0,1,1-.13h.39v3.82a4.61,4.61,0,0,0,1-.1,2.54,2.54,0,0,0,.82-.35,1.61,1.61,0,0,0,.54-.59,1.87,1.87,0,0,0,.2-.88,1.64,1.64,0,0,0-.25-.9,2.31,2.31,0,0,0-.88-.73Zm-2.2,1.29a4.41,4.41,0,0,0-.7.06,1.8,1.8,0,0,0-.63.18,1.11,1.11,0,0,0-.43.37.93.93,0,0,0-.17.6,1.25,1.25,0,0,0,.51,1,2.35,2.35,0,0,0,1.42.44Z"/><path d="M24.59,46.27a3.69,3.69,0,0,1-.29,1.43,3.74,3.74,0,0,1-.85,1.21,4.17,4.17,0,0,1-1.34.83,4.84,4.84,0,0,1-1.79.31,5.17,5.17,0,0,1-1.81-.3,4.38,4.38,0,0,1-1.4-.85,3.55,3.55,0,0,1-.9-1.26A3.88,3.88,0,0,1,16.48,44l-.4-.24v-.47l3,0v.48a7.41,7.41,0,0,0-.94.28,3.84,3.84,0,0,0-.86.44,2.19,2.19,0,0,0-.62.67,1.72,1.72,0,0,0-.23.88,2.32,2.32,0,0,0,1,1.9,3.66,3.66,0,0,0,1.21.54,6.82,6.82,0,0,0,1.63.19,5.22,5.22,0,0,0,1.47-.2,4,4,0,0,0,1.17-.58,2.76,2.76,0,0,0,.78-.89,2.52,2.52,0,0,0,.13-2,2.12,2.12,0,0,0-.4-.69,2.88,2.88,0,0,0-.58-.52,3,3,0,0,0-.72-.36l.21-.44a3.27,3.27,0,0,1,2.3,3.31Z"/><path d="M24.29,36.67c.06.18.12.34.16.48a1.73,1.73,0,0,1,.06.47,1.1,1.1,0,0,1-.22.73,1,1,0,0,1-.62.35v0a3,3,0,0,1,.65.82,2.39,2.39,0,0,1,.22,1.05,1.46,1.46,0,0,1-.4,1.07,1.37,1.37,0,0,1-1,.42,1.8,1.8,0,0,1-.6-.09,1.44,1.44,0,0,1-.48-.28,1.57,1.57,0,0,1-.31-.39,4.6,4.6,0,0,1-.22-.45c-.07-.18-.19-.53-.37-1.07a8.43,8.43,0,0,0-.42-1.09h-.58a1.55,1.55,0,0,0-.29,0,1.16,1.16,0,0,0-.41.13,1.19,1.19,0,0,0-.38.33,1,1,0,0,0-.16.61,1.35,1.35,0,0,0,.09.5.89.89,0,0,0,.19.33,1.43,1.43,0,0,0,.34-.06,1.72,1.72,0,0,1,.43-.05.5.5,0,0,1,.37.18.73.73,0,0,1,.17.51.47.47,0,0,1-.21.43.76.76,0,0,1-.46.14.84.84,0,0,1-.52-.19,2.1,2.1,0,0,1-.44-.49,2.93,2.93,0,0,1-.28-.64,2.76,2.76,0,0,1-.11-.74,4.29,4.29,0,0,1,.07-.85,1.49,1.49,0,0,1,.29-.67,1.28,1.28,0,0,1,.59-.45,2.32,2.32,0,0,1,1-.16l1.49,0,1.41,0a.75.75,0,0,0,.37-.08.8.8,0,0,0,.23-.25.72.72,0,0,0,.06-.27v-.39Zm-3.1,2c.1.33.2.62.29.87a3.27,3.27,0,0,0,.35.7,1.5,1.5,0,0,0,.48.46,1.11,1.11,0,0,0,.64.17.91.91,0,0,0,.72-.25A1,1,0,0,0,23.9,40a1.35,1.35,0,0,0-.2-.73,2.24,2.24,0,0,0-.48-.53Z"/><path d="M21.56,32a1.35,1.35,0,0,1,.49-.37,1.51,1.51,0,0,1,.67-.13,1.63,1.63,0,0,1,1.31.6,2.33,2.33,0,0,1,.51,1.56,2.41,2.41,0,0,1-.18.93,2.56,2.56,0,0,1-.33.6l.38.12v.44l-2,.06v-.41a2.23,2.23,0,0,0,.53-.2,2.37,2.37,0,0,0,.56-.37,2.09,2.09,0,0,0,.43-.54,1.48,1.48,0,0,0,.18-.72,1.31,1.31,0,0,0-.26-.87.9.9,0,0,0-.73-.3.8.8,0,0,0-.74.38,2.06,2.06,0,0,0-.24.47,6.55,6.55,0,0,0-.22.63,5.81,5.81,0,0,1-.22.61,2.46,2.46,0,0,1-.34.58,1.7,1.7,0,0,1-.5.42,1.46,1.46,0,0,1-.71.16,1.58,1.58,0,0,1-1.2-.52,2,2,0,0,1-.49-1.42,2.84,2.84,0,0,1,.09-.69,2.55,2.55,0,0,1,.21-.58l-.31-.13v-.42l1.86-.09v.4a1.93,1.93,0,0,0-1,.53,1.41,1.41,0,0,0-.39,1,1.09,1.09,0,0,0,.24.75.72.72,0,0,0,.58.28,1,1,0,0,0,.44-.09.73.73,0,0,0,.3-.28,2,2,0,0,0,.22-.44c.07-.18.14-.4.23-.66a5.84,5.84,0,0,1,.29-.73A2.7,2.7,0,0,1,21.56,32Z"/><path d="M24.39,24.3v1.75L23,27c-.5.34-1,.71-1.46,1.08l.44.48h1.37a.7.7,0,0,0,.35-.07.48.48,0,0,0,.21-.25A2.76,2.76,0,0,0,24,28a1.21,1.21,0,0,0,0-.3h.39v2.83H24c0-.09,0-.18,0-.28a1.25,1.25,0,0,0-.05-.24.42.42,0,0,0-.18-.25.68.68,0,0,0-.34-.08H16.69a1,1,0,0,0-.41.09A.7.7,0,0,0,16,30a.81.81,0,0,0-.12.38c0,.18,0,.32,0,.42h-.37l-.13-2.14.09-.08h6.11l-1-1c-.35-.35-.66-.65-.93-.89l-.14-.1a.3.3,0,0,0-.14-.06c-.11,0-.18.09-.24.26a3,3,0,0,0-.1.49h-.38V24.75H19a4.15,4.15,0,0,0,.36.88,3.59,3.59,0,0,0,.4.57,4.07,4.07,0,0,0,.38.4c.17.17.41.41.69.72.39-.32.87-.68,1.42-1.08s.95-.69,1.19-.88a1.41,1.41,0,0,0,.46-.46,1.47,1.47,0,0,0,.12-.6Z"/><path d="M36.21,128a1.61,1.61,0,0,1,.54-.33,2,2,0,0,1,.67-.1,1.93,1.93,0,0,1,1.52.67,2.52,2.52,0,0,1,.59,1.69,3,3,0,0,1-.14.93,3.7,3.7,0,0,1-.35.8l.36.21v.39l-2.38.07v-.4a5,5,0,0,0,.8-.29,2.67,2.67,0,0,0,.66-.43,2,2,0,0,0,.46-.59,1.94,1.94,0,0,0,.08-1.38,1,1,0,0,0-.25-.4,1,1,0,0,0-.38-.24,1.51,1.51,0,0,0-.5-.07,1.42,1.42,0,0,0-.77.23,1.45,1.45,0,0,0-.55.7c-.08.21-.18.45-.28.73s-.2.51-.29.71a2.23,2.23,0,0,1-.69.91,1.83,1.83,0,0,1-1.11.32,1.67,1.67,0,0,1-.74-.16,1.93,1.93,0,0,1-.61-.46,2.19,2.19,0,0,1-.54-1.47,2.54,2.54,0,0,1,.14-.86,4.43,4.43,0,0,1,.34-.69l-.33-.2v-.39l2.3,0v.39l-.75.25a2.45,2.45,0,0,0-.66.35,1.47,1.47,0,0,0-.45.51,1.53,1.53,0,0,0-.17.74,1.13,1.13,0,0,0,.3.79,1,1,0,0,0,.73.33,1.24,1.24,0,0,0,.74-.21,1.59,1.59,0,0,0,.49-.61c.11-.24.21-.47.29-.7s.17-.45.27-.67a4.25,4.25,0,0,1,.29-.56A1.92,1.92,0,0,1,36.21,128Z"/><path d="M35.15,122.17a2.44,2.44,0,0,1,.79-.44,3,3,0,0,1,1-.16,2.73,2.73,0,0,1,1.05.19,2.59,2.59,0,0,1,.8.5,2.44,2.44,0,0,1,.52.73,2.06,2.06,0,0,1,.18.85,2,2,0,0,1-.1.71,1.52,1.52,0,0,1-.23.46v0h1.45a.59.59,0,0,0,.29-.07.46.46,0,0,0,.18-.21c0-.08,0-.19.08-.34a3.06,3.06,0,0,0,.05-.36h.32v2.69h-.32l0-.29a.92.92,0,0,0-.05-.25A.33.33,0,0,0,41,126a.62.62,0,0,0-.29-.06H35.58a.6.6,0,0,0-.28.08.55.55,0,0,0-.31.43,1.77,1.77,0,0,0,0,.3h-.32l-.11-1.64.06-.07h.54v0a2.05,2.05,0,0,1-.49-.63,1.64,1.64,0,0,1-.19-.75,1.74,1.74,0,0,1,.19-.82A1.89,1.89,0,0,1,35.15,122.17Zm3.46.8a2.2,2.2,0,0,0-.7-.29,4.16,4.16,0,0,0-.9-.09,3.71,3.71,0,0,0-.73.08,2.15,2.15,0,0,0-.66.24,1.38,1.38,0,0,0-.46.44A1.17,1.17,0,0,0,35,124a1.12,1.12,0,0,0,.16.62,2.22,2.22,0,0,0,.37.44h2.85a.91.91,0,0,0,.27-.15,1.36,1.36,0,0,0,.25-.22,1.38,1.38,0,0,0,.2-.33,1.11,1.11,0,0,0,.07-.43,1.13,1.13,0,0,0-.14-.53A1.26,1.26,0,0,0,38.61,123Z"/><path d="M38.26,116.38a2.58,2.58,0,0,1,.92.81,2.11,2.11,0,0,1,.34,1.17,2.32,2.32,0,0,1-.21,1,2,2,0,0,1-.55.72,2.36,2.36,0,0,1-.82.42,3.64,3.64,0,0,1-1,.14,3,3,0,0,1-.93-.15,2.45,2.45,0,0,1-.81-.44,2,2,0,0,1-.56-.69,2,2,0,0,1-.21-.92,2.31,2.31,0,0,1,.17-.91,1.65,1.65,0,0,1,.45-.61,1.94,1.94,0,0,1,.64-.33,3,3,0,0,1,.81-.11h.32v3.19a3.72,3.72,0,0,0,.86-.09,2,2,0,0,0,.68-.29,1.28,1.28,0,0,0,.45-.5,1.49,1.49,0,0,0,.17-.73,1.32,1.32,0,0,0-.21-.75,2,2,0,0,0-.73-.61Zm-1.84,1.08a4.13,4.13,0,0,0-.58.05,1.69,1.69,0,0,0-.52.15,1.09,1.09,0,0,0-.37.3.88.88,0,0,0-.14.51,1,1,0,0,0,.43.85,2,2,0,0,0,1.18.37Z"/><path d="M41,116a.56.56,0,0,1-.39-.13.41.41,0,0,1-.16-.34.53.53,0,0,1,.06-.26.62.62,0,0,1,.15-.2l.2-.16a1.35,1.35,0,0,1,.21-.13,2.06,2.06,0,0,0-.69-.59,6.79,6.79,0,0,0-1-.49l-2.07.84-1.89.79a.71.71,0,0,0-.35.31,1.3,1.3,0,0,0-.16.44h-.32v-2.2h.34a1.22,1.22,0,0,0,.06.35c0,.14.08.21.13.21l.1,0,.14,0,1.39-.57,1.46-.59-1.08-.45-1.32-.54-.26-.09a.88.88,0,0,0-.28-.07c-.08,0-.16.08-.24.23a1.36,1.36,0,0,0-.13.42h-.31v-1.79h.3a1.2,1.2,0,0,0,.17.39.83.83,0,0,0,.41.35c.89.39,1.71.73,2.45,1s1.28.52,1.63.68a10.12,10.12,0,0,1,1.07.55,3.21,3.21,0,0,1,.6.47,1.42,1.42,0,0,1,.28.41,1,1,0,0,1,.07.38.93.93,0,0,1-.18.6A.54.54,0,0,1,41,116Z"/><path d="M37,107.33a1.12,1.12,0,0,1,.41-.31,1.33,1.33,0,0,1,.56-.11,1.36,1.36,0,0,1,1.09.5,2.13,2.13,0,0,1,.28,2.07,2.21,2.21,0,0,1-.28.51l.32.1v.36l-1.68,0v-.34a1.76,1.76,0,0,0,.45-.16,2.47,2.47,0,0,0,.46-.31,1.84,1.84,0,0,0,.36-.46,1.16,1.16,0,0,0,.15-.6,1.05,1.05,0,0,0-.22-.72.74.74,0,0,0-.61-.25.67.67,0,0,0-.35.08.66.66,0,0,0-.26.24,1.42,1.42,0,0,0-.21.39,5.3,5.3,0,0,0-.17.52,4.67,4.67,0,0,1-.19.51,2.17,2.17,0,0,1-.28.48,1.44,1.44,0,0,1-.42.36,1.22,1.22,0,0,1-.59.13,1.29,1.29,0,0,1-1-.44,1.65,1.65,0,0,1-.41-1.17,2.36,2.36,0,0,1,.07-.58,1.86,1.86,0,0,1,.18-.48l-.25-.11v-.36l1.54-.07v.34a1.55,1.55,0,0,0-.84.44,1.15,1.15,0,0,0-.33.83,1,1,0,0,0,.2.63.65.65,0,0,0,.49.23.81.81,0,0,0,.37-.08.66.66,0,0,0,.24-.23,1.58,1.58,0,0,0,.19-.37c.06-.14.12-.33.19-.54a4.84,4.84,0,0,1,.24-.61A1.9,1.9,0,0,1,37,107.33Z"/><path d="M32.62,104.26a.7.7,0,0,1,.48.18.6.6,0,0,1,.21.45.57.57,0,0,1-.2.44.64.64,0,0,1-.45.18.69.69,0,0,1-.47-.18.6.6,0,0,1-.2-.44.63.63,0,0,1,.63-.63Zm6.77-.61V106h-.32c0-.07,0-.15,0-.23a1.12,1.12,0,0,0,0-.21.38.38,0,0,0-.15-.2.62.62,0,0,0-.29-.06h-3a.53.53,0,0,0-.28.07.57.57,0,0,0-.22.19,1.18,1.18,0,0,0-.1.27,1.39,1.39,0,0,0,0,.33h-.32l-.11-1.7.07-.07h3.92a.52.52,0,0,0,.29-.07.36.36,0,0,0,.16-.2c0-.08,0-.14.07-.21a1.57,1.57,0,0,0,0-.23Z"/><path d="M39.3,97.58l.11,1.68-.07.08h-.45v0a2,2,0,0,1,.47.62,1.77,1.77,0,0,1,.18.77,1.67,1.67,0,0,1-.19.79,2,2,0,0,1-.51.67,2.76,2.76,0,0,1-.81.46,3.17,3.17,0,0,1-1.05.16,2.8,2.8,0,0,1-1-.18,2.71,2.71,0,0,1-.82-.49,2.42,2.42,0,0,1-.52-.73,2.12,2.12,0,0,1-.19-.88,2.39,2.39,0,0,1,.08-.66,2.25,2.25,0,0,1,.22-.56H33.07a.87.87,0,0,0-.37.07.52.52,0,0,0-.26.19,1,1,0,0,0-.14.36q0,.24-.06.51h-.3l-.11-2,.08-.07H38.4a.54.54,0,0,0,.29-.07.52.52,0,0,0,.2-.19A.59.59,0,0,0,39,97.9c0-.11,0-.22,0-.32Zm-.84,1.77H35.64a1.5,1.5,0,0,0-.27.12,1.44,1.44,0,0,0-.27.22,1.27,1.27,0,0,0-.2.34,1,1,0,0,0-.08.44A1,1,0,0,0,35,101a1.36,1.36,0,0,0,.43.43,2.27,2.27,0,0,0,.7.29,3.84,3.84,0,0,0,.93.1,2.93,2.93,0,0,0,.75-.08,1.78,1.78,0,0,0,.62-.26,1.39,1.39,0,0,0,.44-.43,1.2,1.2,0,0,0,.17-.64,1.1,1.1,0,0,0-.18-.64A1.74,1.74,0,0,0,38.46,99.35Z"/><path d="M38.26,92.63a2.68,2.68,0,0,1,.92.81,2.11,2.11,0,0,1,.34,1.17,2.32,2.32,0,0,1-.21,1,2,2,0,0,1-.55.72,2.36,2.36,0,0,1-.82.42,3.64,3.64,0,0,1-1,.14,3,3,0,0,1-.93-.15,2.62,2.62,0,0,1-.81-.43,2.14,2.14,0,0,1-.56-.7,2,2,0,0,1-.21-.92,2.22,2.22,0,0,1,.17-.9,1.5,1.5,0,0,1,.45-.61,1.79,1.79,0,0,1,.64-.34,3,3,0,0,1,.81-.11h.32v3.19a3.72,3.72,0,0,0,.86-.09,2,2,0,0,0,.68-.29,1.33,1.33,0,0,0,.45-.49,1.56,1.56,0,0,0,.17-.74,1.32,1.32,0,0,0-.21-.75,1.92,1.92,0,0,0-.73-.6Zm-1.84,1.08a4.13,4.13,0,0,0-.58.05,1.69,1.69,0,0,0-.52.15,1,1,0,0,0-.37.31.85.85,0,0,0-.14.5,1,1,0,0,0,.43.85,2,2,0,0,0,1.18.37Z"/><path d="M36.21,84.83a1.61,1.61,0,0,1,.54-.33,2,2,0,0,1,.67-.1,1.91,1.91,0,0,1,1.52.68,2.48,2.48,0,0,1,.59,1.68,3,3,0,0,1-.14.93,3.7,3.7,0,0,1-.35.8l.36.21v.39L37,89.16v-.4a5,5,0,0,0,.8-.28,3.39,3.39,0,0,0,.66-.43,2.09,2.09,0,0,0,.46-.6A1.94,1.94,0,0,0,39,86.07a1,1,0,0,0-.25-.4.93.93,0,0,0-.38-.23,1.5,1.5,0,0,0-.5-.08,1.42,1.42,0,0,0-.77.23,1.45,1.45,0,0,0-.55.7l-.28.73c-.1.27-.2.51-.29.71a2.23,2.23,0,0,1-.69.91A1.83,1.83,0,0,1,34.2,89a1.67,1.67,0,0,1-.74-.16,1.93,1.93,0,0,1-.61-.46,2.19,2.19,0,0,1-.54-1.47,2.54,2.54,0,0,1,.14-.86,4.43,4.43,0,0,1,.34-.69l-.33-.2v-.39l2.3,0v.4q-.39.1-.75.24a2.45,2.45,0,0,0-.66.35,1.57,1.57,0,0,0-.45.51,1.53,1.53,0,0,0-.17.74,1.13,1.13,0,0,0,.3.79,1,1,0,0,0,.73.33,1.24,1.24,0,0,0,.74-.21,1.52,1.52,0,0,0,.49-.61c.11-.24.21-.47.29-.7s.17-.45.27-.67a4.25,4.25,0,0,1,.29-.56A1.92,1.92,0,0,1,36.21,84.83Z"/><path d="M32.62,81.73a.7.7,0,0,1,.48.18.6.6,0,0,1,.21.46.55.55,0,0,1-.2.43.64.64,0,0,1-.45.18.69.69,0,0,1-.47-.18.58.58,0,0,1-.2-.43.63.63,0,0,1,.63-.64Zm6.77-.61v2.33h-.32c0-.08,0-.16,0-.24a1,1,0,0,0,0-.2.41.41,0,0,0-.15-.21.62.62,0,0,0-.29-.06h-3a.53.53,0,0,0-.28.07.6.6,0,0,0-.22.2.94.94,0,0,0-.1.26,1.39,1.39,0,0,0,0,.33h-.32l-.11-1.7.07-.07h3.92a.52.52,0,0,0,.29-.07.36.36,0,0,0,.16-.2,1.72,1.72,0,0,0,.07-.21,1.37,1.37,0,0,0,0-.23Z"/><path d="M39.39,75v2.35h-.32c0-.07,0-.16,0-.24a1.2,1.2,0,0,0,0-.23.35.35,0,0,0-.15-.2.62.62,0,0,0-.29-.07H36.1a1.2,1.2,0,0,0-.8.25.76.76,0,0,0-.27.59,1.19,1.19,0,0,0,.08.47,1.93,1.93,0,0,0,.19.38,1,1,0,0,0,.25.26l.2.14h2.77a.51.51,0,0,0,.28-.07.41.41,0,0,0,.16-.2.88.88,0,0,0,.07-.23,2,2,0,0,0,0-.24h.32v2.36h-.32c0-.08,0-.16,0-.24a.88.88,0,0,0,0-.2.41.41,0,0,0-.15-.21.62.62,0,0,0-.29-.06h-3a.6.6,0,0,0-.3.07.56.56,0,0,0-.23.2.48.48,0,0,0-.08.22,1.1,1.1,0,0,0,0,.27h-.32l-.11-1.6.07-.07h.68v0c-.08-.08-.18-.18-.28-.3a3.3,3.3,0,0,1-.27-.33,1.56,1.56,0,0,1-.2-.43,2,2,0,0,1-.07-.56,1.22,1.22,0,0,1,.43-1A1.83,1.83,0,0,1,36,75.71h2.5a.55.55,0,0,0,.28-.06.41.41,0,0,0,.16-.2,1.65,1.65,0,0,0,.07-.2q0-.09,0-.24Z"/><path d="M38.89,70.09a1.75,1.75,0,0,1,.42-.31,1.43,1.43,0,0,1,.58-.11,1.49,1.49,0,0,1,.66.15,1.53,1.53,0,0,1,.53.46,2.54,2.54,0,0,1,.35.78,4.08,4.08,0,0,1,.13,1.13,3.3,3.3,0,0,1-.32,1.63,1,1,0,0,1-.94.54.91.91,0,0,1-.78-.39,1.71,1.71,0,0,1-.31-1h-.07c0,.1-.07.2-.11.3a1.75,1.75,0,0,1-.16.27.68.68,0,0,1-.24.2.61.61,0,0,1-.34.08.74.74,0,0,1-.48-.18,1.44,1.44,0,0,1-.37-.56h-.08a1.76,1.76,0,0,1-.56.73,1.3,1.3,0,0,1-.8.26,1.41,1.41,0,0,1-1.12-.51,1.94,1.94,0,0,1-.44-1.31,2.09,2.09,0,0,1,0-.43,3.6,3.6,0,0,1,.12-.44V69.71h.47v1.13h0a1.54,1.54,0,0,1,1-.36,1.34,1.34,0,0,1,1.07.52,1.8,1.8,0,0,1,.44,1.2v.59a.83.83,0,0,0,.14.23.35.35,0,0,0,.28.12.37.37,0,0,0,.28-.1.66.66,0,0,0,.13-.25,1.49,1.49,0,0,0,0-.33c0-.12,0-.25,0-.39s0-.34,0-.58,0-.43,0-.53a1.32,1.32,0,0,1,.1-.46A1.82,1.82,0,0,1,38.89,70.09ZM36,71.41a1.61,1.61,0,0,0-.91.23.74.74,0,0,0-.34.65.82.82,0,0,0,.09.4.84.84,0,0,0,.27.26,1.13,1.13,0,0,0,.39.14,2.42,2.42,0,0,0,.47,0,1.57,1.57,0,0,0,.88-.23.73.73,0,0,0,.34-.62.71.71,0,0,0-.34-.64A1.49,1.49,0,0,0,36,71.41Zm4-.94a.74.74,0,0,0-.44.13.6.6,0,0,0-.24.39,5.51,5.51,0,0,0,0,.56c0,.28,0,.61,0,1a1.38,1.38,0,0,0,.34.75.87.87,0,0,0,.62.22.72.72,0,0,0,.33-.07.75.75,0,0,0,.29-.25,1.51,1.51,0,0,0,.21-.46,2.81,2.81,0,0,0,.08-.7,2,2,0,0,0-.28-1.13A.93.93,0,0,0,40.07,70.47Z"/><path d="M39.39,66.67V69h-.32c0-.08,0-.16,0-.24a.87.87,0,0,0,0-.21.41.41,0,0,0-.15-.21.62.62,0,0,0-.29-.06H33a.72.72,0,0,0-.33.07.68.68,0,0,0-.24.2.88.88,0,0,0-.11.32c0,.16-.05.28-.06.38h-.31l-.11-1.81.08-.07h6.6a.47.47,0,0,0,.28-.07.38.38,0,0,0,.17-.2.86.86,0,0,0,.07-.21,1.5,1.5,0,0,0,0-.24Z"/><path d="M38.26,61.59a2.49,2.49,0,0,1,.92.81,2.08,2.08,0,0,1,.34,1.16,2.32,2.32,0,0,1-.21,1,2,2,0,0,1-.55.72,2.36,2.36,0,0,1-.82.42,3.29,3.29,0,0,1-1,.14,3,3,0,0,1-.93-.15,2.43,2.43,0,0,1-.81-.43,2.21,2.21,0,0,1-.56-.69,2.05,2.05,0,0,1-.21-.93,2.22,2.22,0,0,1,.17-.9,1.57,1.57,0,0,1,.45-.61,2,2,0,0,1,.64-.34,3,3,0,0,1,.81-.11h.32v3.19a3.72,3.72,0,0,0,.86-.09,2,2,0,0,0,.68-.28,1.44,1.44,0,0,0,.45-.5,1.54,1.54,0,0,0,.17-.73,1.32,1.32,0,0,0-.21-.75,1.93,1.93,0,0,0-.73-.61Zm-1.84,1.08a4,4,0,0,0-.58,0,1.69,1.69,0,0,0-.52.15,1.12,1.12,0,0,0-.37.31.87.87,0,0,0-.14.5,1,1,0,0,0,.43.85,2,2,0,0,0,1.18.37Z"/><path d="M39.39,49.75v3.06H39a4,4,0,0,0,0-.43,1.2,1.2,0,0,0-.08-.35.68.68,0,0,0-.21-.23.71.71,0,0,0-.31-.07h-5v.08l5.9,2.36v.24l-6,2.25v.07h4.14a4.1,4.1,0,0,0,.91-.08.86.86,0,0,0,.45-.23A1.06,1.06,0,0,0,39,56a2.32,2.32,0,0,0,.09-.44h.35v2.79H39a2.71,2.71,0,0,0-.07-.46.85.85,0,0,0-.16-.37.71.71,0,0,0-.42-.23,4.22,4.22,0,0,0-1-.07H33.9a1.67,1.67,0,0,0-.5.07.81.81,0,0,0-.32.21,1,1,0,0,0-.2.38,2.14,2.14,0,0,0-.07.43h-.35V55.93l5.2-2-4.35-1.69a3.66,3.66,0,0,0-.5-.16,2.27,2.27,0,0,0-.35-.07V49.76h.35a2.88,2.88,0,0,0,0,.35,1.91,1.91,0,0,0,.08.31.33.33,0,0,0,.19.22.73.73,0,0,0,.3.06h5a.62.62,0,0,0,.29-.06.45.45,0,0,0,.21-.22,1.33,1.33,0,0,0,.09-.31,1.86,1.86,0,0,0,0-.36Z"/><path d="M39.3,44.18c.06.16.1.29.14.41a1.48,1.48,0,0,1,.05.39,1,1,0,0,1-.18.61.82.82,0,0,1-.52.29v0a2.41,2.41,0,0,1,.54.68,1.94,1.94,0,0,1,.18.88,1.26,1.26,0,0,1-.33.89,1.15,1.15,0,0,1-.87.35,1.59,1.59,0,0,1-.5-.08,1.15,1.15,0,0,1-.39-.24,1,1,0,0,1-.26-.32A3.28,3.28,0,0,1,37,47.7l-.3-.9a7.39,7.39,0,0,0-.35-.9h-.49l-.24,0a.8.8,0,0,0-.34.11,1.06,1.06,0,0,0-.32.28.79.79,0,0,0-.13.5,1.16,1.16,0,0,0,.07.42.79.79,0,0,0,.16.27,1.45,1.45,0,0,0,.29,0,1.5,1.5,0,0,1,.35,0,.42.42,0,0,1,.31.15.59.59,0,0,1,.14.43.4.4,0,0,1-.17.36.71.71,0,0,1-.39.11.68.68,0,0,1-.43-.16,1.45,1.45,0,0,1-.36-.41,2.17,2.17,0,0,1-.23-.53,1.9,1.9,0,0,1-.1-.61A3.8,3.8,0,0,1,34.5,46a1.14,1.14,0,0,1,.24-.55,1.1,1.1,0,0,1,.49-.38A2,2,0,0,1,36,45l1.23,0h1.18a.57.57,0,0,0,.31-.07.53.53,0,0,0,.19-.2.56.56,0,0,0,.05-.23v-.33Zm-2.57,1.71c.08.28.16.52.24.73a2.62,2.62,0,0,0,.29.58,1.28,1.28,0,0,0,.39.38,1,1,0,0,0,.54.14.78.78,0,0,0,.6-.21A.76.76,0,0,0,39,47a1.14,1.14,0,0,0-.17-.61,1.68,1.68,0,0,0-.4-.44Z"/><path d="M39.39,41.25V43.6h-.32c0-.08,0-.16,0-.24a.87.87,0,0,0,0-.21.41.41,0,0,0-.15-.21.62.62,0,0,0-.29-.06H33a.72.72,0,0,0-.33.07.68.68,0,0,0-.24.2,1,1,0,0,0-.11.32c0,.16-.05.28-.06.38h-.31L31.83,42l.08-.07h6.6a.47.47,0,0,0,.28-.07.38.38,0,0,0,.17-.2.86.86,0,0,0,.07-.21,1.5,1.5,0,0,0,0-.24Z"/><path d="M39.18,37.47c.09.21.16.41.22.6a2.33,2.33,0,0,1,.09.7,1.06,1.06,0,0,1-.3.85,1.35,1.35,0,0,1-.86.24H35.07v.87H34.6v-.89H33.1V39h1.5V37.57h.47V39h2.69a3.43,3.43,0,0,0,.5,0,.9.9,0,0,0,.35-.1.47.47,0,0,0,.22-.24,1,1,0,0,0,.07-.42,2.51,2.51,0,0,0,0-.35,1.09,1.09,0,0,0-.06-.34Z"/></svg>