<svg id="Ebene_2" data-name="Ebene 2" xmlns="http://www.w3.org/2000/svg" viewBox="0 0 56.69 170.08"><path d="M21.5,22.9c0,.36.51,1.34.85,1.32s.68-.43.95-.51,1.2-.09,1.2-.4-.77-.37-1-.41-.71,0-1-.25-.17-1-.43-.92S21.52,22.37,21.5,22.9Z"/><path d="M54.62,8.35A14,14,0,0,0,51.67,5.2c-.07.19,2.27,3.62,2.27,4.4a2,2,0,0,1-1.38,1.58c-.32,0-.7-.34-1-.53s-1.77-1.07-1.81-.86.64.81,1.55,1.58a4.46,4.46,0,0,1,1.53,2.72c0,.64-.19,1.64-1.4,1.6s-2.45-2.17-2.58-2,1.22,2.46,1.24,3.59a3.69,3.69,0,0,1-.94,2.38,2.62,2.62,0,0,1-1.66.88,1,1,0,0,1-.81-.39c-.29-.29-.14-1.21,0-1.72s1.39-2.94,1.17-3.06-1.91,2.85-2.23,3.42a7.85,7.85,0,0,1-1.87,2.09c-.17-.09,1.1-1.75,1.61-2.6S46,16,46,13.54c.19-4-1.6-5.11-2-5.47a10.84,10.84,0,0,0-2.43-1.62c0,.17,1,1.17,1.41,1.6a4.81,4.81,0,0,1,1,2.58c0,.94-1.3,1.38-1.7,1.38S40.09,10.37,40,10.67s1.13,1.49,1.55,1.95,1.26,1.45,1.19,2a1.42,1.42,0,0,1-1.27,1.07,7,7,0,0,0-2.41-.77c0,.15,1.45,1.13,2.19,2.11a3.7,3.7,0,0,1,.77,2.19,3.88,3.88,0,0,1-.28,1.34c-.15.3-2.3-.28-2.4-.51a7.23,7.23,0,0,1-.09-1.68c0-.58.51-1.89.3-1.89a2.91,2.91,0,0,0-1.13,1.61,19.58,19.58,0,0,0-.1,2,4.41,4.41,0,0,1-1.75-.23,6.93,6.93,0,0,1,0-2,10.76,10.76,0,0,0-.91-3.7,12.76,12.76,0,0,0-2.28-2.64,9.14,9.14,0,0,0,1.13,2.1,6.69,6.69,0,0,1,1,3.43,3.28,3.28,0,0,1-1.45,2.43c-.34.27-1.3,0-1.55,0a11.36,11.36,0,0,0-1.3-3.29c-.51-.73-1.83-1.77-1.87-1.62s1.32,2.19,1.81,3.08a2.86,2.86,0,0,1,.34,2.09c-.13.21-2,.38-2.45.72a6.3,6.3,0,0,1-1.55,1c-.26,0-1.13-1-1.94-1.68a9.71,9.71,0,0,1-1.89-2.44c-.38-.69-.66-2.24-.71-2.07a8.62,8.62,0,0,0,.13,2.43,9,9,0,0,0,1.37,2.12c.53.71,2.1,1.92,2.44,2.37a.62.62,0,0,1,0,.81,8.43,8.43,0,0,0-1-1,14,14,0,0,0-2.36-1.19A12.31,12.31,0,0,1,21.2,19.2c-.36-.3-.83-1.13-1.3-1.53A4.19,4.19,0,0,0,21.13,20a27.33,27.33,0,0,0,4,2.49c1.11.49,1,1.06,1,1.06a1.51,1.51,0,0,1-.61,0,4.9,4.9,0,0,0-2,.43,19.2,19.2,0,0,0-2.28,1.34c-.57.3-2.51,1.32-3,1.66a3.12,3.12,0,0,1-1.7.34,1.34,1.34,0,0,0-1.19,1.51c.11,1,.83,1.06,1.13,1.06a2.29,2.29,0,0,0,.81-.21c.12-.06.64-.15.64,0s-.54.49-.54.66.19.51.9.47A16.09,16.09,0,0,0,20.84,30c.87-.26,2.8-.21,3.42-.34s1.24-1,1.55-1.49,1.05-1.72,1.13-1.85a3,3,0,0,1,1.62.06c.17.17,1,.92,1.49.92A2,2,0,0,0,31.16,27c.36-.19,1.27-.73,1.25-.87s0-.28-.21-.45-2-.43-2.32-.64-.43-.49-.77-.83-.87-.4-.93-.55.29-.43.89-.7a5.07,5.07,0,0,1,1.83-.2c.74,0,3.32.2,4.3.2s4,.31,5,0,2-1.13,2.74-1.18,1.49.28,2.85.26a11.73,11.73,0,0,0,6.45-2.11,8,8,0,0,0,3.59-6.72A10,10,0,0,0,54.62,8.35ZM23.94,27a.85.85,0,1,1,.84-.85A.85.85,0,0,1,23.94,27Zm7.8-5a20.42,20.42,0,0,0-2.49,0c-.38.1-1,.32-1.15.32s.9-.8,1.25-1.09a5.24,5.24,0,0,1,1.66-.7,5.44,5.44,0,0,1,.73,0Zm6.42.32c-.23,0-5-.32-5-.32l-.22-1.48,5.46.46S38.38,22.36,38.16,22.36Zm1.18,0-.16-1.25s1.88.29,1.88.48S39.34,22.36,39.34,22.36Z"/><circle cx="23.94" cy="26.14" r="0.43"/><path d="M28.35,37.07a.84.84,0,0,0-.84.84.86.86,0,0,0,.12.42H25.11l0-1.79a.83.83,0,0,0,.75-.82.84.84,0,1,0-1.68,0,.75.75,0,0,0,.05.26l-2.08.6-.24-2.07a.84.84,0,0,0,.45-.73.85.85,0,0,0-1.69,0,.83.83,0,0,0,.07.32l-1.66.8-.61-2.34a.85.85,0,0,0,.26-.61A.84.84,0,0,0,17,32a.83.83,0,0,0,.2.53l-.48,3.35,8.32,4.91.12.07,3-2.1a.71.71,0,0,0,.2,0,.84.84,0,1,0,0-1.68ZM25,35.31a.41.41,0,0,1,.41.41.42.42,0,1,1-.83,0A.41.41,0,0,1,25,35.31Zm-3.5-1.94a.42.42,0,1,1-.42.41A.42.42,0,0,1,21.5,33.37Zm-3.63-1.83a.42.42,0,0,1,0,.83.42.42,0,1,1,0-.83Zm7.3,8.77-8-4.7.4-2.87a.7.7,0,0,0,.25,0,1.08,1.08,0,0,0,.19,0l.72,2.74L21,34.44a.78.78,0,0,0,.49.18l.28,2.51,2.7-.78a.6.6,0,0,0,.21.14l0,2.26h2.67Zm3.18-2a.42.42,0,0,1-.42-.42.41.41,0,0,1,.42-.41.41.41,0,0,1,.41.41A.41.41,0,0,1,28.35,38.33Z"/><path d="M19.25,34.49,20.38,34c0-.06,0-.11,0-.17a1.13,1.13,0,0,1,2.25,0,1.1,1.1,0,0,1-.43.87l.18,1.57,1.5-.44v-.06a1.13,1.13,0,1,1,1.51,1V38h.37a22.65,22.65,0,0,0,3.4-5.15,15.81,15.81,0,0,0,.76-5.2,4.26,4.26,0,0,1-1.21-.54A1.39,1.39,0,0,0,27,27c-.64.51-1.5,2.49-2.08,3s-1.56.35-2.07.38-.64.22-1.22.77c-.38.35-1.76,1.48-2.67,2.22Z"/><path d="M28.35,37.07a.84.84,0,0,0-.84.84.86.86,0,0,0,.12.42H25.11l0-1.79a.83.83,0,0,0,.75-.82.84.84,0,1,0-1.68,0,.75.75,0,0,0,.05.26l-2.08.6-.24-2.07a.84.84,0,0,0,.45-.73.85.85,0,0,0-1.69,0,.83.83,0,0,0,.07.32l-1.66.8-.61-2.34a.85.85,0,0,0,.26-.61A.84.84,0,0,0,17,32a.83.83,0,0,0,.2.53l-.48,3.35,8.32,4.91.12.07,3-2.1a.71.71,0,0,0,.2,0,.84.84,0,1,0,0-1.68ZM25,35.31a.41.41,0,0,1,.41.41.42.42,0,1,1-.83,0A.41.41,0,0,1,25,35.31Zm-3.5-1.94a.42.42,0,1,1-.42.41A.42.42,0,0,1,21.5,33.37Zm-3.63-1.83a.42.42,0,0,1,0,.83.42.42,0,1,1,0-.83Zm7.3,8.77-8-4.7.4-2.87a.7.7,0,0,0,.25,0,1.08,1.08,0,0,0,.19,0l.72,2.74L21,34.44a.78.78,0,0,0,.49.18l.28,2.51,2.7-.78a.6.6,0,0,0,.21.14l0,2.26h2.67Zm3.18-2a.42.42,0,0,1-.42-.42.41.41,0,0,1,.42-.41.41.41,0,0,1,.41.41A.41.41,0,0,1,28.35,38.33Z"/><polygon points="25.3 40 17.35 35.32 17.56 34.95 25.52 39.63 25.3 40"/><path d="M16.4,36l-.9.54a5.28,5.28,0,0,1-.62.18,2,2,0,0,0,.55.15,7.16,7.16,0,0,1-1.13,1.28,3.44,3.44,0,0,1-.4.29,4.63,4.63,0,0,0,.77-.1,7.08,7.08,0,0,1-.77,1.27c-.19.26-.66.83-.77,1s-.19.32-.14.41.34-.34.46-.41.26.47.24.77,0,.72-.17.79-.85-.37-1.26-1-.64-1.51-1-1.94a1.32,1.32,0,0,0-1.08-.47,3.54,3.54,0,0,0-1.9.81c-.74.64-5,4.66-5.34,5a10.77,10.77,0,0,0-2,2.36c0,.41.17.77.34.81a7.42,7.42,0,0,0,1.24.11,5.23,5.23,0,0,0,1.23-.09c.17-.1.87-.66.94-1s-.11-.79,0-1A24.22,24.22,0,0,1,7,43.58c.58-.51,2.41-2.38,2.68-2.34s.92,1,1.13,1.15,3.19,2,3.34,2.06a3.09,3.09,0,0,0,1,.47c.28,0,.39-.19.36-.36a1.38,1.38,0,0,1,.09-.64,4.18,4.18,0,0,1,.55-.74c.13-.15.68-.62.94-.62s.18.09.17.21-.81.66-1,1A3.38,3.38,0,0,0,16,44.84c0,.21.08.76-.07.91s-.74-.15-1-.36-3.45-2.32-3.85-2.51a2.42,2.42,0,0,0-1.13-.3,1.91,1.91,0,0,0-1.47,1.09,5.48,5.48,0,0,0-.19,1.95c0,.26,0,6.54.17,6.86s.41.36.47.59,0,1.34.3,1.62,1,0,1.08-.19.83-.83.94-1,.23-.32.21-.49-.55-.49-.72-.66a.41.41,0,0,1,0-.6c.17-.1.34-.19.36-.34s-.4-.57-.61-.72-.28-.21-.24-.49-.1-4.36.17-4.68.68-.17,1.41.3,3.7,2.25,4.21,2.55a7.23,7.23,0,0,0,2,1.08,1.53,1.53,0,0,0,1.15-.93c.06-.32.19-2,.36-2s.43.3.34.85a4.68,4.68,0,0,1-.57,1.87c-.3.34-.66.86-1,.86a22.19,22.19,0,0,1-3-1.86c-.29-.17-.49-.14-.49.11s-.19,1.72,0,1.87.18-.49.26-.64,1.23,1.52,1.45,1.69c-.11-.43-.17-.79,0-.69a21.45,21.45,0,0,0,2.81,2.69c.27.14.1-1,.21-1.09s1.28.94,2.06,1.49a30.66,30.66,0,0,0,5.3,2.45,16.07,16.07,0,0,1,1.89,1.08,1.42,1.42,0,0,0,.62.17c.17,0,.47-.15.45-.64s-.11-1.46.15-1.53.53.34.49.77.1,4.87.23,6.21a13.76,13.76,0,0,0,1.18,4.6c.61,1,3.19,4.18,3.51,4.66s-.25,4.21-.25,4.94A15,15,0,0,1,35.12,79c-.12.25-1,.7-1.24,1.08a4.34,4.34,0,0,0-.7,1.47,1.38,1.38,0,0,0,1.21,1,2.1,2.1,0,0,0,1.91-1.57c.45.07,1,0,1-.13.12-.52-.25-.76-.22-1.46s.42-3.8.57-4.73.64-2.68.71-3.6-1-1.47-1.38-2.14a5.3,5.3,0,0,1-1-2.33,10.14,10.14,0,0,1,.89-3.38c.32-.67,1.82-2.68,1.91-3.2s.1-1.75.29-1.75.22.42.22,1-.09,2.26.23,2.61a6.27,6.27,0,0,0,2.61.51c.52,0-.57-.77-.76-1.15a8.51,8.51,0,0,1-.61-2.27,7.36,7.36,0,0,0-.16-2,21.4,21.4,0,0,0-3.24-4.56,44,44,0,0,0-3.79-3.57c-1-.81-4.87-3.49-5.65-4a8.21,8.21,0,0,1-2.14-2.34c-.25-.59-.65-1-.65-1.24C24.67,40.93,16.4,36,16.4,36Z"/><path d="M27,56.84c-.4.08-.91,1-.89,2.51a6.6,6.6,0,0,0,.34,2.79c.28.53.75,1.38,1,1.7a14.86,14.86,0,0,1,1,1.7c.06.21-.24.51-.6.64a14.59,14.59,0,0,1-2.83.3c-1.11,0-3.66.12-4.13.23s-1.85.94-1.85,1.4.64.86.92,1a6.62,6.62,0,0,0,1.49.36c.32,0,.83-.74,1-.78s.42.06.38.19,0,.25.22.3.65-.54.93-.64,2.09-.24,3-.34,3.32-.22,3.74-.37a.93.93,0,0,0,.64-.78c0-.24-.45-.83-.59-1.41s-.47-3.36-.51-4.15,0-2.66-.13-2.93a12.82,12.82,0,0,0-2.47-1.68A1.24,1.24,0,0,0,27,56.84Z"/><path d="M15.92,159.53a4.53,4.53,0,0,1,2-1.38,2.28,2.28,0,0,1,.89-.14,2.17,2.17,0,0,1,2.08,1.22,4.69,4.69,0,0,1,.4,2.15v2.72l-.07-.15.07.15a1.75,1.75,0,0,0-.25-.4,1.05,1.05,0,0,0-.74-.44h-8a1.05,1.05,0,0,0-.74.44,1.42,1.42,0,0,0-.24.4l.06-.15a.77.77,0,0,0-.06.15v-2.33a6.78,6.78,0,0,1,.27-2.11,1.82,1.82,0,0,1,1.84-1.3,3.47,3.47,0,0,1,2.46,1.17l0,0ZM12.4,162c.52,0,1.56,0,3.12,0v-1.79a1.56,1.56,0,0,0-.33-.56,1.45,1.45,0,0,0-1.17-.57,2.49,2.49,0,0,0-1.86.59,1.6,1.6,0,0,0-.42,1.16,4.14,4.14,0,0,0,0,.85C11.85,161.94,12.06,162,12.4,162Zm8.43-1.13a1.74,1.74,0,0,0-.6-1.28,2.81,2.81,0,0,0-2-.7,2,2,0,0,0-1.68.68,1.25,1.25,0,0,0-.27.68v1.79l3.92,0c.35,0,.55-.09.62-.28A4.14,4.14,0,0,0,20.83,160.9Z"/><path d="M21.29,152.21a1.32,1.32,0,0,1-.48-.77l-3.32,1.29v2.76l3.16,1a.58.58,0,0,0,.49-.38,1.66,1.66,0,0,0,.15-.38v2.93a1.64,1.64,0,0,0-.51-1,1.33,1.33,0,0,0-.41-.25L11.29,154q8.48-3.48,9.15-3.83a1.5,1.5,0,0,0,.67-.69,1.7,1.7,0,0,0,.18-.44Zm-4.4.67-3.38,1.21,3.37,1.24Z"/><path d="M18.07,142.24a12.38,12.38,0,0,0,1.87-1.48,2.44,2.44,0,0,0,.92-2.09.5.5,0,0,1,.21.25,3,3,0,0,1,.22,1.26c0,.56-.48,1.24-1.44,2a12.57,12.57,0,0,1-1.45,1,2.24,2.24,0,0,0-.69.64,3.44,3.44,0,0,0-.69,2.18h3.35a1,1,0,0,0,.7-.44,1.64,1.64,0,0,0,.22-.41v2.85a1.84,1.84,0,0,0-.22-.41.92.92,0,0,0-.7-.43h-8.1a.92.92,0,0,0-.7.43,1.5,1.5,0,0,0-.22.41v-2a5.71,5.71,0,0,1,0-2.1,2.28,2.28,0,0,1,2.37-2.11,2.32,2.32,0,0,1,.89.15,4.43,4.43,0,0,1,2,1.37A8.44,8.44,0,0,1,18.07,142.24Zm-1.75,2.17a1.31,1.31,0,0,0-.26-.69,2,2,0,0,0-1.69-.67,2.85,2.85,0,0,0-2,.69,1.75,1.75,0,0,0-.6,1.28,3.57,3.57,0,0,0,0,.8c.06.15.27.22.62.22l3.92,0Z"/><path d="M21.29,131.92a1.29,1.29,0,0,1-.48-.76l-3.32,1.28v2.76l3.16,1.05a.57.57,0,0,0,.49-.38,1.5,1.5,0,0,0,.15-.38v2.93a1.61,1.61,0,0,0-.51-1,1.38,1.38,0,0,0-.41-.26l-9.08-3.42q8.48-3.49,9.15-3.84a1.5,1.5,0,0,0,.67-.69,1.7,1.7,0,0,0,.18-.44Zm-4.4.67-3.38,1.21L16.88,135Z"/><path d="M11.29,122.45l1.82.38a1.24,1.24,0,0,0-.54.16.93.93,0,0,0-.55.88v1.89h8.34a1,1,0,0,0,.71-.44,1.64,1.64,0,0,0,.22-.41v2.87a1.64,1.64,0,0,0-.22-.41,1,1,0,0,0-.71-.45H12v1.88a.94.94,0,0,0,.55.89,1.39,1.39,0,0,0,.54.16l-1.82.37.17-.37v-7Z"/><path d="M20.36,112.79a1,1,0,0,0,.71-.44,1.64,1.64,0,0,0,.22-.41v2.87a1.84,1.84,0,0,0-.22-.41,1,1,0,0,0-.71-.44H16.15v5.5h4.21a1,1,0,0,0,.71-.44,1.84,1.84,0,0,0,.22-.41v2.86a1.78,1.78,0,0,0-.22-.4.92.92,0,0,0-.71-.44H12.21a.89.89,0,0,0-.7.44,1.23,1.23,0,0,0-.22.4v-2.86a1.27,1.27,0,0,0,.22.41.94.94,0,0,0,.7.44h3.25V114H12.21a.94.94,0,0,0-.7.44,1.27,1.27,0,0,0-.22.41v-2.87a1.18,1.18,0,0,0,.22.41.91.91,0,0,0,.7.44Z"/><path d="M11.46,106l-.17-.38,1.82.38a1.24,1.24,0,0,0-.54.16.93.93,0,0,0-.55.88V109h3.74v-2.09a1.62,1.62,0,0,0-.33-1l2,.25a1,1,0,0,0-.53.17,1.15,1.15,0,0,0-.53,1.07V109H20a2.13,2.13,0,0,0,.42-.46,2.21,2.21,0,0,0,.42-1.29,1.78,1.78,0,0,0-.66-1.31,2.93,2.93,0,0,0-.66-.46l1.73.2V111a1.75,1.75,0,0,0-.23-.42.94.94,0,0,0-.76-.43H12.14a1.53,1.53,0,0,0-.68,1Z"/><path d="M11.29,99.83a4.55,4.55,0,0,1,1.41-3.2A5,5,0,0,1,16.49,95a4.49,4.49,0,0,1,3.58,1.67,4.83,4.83,0,0,1,1.22,3.16,5.55,5.55,0,0,1-1.06,3.32A4.39,4.39,0,0,1,16.45,105c-2.27,0-3.82-.87-4.63-2.59A5.33,5.33,0,0,1,11.29,99.83Zm9.5,0a2.91,2.91,0,0,0,0-.4H11.9c0,.14-.05.27-.07.4Zm-8.95.49c0,.11,0,.22.05.33h8.82l.06-.33Zm4.45,3.46a4.77,4.77,0,0,0,3.18-1,3.66,3.66,0,0,0,1.16-1.83H12a3.71,3.71,0,0,0,1.15,1.83A4.73,4.73,0,0,0,16.29,103.75Zm4.42-4.64a3.34,3.34,0,0,0-1-1.85,4.58,4.58,0,0,0-3.19-1,5,5,0,0,0-3.3,1A3.87,3.87,0,0,0,12,99.11Z"/><path d="M11.29,84.85a1.23,1.23,0,0,0,.22.4.91.91,0,0,0,.7.44h9.08L13.74,93h6.62a1,1,0,0,0,.71-.44,1.84,1.84,0,0,0,.22-.41V95a1.64,1.64,0,0,0-.22-.41,1,1,0,0,0-.71-.44H11.29l7.63-7.28H12.21a.93.93,0,0,0-.7.45,1.14,1.14,0,0,0-.22.4Z"/><path d="M43.29,156.9v1.86c-.65.42-1.21.79-1.68,1.12s-1,.7-1.46,1.09v.71h2.19a.85.85,0,0,0,.3-.05.38.38,0,0,0,.2-.23,1.29,1.29,0,0,0,.06-.31,3.15,3.15,0,0,0,0-.37h.35v2.93h-.35c0-.08,0-.19,0-.34a.88.88,0,0,0-.06-.31.38.38,0,0,0-.18-.21.63.63,0,0,0-.32-.07h-5a.94.94,0,0,0-.3.05.36.36,0,0,0-.2.23,1.53,1.53,0,0,0-.08.31,2.8,2.8,0,0,0,0,.34h-.34v-3.2a3.7,3.7,0,0,1,.09-.83,2.16,2.16,0,0,1,.29-.7,1.47,1.47,0,0,1,.51-.48,1.5,1.5,0,0,1,.76-.18,2,2,0,0,1,.71.12,1.61,1.61,0,0,1,.53.36,2.25,2.25,0,0,1,.36.53,4.18,4.18,0,0,1,.26.68L41,159.1l1.12-.83a2.5,2.5,0,0,0,.43-.39,1.75,1.75,0,0,0,.23-.35,1.13,1.13,0,0,0,.1-.31,2.51,2.51,0,0,0,0-.32Zm-5.17,2.57a1.26,1.26,0,0,0-1.36,1.38v.83h3V161a1.55,1.55,0,0,0-.44-1.12A1.52,1.52,0,0,0,38.12,159.47Z"/><path d="M40.83,151.86a3.12,3.12,0,0,1,1,.16,2.47,2.47,0,0,1,.83.46,2.27,2.27,0,0,1,.58.78,2.48,2.48,0,0,1,.19,1,2.29,2.29,0,0,1-.17.87,2.23,2.23,0,0,1-.51.74,2.45,2.45,0,0,1-.79.51,3,3,0,0,1-1.06.19,2.64,2.64,0,0,1-1.85-.66,2.39,2.39,0,0,1,0-3.39A2.47,2.47,0,0,1,40.83,151.86Zm0,1a4.42,4.42,0,0,0-.78.07,2.8,2.8,0,0,0-.69.22,1.49,1.49,0,0,0-.48.41,1.07,1.07,0,0,0-.18.63,1.12,1.12,0,0,0,.18.64,1.35,1.35,0,0,0,.51.43,2,2,0,0,0,.68.22,4.73,4.73,0,0,0,.73.07,4.6,4.6,0,0,0,.87-.08,2.47,2.47,0,0,0,.71-.24,1.35,1.35,0,0,0,.49-.42,1.05,1.05,0,0,0,.18-.62,1.09,1.09,0,0,0-.59-1A3.13,3.13,0,0,0,40.84,152.87Z"/><path d="M44.86,151.33a.57.57,0,0,1-.4-.13.43.43,0,0,1-.15-.34.76.76,0,0,1,0-.27,1,1,0,0,1,.15-.2,2.07,2.07,0,0,1,.2-.15l.21-.13a2,2,0,0,0-.69-.59,5.88,5.88,0,0,0-1-.49l-2.07.84-1.89.79A.7.7,0,0,0,39,151a1.56,1.56,0,0,0-.16.44h-.32v-2.2h.34a2.86,2.86,0,0,0,.06.35c0,.14.08.21.13.21l.1,0,.14-.05,1.4-.57,1.45-.59L41,148.08l-1.32-.53-.26-.09a.64.64,0,0,0-.28-.07c-.08,0-.16.08-.23.22a1.27,1.27,0,0,0-.14.43h-.31v-1.79h.3a1.31,1.31,0,0,0,.17.38.9.9,0,0,0,.41.36c.9.39,1.72.73,2.46,1s1.28.53,1.63.69a9.81,9.81,0,0,1,1.06.55,3.32,3.32,0,0,1,.61.47,1.36,1.36,0,0,1,.27.41,1,1,0,0,1,.07.38.89.89,0,0,1-.18.59A.52.52,0,0,1,44.86,151.33Z"/><path d="M43.2,141.28c0,.16.1.29.13.41a1.15,1.15,0,0,1,.05.39,1,1,0,0,1-.17.61.84.84,0,0,1-.53.29v0a2.25,2.25,0,0,1,.54.68,1.82,1.82,0,0,1,.19.88,1.26,1.26,0,0,1-.33.89,1.18,1.18,0,0,1-.87.35,1.5,1.5,0,0,1-.5-.08,1.1,1.1,0,0,1-.4-.24,1.44,1.44,0,0,1-.26-.32,2.07,2.07,0,0,1-.18-.37c-.06-.15-.16-.45-.31-.9a7.39,7.39,0,0,0-.35-.9h-.48l-.25,0a1,1,0,0,0-.66.4.85.85,0,0,0-.13.5,1.16,1.16,0,0,0,.08.42.66.66,0,0,0,.16.27,1.38,1.38,0,0,0,.28-.05,1.56,1.56,0,0,1,.35,0,.44.44,0,0,1,.32.15.63.63,0,0,1,.14.43.42.42,0,0,1-.17.36.77.77,0,0,1-.39.11.66.66,0,0,1-.43-.16,1.48,1.48,0,0,1-.37-.41,2.17,2.17,0,0,1-.23-.53,2.22,2.22,0,0,1-.1-.61,3.8,3.8,0,0,1,.06-.72,1.36,1.36,0,0,1,.24-.55,1.16,1.16,0,0,1,.49-.38,2.06,2.06,0,0,1,.8-.13h1.24l1.18,0a.51.51,0,0,0,.3-.07.47.47,0,0,0,.24-.43c0-.11,0-.22,0-.33ZM40.62,143c.08.27.16.52.24.73a3.92,3.92,0,0,0,.29.58,1.21,1.21,0,0,0,.4.38,1,1,0,0,0,.54.14.74.74,0,0,0,.59-.21.77.77,0,0,0,.2-.54,1.14,1.14,0,0,0-.17-.61,2.12,2.12,0,0,0-.4-.44Z"/><path d="M43.29,138.35v2.35H43a1.94,1.94,0,0,0,0-.24.87.87,0,0,0,0-.21.36.36,0,0,0-.15-.21.58.58,0,0,0-.28-.06H36.89a.72.72,0,0,0-.33.07.63.63,0,0,0-.25.2,1,1,0,0,0-.1.32,1.62,1.62,0,0,0-.06.38h-.32l-.1-1.81.07-.07h6.61a.51.51,0,0,0,.28-.07.42.42,0,0,0,.17-.2,1.72,1.72,0,0,0,.07-.21.88.88,0,0,0,0-.24Z"/><path d="M41.22,129.24l2.07.15v5.41h-.35c0-.07,0-.19,0-.34a.81.81,0,0,0-.06-.3.44.44,0,0,0-.18-.22.76.76,0,0,0-.32-.06h-5a.84.84,0,0,0-.29.05.48.48,0,0,0-.21.23c0,.07-.07.18-.11.31a2.2,2.2,0,0,0-.07.33h-.34v-2.92h.34a3.24,3.24,0,0,0,0,.35c0,.15.06.25.08.32a.38.38,0,0,0,.2.23.8.8,0,0,0,.3.06H42a2.23,2.23,0,0,0,.5,0,.44.44,0,0,0,.27-.14.71.71,0,0,0,.12-.34,5.27,5.27,0,0,0,0-.62c0-.12,0-.25,0-.38a2.22,2.22,0,0,0,0-.37,2.33,2.33,0,0,0-.08-.31.64.64,0,0,0-.13-.22A5.18,5.18,0,0,0,42,130a5,5,0,0,0-.75-.37Z"/><path d="M40.83,124a3.12,3.12,0,0,1,1,.16,2.47,2.47,0,0,1,.83.46,2.18,2.18,0,0,1,.58.78,2.48,2.48,0,0,1,.19,1,2.29,2.29,0,0,1-.17.87,2.23,2.23,0,0,1-.51.74,2.45,2.45,0,0,1-.79.51,3,3,0,0,1-1.06.19,2.64,2.64,0,0,1-1.85-.66,2.22,2.22,0,0,1-.72-1.72,2.19,2.19,0,0,1,.69-1.67A2.47,2.47,0,0,1,40.83,124Zm0,1a4.42,4.42,0,0,0-.78.07,2.8,2.8,0,0,0-.69.22,1.49,1.49,0,0,0-.48.41,1.07,1.07,0,0,0-.18.63,1.12,1.12,0,0,0,.18.64,1.35,1.35,0,0,0,.51.43,2,2,0,0,0,.68.22,4.73,4.73,0,0,0,.73.07,4.6,4.6,0,0,0,.87-.08,2.47,2.47,0,0,0,.71-.24,1.35,1.35,0,0,0,.49-.42,1.05,1.05,0,0,0,.18-.62,1.09,1.09,0,0,0-.59-1A3.13,3.13,0,0,0,40.84,125Z"/><path d="M43.41,120.88a2.05,2.05,0,0,1-.69,1.64,2.78,2.78,0,0,1-1.86.59,2.91,2.91,0,0,1-1-.16,2.65,2.65,0,0,1-.8-.46,2.13,2.13,0,0,1-.56-.73,2,2,0,0,1-.22-.94,1.9,1.9,0,0,1,.34-1.16,1.13,1.13,0,0,1,.93-.44.77.77,0,0,1,.43.12.4.4,0,0,1,.19.38.63.63,0,0,1-.15.45.4.4,0,0,1-.32.16,1.74,1.74,0,0,1-.45-.06L39,120.2a.43.43,0,0,0-.2.26,1.14,1.14,0,0,0,0,.37,1,1,0,0,0,.1.45,1.12,1.12,0,0,0,.36.41,2,2,0,0,0,.66.29,3.63,3.63,0,0,0,1,.12,2.55,2.55,0,0,0,1.49-.41,1.22,1.22,0,0,0,.57-1,1.32,1.32,0,0,0-.23-.79,2.19,2.19,0,0,0-.69-.6l.2-.31a2.6,2.6,0,0,1,.92.85A2,2,0,0,1,43.41,120.88Z"/><path d="M43.29,113.13v2.36H43a2.32,2.32,0,0,0,0-.24.68.68,0,0,0,0-.23.31.31,0,0,0-.15-.2.49.49,0,0,0-.28-.07H40a1.17,1.17,0,0,0-.79.24.76.76,0,0,0-.28.59,1.51,1.51,0,0,0,.08.48,2.38,2.38,0,0,0,.2.39,1.16,1.16,0,0,0,.24.25l.21.14h2.77a.54.54,0,0,0,.27-.07.42.42,0,0,0,.17-.2,1.87,1.87,0,0,0,.07-.22,1,1,0,0,0,0-.26h.33v2.36H43a2,2,0,0,0,0-.23.88.88,0,0,0,0-.2.36.36,0,0,0-.15-.21.58.58,0,0,0-.28-.06H36.86a.8.8,0,0,0-.34.07.63.63,0,0,0-.25.2.77.77,0,0,0-.09.31c0,.15,0,.27,0,.36h-.32l-.1-1.78.07-.07h3.36v0l-.29-.3a2.13,2.13,0,0,1-.26-.34,1.77,1.77,0,0,1-.19-.44,2,2,0,0,1-.08-.57,1.2,1.2,0,0,1,.41-1,1.76,1.76,0,0,1,1.17-.35h2.51a.54.54,0,0,0,.27-.06.42.42,0,0,0,.17-.2c0-.08.05-.15.06-.21a.75.75,0,0,0,0-.23Z"/><path d="M43.29,107v2.35H43a2.5,2.5,0,0,0,0-.25.72.72,0,0,0,0-.22.31.31,0,0,0-.15-.2.58.58,0,0,0-.28-.07H40a1.12,1.12,0,0,0-.79.25.73.73,0,0,0-.28.59A1.4,1.4,0,0,0,39,110a1.94,1.94,0,0,0,.2.38.87.87,0,0,0,.24.26l.21.14h2.77a.45.45,0,0,0,.27-.07.48.48,0,0,0,.17-.2,1.55,1.55,0,0,0,.07-.23,1,1,0,0,0,0-.24h.33v2.35H43a2,2,0,0,0,0-.23.54.54,0,0,0,0-.2.33.33,0,0,0-.15-.21.58.58,0,0,0-.28-.06h-3a.64.64,0,0,0-.31.07.55.55,0,0,0-.23.2.93.93,0,0,0-.08.22,1.93,1.93,0,0,0,0,.27h-.32l-.11-1.6.07-.07h.68v0c-.08-.07-.17-.17-.28-.29a3.3,3.3,0,0,1-.27-.33,1.55,1.55,0,0,1-.19-.43,1.94,1.94,0,0,1-.08-.56,1.22,1.22,0,0,1,.43-1,1.85,1.85,0,0,1,1.15-.33h2.51a.54.54,0,0,0,.27-.06.42.42,0,0,0,.17-.2,1.15,1.15,0,0,0,.06-.21.67.67,0,0,0,0-.23Z"/><path d="M43.2,101.68c0,.15.1.28.13.4a1.19,1.19,0,0,1,.05.39,1,1,0,0,1-.17.61.84.84,0,0,1-.53.29v0a2.25,2.25,0,0,1,.54.68,1.84,1.84,0,0,1,.19.88,1.24,1.24,0,0,1-.33.89,1.18,1.18,0,0,1-.87.35,1.5,1.5,0,0,1-.5-.08,1.1,1.1,0,0,1-.4-.24,1.24,1.24,0,0,1-.26-.32,2.07,2.07,0,0,1-.18-.37c-.06-.15-.16-.45-.31-.89a7.76,7.76,0,0,0-.35-.91h-.48l-.25,0a.85.85,0,0,0-.34.11,1.06,1.06,0,0,0-.32.28.88.88,0,0,0-.13.5,1.16,1.16,0,0,0,.08.42.66.66,0,0,0,.16.27,1.23,1.23,0,0,0,.28,0,1.18,1.18,0,0,1,.35,0,.44.44,0,0,1,.32.15.63.63,0,0,1,.14.43.42.42,0,0,1-.17.36.77.77,0,0,1-.39.11.66.66,0,0,1-.43-.16,1.48,1.48,0,0,1-.37-.41,2,2,0,0,1-.23-.53,2.22,2.22,0,0,1-.1-.61,3.88,3.88,0,0,1,.06-.72,1.42,1.42,0,0,1,.24-.55,1.16,1.16,0,0,1,.49-.38,2.06,2.06,0,0,1,.8-.13l1.24,0h1.18a.61.61,0,0,0,.3-.06.55.55,0,0,0,.19-.21.44.44,0,0,0,.05-.23c0-.11,0-.21,0-.32Zm-2.58,1.7c.08.28.16.52.24.73a3.49,3.49,0,0,0,.29.58,1.21,1.21,0,0,0,.4.38,1,1,0,0,0,.54.15.75.75,0,0,0,.59-.22.77.77,0,0,0,.2-.54,1.14,1.14,0,0,0-.17-.61,2.12,2.12,0,0,0-.4-.44Z"/><path d="M42.79,96.87a1.43,1.43,0,0,1,.42-.31,1.39,1.39,0,0,1,.58-.11,1.44,1.44,0,0,1,.65.15,1.53,1.53,0,0,1,.53.46,2.81,2.81,0,0,1,.36.78A4.55,4.55,0,0,1,45.45,99a3.19,3.19,0,0,1-.32,1.63,1,1,0,0,1-.93.54.93.93,0,0,1-.79-.39,1.79,1.79,0,0,1-.31-1H43a2.22,2.22,0,0,1-.11.3,1.17,1.17,0,0,1-.15.27.91.91,0,0,1-.24.2.65.65,0,0,1-.35.08.71.71,0,0,1-.47-.18,1.45,1.45,0,0,1-.38-.56h-.07a1.94,1.94,0,0,1-.56.73,1.32,1.32,0,0,1-.8.26,1.43,1.43,0,0,1-1.13-.51A2,2,0,0,1,38.33,99a2.1,2.1,0,0,1,.05-.43,3.15,3.15,0,0,1,.11-.44V96.49H39v1.13h0a1.43,1.43,0,0,1,.46-.27,1.51,1.51,0,0,1,.5-.09,1.34,1.34,0,0,1,1.07.52,1.75,1.75,0,0,1,.44,1.2v.59a.9.9,0,0,0,.15.23.33.33,0,0,0,.27.12.36.36,0,0,0,.28-.1.55.55,0,0,0,.13-.25,1.44,1.44,0,0,0,.05-.33c0-.12,0-.25,0-.39s0-.34,0-.59,0-.42,0-.52a1.29,1.29,0,0,1,.11-.46A1.33,1.33,0,0,1,42.79,96.87Zm-2.86,1.32a1.63,1.63,0,0,0-.91.23.74.74,0,0,0-.34.65.72.72,0,0,0,.1.4.68.68,0,0,0,.27.26,1,1,0,0,0,.39.14,2.32,2.32,0,0,0,.46,0,1.61,1.61,0,0,0,.89-.23.75.75,0,0,0,.34-.62.73.73,0,0,0-.34-.64A1.45,1.45,0,0,0,39.93,98.19Zm4-.94a.73.73,0,0,0-.45.13.6.6,0,0,0-.24.38c0,.1,0,.28,0,.57s0,.61,0,1a1.32,1.32,0,0,0,.35.75.87.87,0,0,0,.62.22.78.78,0,0,0,.33-.07.73.73,0,0,0,.28-.25A1.31,1.31,0,0,0,45,99.5a2.41,2.41,0,0,0,.08-.7,2,2,0,0,0-.27-1.13A1,1,0,0,0,44,97.25Z"/><path d="M43.2,91.14c0,.16.1.29.13.41a1.15,1.15,0,0,1,.05.39,1,1,0,0,1-.17.61.84.84,0,0,1-.53.29v0a2.25,2.25,0,0,1,.54.68,1.82,1.82,0,0,1,.19.88,1.26,1.26,0,0,1-.33.89,1.18,1.18,0,0,1-.87.35,1.5,1.5,0,0,1-.5-.08,1.1,1.1,0,0,1-.4-.24,1.24,1.24,0,0,1-.26-.32,2.07,2.07,0,0,1-.18-.37c-.06-.15-.16-.45-.31-.9a7.39,7.39,0,0,0-.35-.9h-.48l-.25,0a1,1,0,0,0-.66.4.85.85,0,0,0-.13.5,1.16,1.16,0,0,0,.08.42.66.66,0,0,0,.16.27,1.38,1.38,0,0,0,.28,0,1.56,1.56,0,0,1,.35,0,.44.44,0,0,1,.32.15A.63.63,0,0,1,40,95a.42.42,0,0,1-.17.36.77.77,0,0,1-.39.11.66.66,0,0,1-.43-.16,1.48,1.48,0,0,1-.37-.41,2.17,2.17,0,0,1-.23-.53,2.22,2.22,0,0,1-.1-.61,3.8,3.8,0,0,1,.06-.72,1.36,1.36,0,0,1,.24-.55,1.16,1.16,0,0,1,.49-.38,2.06,2.06,0,0,1,.8-.13l1.24,0h1.18a.51.51,0,0,0,.3-.07.46.46,0,0,0,.19-.2.44.44,0,0,0,.05-.23c0-.11,0-.22,0-.33Zm-2.58,1.71c.08.28.16.52.24.73a3.92,3.92,0,0,0,.29.58,1.21,1.21,0,0,0,.4.38,1,1,0,0,0,.54.14.74.74,0,0,0,.59-.21.77.77,0,0,0,.2-.54,1.14,1.14,0,0,0-.17-.61,2.12,2.12,0,0,0-.4-.44Z"/><path d="M39.09,86.78a.81.81,0,0,1,.44.12.42.42,0,0,1,.2.38.53.53,0,0,1-.15.41.4.4,0,0,1-.31.15l-.19,0-.18,0a1.07,1.07,0,0,0,.19.54,1.61,1.61,0,0,0,.52.52h2.81a.45.45,0,0,0,.27-.07.38.38,0,0,0,.17-.2,1.73,1.73,0,0,0,.07-.32,2.23,2.23,0,0,0,0-.33h.33v2.54H43a1.94,1.94,0,0,0,0-.24.59.59,0,0,0,0-.2.36.36,0,0,0-.15-.21.58.58,0,0,0-.28-.06h-3a.63.63,0,0,0-.3.07A.59.59,0,0,0,39,90a.93.93,0,0,0-.08.22,1.93,1.93,0,0,0,0,.27h-.32l-.11-1.6.07-.07h.68v0a2.37,2.37,0,0,1-.6-.68,1.4,1.4,0,0,1-.21-.68.69.69,0,0,1,.2-.5A.76.76,0,0,1,39.09,86.78Z"/><path d="M28.41,84.85q.63,9.9.83,19.82c.17,6.6.22,13.21.24,19.82s-.07,13.21-.24,19.82-.41,13.21-.83,19.82q-.61-9.91-.83-19.82c-.16-6.61-.21-13.22-.23-19.82s.07-13.22.24-19.82S28,91.45,28.41,84.85Z"/></svg>