<svg id="Ebene_2" data-name="Ebene 2" xmlns="http://www.w3.org/2000/svg" viewBox="0 0 56.69 170.08"><defs><style>.cls-1{fill-rule:evenodd;}</style></defs><path class="cls-1" d="M27.58,9.14,27,8.83a.52.52,0,0,0-.59.5c0,.35.07.51.32.46.6-.09,1-.13,1.2-.14a.65.65,0,0,0-.38-.51m-2.41,3.92-1.43,0c.13-.81.47-1.21,1-1.21A1.58,1.58,0,0,1,25.17,13.06Zm-1.69.16-.56,0c-.05-.37,0-.57.22-.61S23.48,12.85,23.48,13.22Zm32.86,1.55q1.08,2-1.15,3.42c1.64,2.35,1.57,3.62-.21,3.84q1.59-1.56-.37-2.54c-.17.46-.6.7-1.31.71q1.38,2.75-1,3.69c.26.26.17.48-.29.67a1.5,1.5,0,0,1-2.13-.29c1.46.23,2-.36,1.69-1.75a4.14,4.14,0,0,0-1.23-1.3,3.52,3.52,0,0,1-1,2.85c-1.06,1.07-1.08,2-.06,2.74-2-.38-2.57-1.73-1.54-4.07-2.62.67-3.68-1.86-1.41-2.88-1.34,2.18,2,1.66,1.81-.36a5.12,5.12,0,0,0-.85-2c-2.33,3-5.16.42-3.6-1.2-.31,3.26,2.16,1.57,2.38.28a2.37,2.37,0,0,1,.54-1.7q-3.36-.6-4.89,1.38a9.56,9.56,0,0,0-1.57,7.88A25.26,25.26,0,0,0,41.53,29q1.32-2.42,4.66-2.19a2.28,2.28,0,0,1,1.71,2.93,1.86,1.86,0,0,1-1.49,1.66c1-1.41.89-2.31-.22-2.69s-1.83.12-2,1.23a1.77,1.77,0,0,0,1.3,2.11c-1.29,2.19.3,4.37,1.19,6.41A3.14,3.14,0,0,1,49,40.77c2.93,3.32.43,6.52-2.13,5.64q-3.93,6.51-10.3,2.13a3.21,3.21,0,0,1-.79,1.29c-1,1-1,1.63.1,2a1.17,1.17,0,0,0,.91-.69q.23.84-.84,1.23c.65.8.62,1.47-.08,2-.85-3.65-3.13,3.59,1.58.9a2.05,2.05,0,0,1-1.84,1.94c1.17.82,3.51.28,2.59,2.34-1.44-1.86-2.9.48.55.55A4.71,4.71,0,0,0,40.2,61.4a5.36,5.36,0,0,1-.93.11.77.77,0,0,1-.59.62,1.28,1.28,0,0,0,1.53.78,1.93,1.93,0,0,0,.82-.52c0,1.42-.63,2.21-1.78,2.36a1.53,1.53,0,0,1-1.1,2c.31-2.39-1.51-2.19-1.08-1.19s.65,1.73.07,2.2l-.76.7c-.33-1-.69-1.32-1.1-.9.35,1.32.07,2.15-.85,2.47q-.27,1.9-1.8,1.68c.88-.38,1.14-.91.77-1.6-.46-.3-.4-.88.18-1.75-1.47-.22-.74,3.34-2.5,2.62a2.64,2.64,0,0,1-1.65,2,.77.77,0,0,0,.8.88c-1.14.58-1.77.22-1.9-1.09l-.53-.36c-.1.24-.3.25-.59,0a3.48,3.48,0,0,0,0,1.16c-1.08-.21-1.33-.79-.76-1.76a1.15,1.15,0,0,1-.16-1.07A2.21,2.21,0,0,0,25.62,72c-.58-.65-.5-1.31.24-2-.17-2,6.52-3.66,5.52-7.2-.28.08-.36-.06-.24-.43l-.44-.58-.43.6.14-.88L30,60.93l-.17.41-.05-.43-.47-.38-.41.3c.14-.49.09-.78-.15-.89a.68.68,0,0,0-.41.1c.09-.56.05-.84-.11-.85l-.32.2-.05-.71L27.35,58a4,4,0,0,1-1.91,1.85,2.11,2.11,0,0,1-1.63,1.61c.76-.7,1.13-1.15,1.1-1.33a1.88,1.88,0,0,1-2.1.08c1.24.11,2.57-.46,2.28-2l-.39.26a2.23,2.23,0,0,0,.39-1.8l-.53.35.7-1.41c0-.77,0-1.16,0-1.16l-.69.7a3.14,3.14,0,0,1,.66-1.31,10.94,10.94,0,0,1,.16-1.34l-.12,0-.38.64c.12-1.76,1.14-3.2,1.94-4.71-.39-.29-.87-.23-1.45.18a.93.93,0,0,0,.13,1.18,1.32,1.32,0,0,1-.84-.79L24.5,49c0,1.35-.4,2-1.13,2,.5-1.51-1-1.81-1.32-1.35.05.82,1.4,1.46.91,2.25s-.07.91.86,1.15c-1.06.48-2,.15-2.87-1-.8,1.39,3.26,1.32,2.76,3.44A1.38,1.38,0,0,0,24,56.65a.74.74,0,0,1-.81-.6c-.58,1.32-1.3,2-2.16,2.15a1.18,1.18,0,0,0-.08,1.22c-.75-.62-.87-1.53-.37-2.72-1.1-.8-2.81,4.91-3.73,3.65a1.6,1.6,0,0,1-2.07.69c.85-.24,1.31-.58,1.37-1-.45-.46-.4-1,.16-1.62-1.59-.2-1.23,1.9-3.5,2.19a1.74,1.74,0,0,0,.34,1.24q-1.43-.35-1.32-2.34c-.33.2-.55.17-.64-.09a1.29,1.29,0,0,0-.52,1.21c-.59-.6-.7-1.1-.32-1.52s.42-.77.08-.72a.9.9,0,0,0-.57,1c-.49-.53-.63-.92-.42-1.18a4.84,4.84,0,0,1,.67-.75c-.54-3.41,7.36-1.76,6.77-4.55a3,3,0,0,0-.44-.68c-.51.62-.94.87-1.3.75.44-.5.51-.81.2-.93a1.39,1.39,0,0,0-.6.37,1,1,0,0,1,.48-.8c.35-.42.36-.57,0-.47-.27.31-.45.44-.53.39a7.55,7.55,0,0,0,.94-2.76,3.15,3.15,0,0,1-1.32,1.31,12,12,0,0,0,1.26-2c-1.45,1-2.74,1.09-3.89.33A2.68,2.68,0,0,0,14,46.67c-1.39-.41-2.15-1.12-2.28-2.15l.61.75.11-.08a.9.9,0,0,1,0-.95c0,.72.21,1.12.64,1.21,1.9.15,3.28-2,5.14-3a4.63,4.63,0,0,1-2.08-.67c2.08.45,3.55.41,4.41-.13-.59-.24-.85-.41-.77-.49,1.36.32,4.41-.49,5.85.51a29.64,29.64,0,0,0,3.35,2,12.51,12.51,0,0,0-4.49-6.53,12.81,12.81,0,0,1-4.22-5.42.86.86,0,0,1-.77.26c.46-.56.5-.9.1-1a.67.67,0,0,0-.8.59c-.13,1.08-.4,1.56-.82,1.43,1.5-1.36-.78-2-.89-.65s-.88,1.54-1.83.83c3-1.52-2.39-3.25-.54,0-1,.08-4-2.68-3.11-.34a1.3,1.3,0,0,0,.91.62c-1.76.5-2.56.1-2.39-1.19l-.17,0a2,2,0,0,1-2.49,1.3,1.55,1.55,0,0,0,.91-2.15,3.18,3.18,0,0,1-3.3,1.73c-1,.49-1.48.19-1.54-.91a1.71,1.71,0,0,0,1.32.27C4.54,31.7,7.28,31,5,31.18c-.17.35-.74.44-1.72.27a1.36,1.36,0,0,1-1.79.19c-.26.11-.36.48-.3,1.14C.12,32,.08,31.36,1,31c.21-.87.14-1.31-.23-1.33a.89.89,0,0,0-.6.75C-.5,28.63.82,29,1.63,27.89a1.81,1.81,0,0,0-1.27.23c0-1,.71-1.34,2.09-.92C5.2,26.54,5,28.48,7.09,28.34q4.64,1.31,3.63.07a.83.83,0,0,1,.58.21l0-.38,1,.06-.6-.32c.18-.19.54-.09,1.17-.1s.8-.27.49-.38c-1.2-.47-1.59-1-1.19-1.71.75,2.62,3.41.5,2.79.2a.82.82,0,0,0-1.16.32c-.28-1.85,2.31-.4,2.17-1.92-1,.61-2.46.51-2.8-.71a1.74,1.74,0,0,0,1.06-.34c.24-.35.14-.56-.29-.63-1.25.15-3,.9-3.46-.15s.11-1,.68-1.35c-.57,1.58.41,2.11,1.12,1.32a1.82,1.82,0,0,1,1.15-.83V20.45c-.06-.37-.78-.06-.8.67-.88-.6-1-1.29-.41-2.06-.67-.67-.79-1.29-.37-1.84-1.16-.52-1.71-.19-1.66,1q-2.2-1.09-.51-2.65c-.86-.41-1.34-.76-1.43-1A1.07,1.07,0,0,0,7,14.83c-.34-1,.47-1.36,2.42-1l.07-.13C8,12.84,7.33,11.94,7.61,11q-.94-1.31.66-2c-.32.58-.39,1-.21,1.16a.91.91,0,0,1,1,.12l.11-.12a1.22,1.22,0,0,1,.25-1.56A3.23,3.23,0,0,0,8,7.37c-.39-.35-.4-1,0-1.85A.84.84,0,0,0,6.8,5.05c.5-.84,1.22-.82,2.13.06a2.34,2.34,0,0,1,1-1,.72.72,0,0,0-.72-.81q1.24-1.12,1.44.72A3.88,3.88,0,0,1,12,4.16a.88.88,0,0,0-.37-1c1-.05,1.35.48,1,1.61a6.33,6.33,0,0,1,.63,3.42c-.48,2.1-.44,3.49.14,4.18L13.6,12l.06.65.41-.2c0,.58,0,.87,0,.87.15,0,.31.27.49.76l.29-.53a.54.54,0,0,1-.11.6h.34a3.63,3.63,0,0,0,.25.88l.28-.3a1,1,0,0,1,.14.75l.65.78c.06-.22.15-.34.26-.31.07.55.09.82.09.82.12-.32.19-.39.21-.2,0,.53.14.83.42.88l.18-.27a1.38,1.38,0,0,1,.26.85c.35-.08.48,0,.39.2s.11.27.42.29c1.32-1,2.44-1.32,3.36-.89q2.38.91,2.85-1.65c-.9.46-2.32-.19-2.82.35a2.39,2.39,0,0,1,.77-2.42c.38.66.82.69,1.33.1.27.53.58.74.95.64.24-.72.15-1.1-.27-1.13a20.07,20.07,0,0,0-4.57.69c-3,.38-3.84-2.25-2.07-3,1.05-.26,1.73-.12,2.05.44-1.91,1.57,1.7,1.82,2.53,1.61a4.56,4.56,0,0,1-.64-3.46,11.41,11.41,0,0,1,3.45-.55L26.74,8a10.12,10.12,0,0,1,2.42.15c1.37.16,2.8-.43,2.36-1.76a2,2,0,0,1,.66,2.42c.85-.13,1.19-.77,1-1.9a1.92,1.92,0,0,1,.23,2.55,1.53,1.53,0,0,0,1.3-1.37,1.43,1.43,0,0,1-.28,1.81,1.39,1.39,0,0,1,1.21.64,2.72,2.72,0,0,0,1.48,1.27,3.51,3.51,0,0,1-1.79,0l0,.17a1.6,1.6,0,0,1,.88,1.21,2.13,2.13,0,0,0,1.47.59,3.88,3.88,0,0,1-2,.29,5.11,5.11,0,0,1,.62,2.13,1.82,1.82,0,0,0,.92,1.09L35.71,17l-.05.13a2.45,2.45,0,0,1,1.39,2.59A1.87,1.87,0,0,1,35.71,21q-.3,3.78,1.26,2.45c-.09.4-.37.56-.83.48.34.31.6.45.79.43-.47.26-1,.12-1.49-.4a2.74,2.74,0,0,1-1.67-1.61l-.16.09a2.89,2.89,0,0,1,.33,2,2.29,2.29,0,0,0,.76,2.67q1.32.27,1.23-.87c.31.7-.11,1.32-1.25,1.86a1.56,1.56,0,0,1-1.71-.6c-.48.78-.31,1.78.52,3,.4.71.11,1.49-.88,2.33a29.24,29.24,0,0,0,3.23,10.41,4.74,4.74,0,0,1,1,2.61q1,3,4.78,2.5c1.74-.27,2.79-.93,3.14-2Q45,43.69,41.94,44q-3.13,1.41-3.21-1.52a2.87,2.87,0,0,1,.93-3.24c-.63,2.42.31,3.2,2.84,2.33a.73.73,0,0,1,.88-.34l.66-.84a1.9,1.9,0,0,0-1.55.71c.19-1.62,1-2.5,2.28-2.66l-1.16-2.81a2.9,2.9,0,0,1-1.72-.25,1.35,1.35,0,0,0-1.19,1.52c-.52-.74-.27-1.4.76-2-1.48-.65-2.28-.2-2.39,1.35Q38,35,39.61,33.71c-1.87-1-2.73-.55-2.6,1.44q-1.95-5.22,3.39-4.69-4.35-10-.95-14,4.75-5.39,9.23-2.16c.4-.58,1.34-.92,2.81-1a2.35,2.35,0,0,0,1-1.59c.93,1.09.47,2.11-1.4,3.07,3.66,2.06,4-1.22,2.6-.56-.58-1.12,2.19-.07.66,1.41a2.43,2.43,0,0,1-1.59.19c.83,1.22,1.76,1.64,2.8,1.25a2.46,2.46,0,0,0,.82-2.23"/><path d="M21.93,160.09a1.83,1.83,0,0,0-.67-1.33,3.29,3.29,0,0,0-.67-.47l1.75.21v5.42a1.8,1.8,0,0,0-.23-.43,1,1,0,0,0-.77-.43H13a1.57,1.57,0,0,0-.69,1v-3.24a1.64,1.64,0,0,0,.66,1h8.07a1.93,1.93,0,0,0,.43-.46A2.31,2.31,0,0,0,21.93,160.09Zm-8.9,1.8,8.31,0-8.34,0Z"/><path d="M22.34,151a1.32,1.32,0,0,1-.48-.77l-3.31,1.29v2.76l3.16,1.05c.19,0,.35-.13.49-.38a2.22,2.22,0,0,0,.14-.38v2.92a1.57,1.57,0,0,0-.51-1,1.22,1.22,0,0,0-.41-.25l-9.08-3.43q8.49-3.48,9.16-3.83a1.55,1.55,0,0,0,.67-.69,2.07,2.07,0,0,0,.17-.44Zm-4.39.67-3.38,1.21,3.37,1.24Z"/><path d="M12.34,136.71a1.59,1.59,0,0,0,.22.4.94.94,0,0,0,.7.45h9.08l-7.54,7.27h6.62a.93.93,0,0,0,.7-.44,1.64,1.64,0,0,0,.22-.41v2.87a1.84,1.84,0,0,0-.22-.41,1,1,0,0,0-.7-.44H12.34L20,138.72H13.26a.94.94,0,0,0-.7.45,1.78,1.78,0,0,0-.22.4Z"/><path d="M12.34,126.39a1.64,1.64,0,0,0,.22.41,1,1,0,0,0,.7.44h9.08l-7.54,7.27h6.62a.94.94,0,0,0,.7-.45,1.59,1.59,0,0,0,.22-.4v2.86a1.59,1.59,0,0,0-.22-.4.94.94,0,0,0-.7-.45H12.34L20,128.41H13.26a1,1,0,0,0-.7.44,1.64,1.64,0,0,0-.22.41Z"/><path d="M21.42,123.43a1,1,0,0,0,.7-.44,1.84,1.84,0,0,0,.22-.41v2.86a1.78,1.78,0,0,0-.22-.4.94.94,0,0,0-.7-.45H13.26a.94.94,0,0,0-.7.45,1.78,1.78,0,0,0-.22.4v-2.86a1.84,1.84,0,0,0,.22.41,1,1,0,0,0,.7.44Z"/><path d="M19.86,122.28a1.68,1.68,0,0,0,1.46-.71,2.06,2.06,0,0,0,.38-1.22,2.26,2.26,0,0,0-.41-1.24,1.39,1.39,0,0,0-1.17-.72,2.33,2.33,0,0,0-1.4.58,13,13,0,0,0-1.38,1.4A11.27,11.27,0,0,1,16,121.74a2.4,2.4,0,0,1-1.47.56,1.94,1.94,0,0,1-1.49-.7,2.89,2.89,0,0,1-.66-2,4.89,4.89,0,0,1,.19-1.58.62.62,0,0,1,.19-.32l1.73.31a1.76,1.76,0,0,0-1,.35,1.44,1.44,0,0,0-.62,1.2,2.06,2.06,0,0,0,.33,1.26,1.1,1.1,0,0,0,.92.41c.65,0,1.44-.56,2.38-1.7a13.32,13.32,0,0,1,1.26-1.4,2.67,2.67,0,0,1,1.74-.74,2.55,2.55,0,0,1,2.23,1.27,3.81,3.81,0,0,1,.66,2.12,2.12,2.12,0,0,1-.36,1.23,1.47,1.47,0,0,1-.36.38A5.76,5.76,0,0,1,19.86,122.28Z"/><path d="M12.34,109l1.83.38a1.39,1.39,0,0,0-.55.16.93.93,0,0,0-.54.88v1.89h8.34a.93.93,0,0,0,.7-.44,1.64,1.64,0,0,0,.22-.41v2.87a1.84,1.84,0,0,0-.22-.41,1,1,0,0,0-.7-.44H13.08v1.89a.92.92,0,0,0,.54.88,1.24,1.24,0,0,0,.55.16l-1.83.38.18-.38v-7.05Z"/><path d="M12.52,102.9l-.18-.38,1.83.38a1.24,1.24,0,0,0-.55.16.92.92,0,0,0-.54.88v1.9h3.74v-2.09a1.62,1.62,0,0,0-.33-1l2,.25a1,1,0,0,0-.53.17,1.15,1.15,0,0,0-.53,1.07v1.6H21.1a2.13,2.13,0,0,0,.42-.46,2.21,2.21,0,0,0,.42-1.29,1.78,1.78,0,0,0-.66-1.31,3.46,3.46,0,0,0-.66-.46l1.72.2v5.33a1.46,1.46,0,0,0-.23-.42.92.92,0,0,0-.76-.43H13.2a1.53,1.53,0,0,0-.68,1Z"/><path d="M19.13,95.72A12.22,12.22,0,0,0,21,94.23a2.42,2.42,0,0,0,.92-2.09.67.67,0,0,1,.21.26,2.92,2.92,0,0,1,.21,1.26q0,.84-1.44,2a10.19,10.19,0,0,1-1.45,1,2.23,2.23,0,0,0-.68.64,3.44,3.44,0,0,0-.7,2.19h3.35a1,1,0,0,0,.71-.44,2,2,0,0,0,.21-.41v2.85a2,2,0,0,0-.21-.41,1,1,0,0,0-.71-.44h-8.1a1,1,0,0,0-.7.44,1.64,1.64,0,0,0-.22.41v-2a5.71,5.71,0,0,1,0-2.1,2.26,2.26,0,0,1,2.36-2.11,2.45,2.45,0,0,1,.89.14,4.62,4.62,0,0,1,2,1.38A8.44,8.44,0,0,1,19.13,95.72Zm-1.76,2.17a1.17,1.17,0,0,0-.26-.69,2,2,0,0,0-1.68-.68,2.84,2.84,0,0,0-2,.7,1.71,1.71,0,0,0-.61,1.28,4.52,4.52,0,0,0,0,.8c.07.14.27.22.63.22l3.91,0Z"/><path d="M42.28,158.09l2.06.14v5.42H44a2.75,2.75,0,0,0,0-.34,1.86,1.86,0,0,0-.06-.31.44.44,0,0,0-.19-.21.57.57,0,0,0-.31-.07h-5a.73.73,0,0,0-.3.06.4.4,0,0,0-.2.22,1.21,1.21,0,0,0-.11.31,2.06,2.06,0,0,0-.07.34h-.35v-2.93h.35a2,2,0,0,0,.05.36,1.66,1.66,0,0,0,.08.31.33.33,0,0,0,.2.23.73.73,0,0,0,.3.06H43a3.16,3.16,0,0,0,.5,0,.45.45,0,0,0,.28-.15.72.72,0,0,0,.11-.34,4.78,4.78,0,0,0,0-.62c0-.12,0-.24,0-.37s0-.26,0-.38a2.81,2.81,0,0,0-.08-.31.42.42,0,0,0-.13-.21,4.28,4.28,0,0,0-.68-.47,4.56,4.56,0,0,0-.74-.37Z"/><path d="M44.25,153c.06.15.1.28.14.4a1.6,1.6,0,0,1,0,.39.94.94,0,0,1-.18.61.82.82,0,0,1-.52.29v0a2.61,2.61,0,0,1,.54.68,2,2,0,0,1,.18.88,1.24,1.24,0,0,1-.33.89,1.15,1.15,0,0,1-.87.35,1.59,1.59,0,0,1-.5-.08,1.29,1.29,0,0,1-.39-.23,1,1,0,0,1-.26-.33,2.61,2.61,0,0,1-.19-.37l-.3-.89a6,6,0,0,0-.36-.91h-.48l-.24,0a1,1,0,0,0-.34.11,1.06,1.06,0,0,0-.32.28.82.82,0,0,0-.13.5,1.16,1.16,0,0,0,.07.42.66.66,0,0,0,.16.27,1.3,1.3,0,0,0,.29,0,1.55,1.55,0,0,1,.35,0,.42.42,0,0,1,.31.15.6.6,0,0,1,.14.43.4.4,0,0,1-.17.36.66.66,0,0,1-.39.11.72.72,0,0,1-.43-.15,1.66,1.66,0,0,1-.36-.42,2,2,0,0,1-.23-.53,1.9,1.9,0,0,1-.1-.61,3.69,3.69,0,0,1,.06-.71,1.23,1.23,0,0,1,.73-.94,2.19,2.19,0,0,1,.8-.13l1.23,0h1.18a.68.68,0,0,0,.31-.06.66.66,0,0,0,.19-.21.52.52,0,0,0,0-.23V153Zm-2.58,1.7.24.73a2.89,2.89,0,0,0,.3.58,1.45,1.45,0,0,0,.39.39,1,1,0,0,0,.54.14.78.78,0,0,0,.6-.21.79.79,0,0,0,.19-.54,1.09,1.09,0,0,0-.17-.61,1.58,1.58,0,0,0-.4-.45Z"/><path d="M43.84,148.17a1.48,1.48,0,0,1,.42-.3,1.28,1.28,0,0,1,.58-.12,1.41,1.41,0,0,1,.65.15,1.48,1.48,0,0,1,.54.46,2.54,2.54,0,0,1,.35.78,4.08,4.08,0,0,1,.13,1.13,3.3,3.3,0,0,1-.32,1.63,1,1,0,0,1-.94.55.9.9,0,0,1-.78-.4,1.71,1.71,0,0,1-.31-1h-.07c0,.1-.07.2-.11.3a1.38,1.38,0,0,1-.16.27,1.21,1.21,0,0,1-.24.21.71.71,0,0,1-.34.07.74.74,0,0,1-.48-.18,1.47,1.47,0,0,1-.37-.55h-.08a1.79,1.79,0,0,1-.56.72,1.26,1.26,0,0,1-.8.26,1.41,1.41,0,0,1-1.12-.51,1.93,1.93,0,0,1-.44-1.3,2.12,2.12,0,0,1,0-.44,3.6,3.6,0,0,1,.12-.44v-1.68H40v1.13h0a1.54,1.54,0,0,1,1-.36,1.37,1.37,0,0,1,1.07.52,1.8,1.8,0,0,1,.44,1.2v.59a.83.83,0,0,0,.14.23.35.35,0,0,0,.28.12.37.37,0,0,0,.28-.1.53.53,0,0,0,.12-.25,1,1,0,0,0,0-.33c0-.12,0-.25,0-.38s0-.34,0-.59,0-.43,0-.53a1.22,1.22,0,0,1,.1-.45A1.68,1.68,0,0,1,43.84,148.17ZM41,149.49a1.61,1.61,0,0,0-.91.23.75.75,0,0,0-.34.66.8.8,0,0,0,.09.39.75.75,0,0,0,.27.26,1,1,0,0,0,.39.14,2.42,2.42,0,0,0,.47,0,1.5,1.5,0,0,0,.88-.23.71.71,0,0,0,.34-.61.73.73,0,0,0-.34-.65A1.49,1.49,0,0,0,41,149.49Zm4-.94a.74.74,0,0,0-.44.13.63.63,0,0,0-.24.39,5.51,5.51,0,0,0-.05.56c0,.28,0,.61,0,1a1.31,1.31,0,0,0,.34.75.88.88,0,0,0,.62.23.73.73,0,0,0,.33-.08.75.75,0,0,0,.29-.25,1.8,1.8,0,0,0,.21-.46,2.81,2.81,0,0,0,.08-.7,2,2,0,0,0-.28-1.13A.93.93,0,0,0,45,148.55Z"/><path d="M44.25,142.45c.06.15.1.28.14.4a1.54,1.54,0,0,1,0,.39.94.94,0,0,1-.18.61.82.82,0,0,1-.52.29v0a2.61,2.61,0,0,1,.54.68,2,2,0,0,1,.18.88,1.24,1.24,0,0,1-.33.89,1.15,1.15,0,0,1-.87.35,1.59,1.59,0,0,1-.5-.08,1.29,1.29,0,0,1-.39-.23,1.09,1.09,0,0,1-.26-.33,3.28,3.28,0,0,1-.19-.37l-.3-.89a6,6,0,0,0-.36-.91h-.48l-.24,0a1,1,0,0,0-.34.11,1.06,1.06,0,0,0-.32.28.82.82,0,0,0-.13.5,1.16,1.16,0,0,0,.07.42.66.66,0,0,0,.16.27,1.3,1.3,0,0,0,.29,0,1.14,1.14,0,0,1,.35,0,.42.42,0,0,1,.31.15.59.59,0,0,1,.14.43.4.4,0,0,1-.17.36.66.66,0,0,1-.39.11.72.72,0,0,1-.43-.15,1.66,1.66,0,0,1-.36-.42,2,2,0,0,1-.23-.53,1.9,1.9,0,0,1-.1-.61,3.88,3.88,0,0,1,.06-.72,1.18,1.18,0,0,1,.24-.55,1.1,1.1,0,0,1,.49-.38,2.19,2.19,0,0,1,.8-.13l1.23,0h1.18a.68.68,0,0,0,.31-.06.78.78,0,0,0,.19-.21.56.56,0,0,0,0-.23v-.32Zm-2.58,1.7.24.73a2.89,2.89,0,0,0,.3.58,1.28,1.28,0,0,0,.39.38,1,1,0,0,0,.54.15.75.75,0,0,0,.6-.22.76.76,0,0,0,.19-.54,1.14,1.14,0,0,0-.17-.61,1.68,1.68,0,0,0-.4-.44Z"/><path d="M39.82,137a1.26,1.26,0,0,0,.16.42,1,1,0,0,0,.43.34l1.36.59,1.49.64c.15.07.33.14.53.21l.59.2v.39l-2.09.85-1.93.81a.73.73,0,0,0-.35.32,1.08,1.08,0,0,0-.16.43h-.32V140h.34a1.48,1.48,0,0,0,.06.37c0,.15.09.22.15.22l.08,0a.46.46,0,0,1,.14-.05l1.39-.57,1.44-.59-1.05-.44-1.39-.58-.25-.09a.59.59,0,0,0-.23,0,.17.17,0,0,0-.15.08.68.68,0,0,0-.11.19,1,1,0,0,0-.08.22c0,.07,0,.13,0,.17h-.31V137Z"/><path d="M44.25,131.44l.11,1.57-.07.08h-.61v0l.26.26a1.59,1.59,0,0,1,.25.33,1.83,1.83,0,0,1,.2.43,1.79,1.79,0,0,1,.07.58,1.19,1.19,0,0,1-.41,1,2,2,0,0,1-1.22.34h-2.3a.62.62,0,0,0-.29.06.66.66,0,0,0-.21.2.56.56,0,0,0-.09.22,2.4,2.4,0,0,0,0,.28h-.33l-.11-1.61.07-.07h3.34a1.15,1.15,0,0,0,.79-.24.73.73,0,0,0,.26-.56,1.42,1.42,0,0,0-.08-.48,1.46,1.46,0,0,0-.2-.35,2.4,2.4,0,0,0-.21-.23.86.86,0,0,0-.22-.15H40.5a.65.65,0,0,0-.29.06.76.76,0,0,0-.21.19.59.59,0,0,0-.07.27c0,.11,0,.24,0,.38h-.33l-.11-1.75.07-.07h3.82a.51.51,0,0,0,.28-.07.72.72,0,0,0,.2-.19.65.65,0,0,0,.07-.21,2.13,2.13,0,0,0,0-.27Z"/><path d="M44.34,128.39v2.35H44a1.66,1.66,0,0,1,0-.24,1.12,1.12,0,0,0,0-.21.35.35,0,0,0-.15-.2.52.52,0,0,0-.29-.07H37.94a.88.88,0,0,0-.33.07.8.8,0,0,0-.24.2,1,1,0,0,0-.11.33c0,.15,0,.28-.06.37h-.31l-.11-1.81.08-.07h6.6a.55.55,0,0,0,.28-.06.37.37,0,0,0,.17-.21.86.86,0,0,0,.07-.21,1.5,1.5,0,0,0,0-.24Z"/><path d="M37.57,125.86a.71.71,0,0,1,.48.19.57.57,0,0,1,.21.45.53.53,0,0,1-.2.43.64.64,0,0,1-.45.18.69.69,0,0,1-.47-.18.57.57,0,0,1-.2-.43.63.63,0,0,1,.63-.64Zm6.77-.61v2.33H44c0-.08,0-.15,0-.23a1.12,1.12,0,0,0,0-.21.35.35,0,0,0-.15-.2.52.52,0,0,0-.29-.07h-3a.53.53,0,0,0-.28.07.6.6,0,0,0-.22.2.9.9,0,0,0-.1.27,1.25,1.25,0,0,0-.05.32h-.32l-.11-1.7.07-.07h3.92a.55.55,0,0,0,.28-.06.44.44,0,0,0,.17-.21,1.72,1.72,0,0,0,.07-.21,1.37,1.37,0,0,0,0-.23Z"/><path d="M44.34,119.14v2.36H44c0-.08,0-.16,0-.25a1.09,1.09,0,0,0,0-.22.41.41,0,0,0-.15-.21.62.62,0,0,0-.29-.06H41a1.18,1.18,0,0,0-.79.24.76.76,0,0,0-.27.59,1.19,1.19,0,0,0,.08.47,1.77,1.77,0,0,0,.19.39,1.44,1.44,0,0,0,.24.25l.21.14h2.77a.45.45,0,0,0,.27-.07.38.38,0,0,0,.17-.2.81.81,0,0,0,.07-.22,1.87,1.87,0,0,0,0-.25h.32v2.36H44c0-.08,0-.15,0-.23a1.12,1.12,0,0,0,0-.21.35.35,0,0,0-.15-.2.52.52,0,0,0-.29-.07h-3a.6.6,0,0,0-.3.07.56.56,0,0,0-.23.2.63.63,0,0,0-.09.22,2.23,2.23,0,0,0,0,.27h-.32l-.11-1.6.07-.07h.67v0l-.28-.29a3.44,3.44,0,0,1-.26-.34,1.56,1.56,0,0,1-.2-.43,1.89,1.89,0,0,1-.08-.56,1.23,1.23,0,0,1,.44-1,1.83,1.83,0,0,1,1.15-.33h2.5a.55.55,0,0,0,.28-.06.37.37,0,0,0,.16-.2,1.21,1.21,0,0,0,.07-.2q0-.09,0-.24Z"/><path d="M29.87,92.14c.44,6,.67,12,.82,18s.22,12,.24,18-.06,12-.23,18-.39,12-.83,18c-.45-6-.68-12-.83-18s-.22-12-.24-18,.07-12,.24-18S29.43,98.14,29.87,92.14Z"/></svg>