<svg id="Ebene_2" data-name="Ebene 2" xmlns="http://www.w3.org/2000/svg" viewBox="0 0 56.69 170.08"><path d="M25.85,14.7a3,3,0,0,1,.54-1.91c.61-.73,2.61-.72,3-.72a12.35,12.35,0,0,1,5.51,1.43c-1.25.25-2.72.52-2.78.74s.47.52,1,.46c.79.13-1.61.94-2,1.16a.72.72,0,0,0,.38,1.31c.9.09,5.24.2,5.4-.56s-1.08-.2-1.13-1,1.35-1.44,2.43-2.23A41.32,41.32,0,0,0,45,8.53a44.38,44.38,0,0,0,5.22-5.7,15.91,15.91,0,0,1-.9,4c-.43.76-2.07,3.22-2,3.48s4.06-2.24,4.94-2.87,4.07-4,4.38-4-.38,4-3.32,6.58c-1.76,1.52-5.76,3.76-5.65,4s2.82-.94,3.11-1.15,3-2.11,3.23-2-1.25,3-3.57,4.52c-1.28.85-4.83,2.62-4.77,2.83s3.6-1,3.82-1.22c.59.12-.44,1.53-1.17,2.19a10.24,10.24,0,0,1-2.67,1.63c-.58.19-1.35.21-1.39.39s1.19.15,1.37.22c.31.43-.09,1.12-.66,1.66s-3,1.11-3,1.24,1.11.18,1.29.12c.29.17-.81,1-1.54,1.39s-2.8.59-2.85.72.72.34,1,.27.09.9-.31,1.14a17.51,17.51,0,0,1-2.86.16c-.14.05.23.29.23.48s-.63.45-1.15.42-1.17-1-1.48-1.78-.54-1.36-1.17-1.37a1.94,1.94,0,0,0-1.56,2.18c0,1.4,1.49,2,1.92,2.46s1.72,1.61,1.72,2.94c0,.92-.24,1.66-.47,1.69s-.4-.3-.69-.3c-.56,0-.2,1.62.34,2.17a6,6,0,0,0,2.18,1.55c.76.22,3.25-.28,4.06.45a2.12,2.12,0,0,1,.34,1.79c-.07.2-1-.2-1.17,0s.12,1.8-.2,2-1.53-2-1.82-1.73.52,2.27.31,2.45-1.44-2.41-1.73-2.36-.7,1.94-.88,2-1.1-.59-1.12-1.33,1.22-1.24,1.19-1.51a4.69,4.69,0,0,0-1.8-1.79,10.67,10.67,0,0,0-2.07-1.13,2.76,2.76,0,0,0-1.5,1.84c-.31,1.09-.7,2.46-1.49,2.48s-2-1.29-2.36-2-.13-2.95-.6-2.88a10.17,10.17,0,0,0-2.41,1.64c-.34.32-1.91,1.24-1.91,1.58s.77,1.19.85,1.95-.22,1-.36,1-1-1.67-1.36-1.67-1.08,1.39-1.08,1.69.51.85.49,1c-.09.28-1,0-1.31-.53A1.8,1.8,0,0,1,18.73,42c.13-.11.7-.61.63-.77s-1,.16-1.15.45-.18,1.29-.29,1.44-1-.56-1-1a2.69,2.69,0,0,1,.69-1.33c.2-.18,1.15-.67,1-.77A6.34,6.34,0,0,0,16.5,41c-.29.25-.61-.45-.58-1a1.63,1.63,0,0,1,.38-1,2.13,2.13,0,0,1,1.15-.38,13.28,13.28,0,0,0,1.59.22,5.1,5.1,0,0,0,2.27-.63A6.2,6.2,0,0,0,23.07,36c.11-.52.33-.92.13-1.08s-1.73.65-2.06.41-.07-1.67.15-2.32,1.3-1.46,2-2,1.82-1,1.8-2.77-.56-2.34-1.23-2.34-1.29.88-1.38,1.31-.4,1.84-1.26,1.88-1.3-.76-2.49-.92-1.93-.06-1.93-.25.65-.6.65-.92-1.16-1.27-1.8-1.53a17.68,17.68,0,0,1-2-.8c-.05-.12,1.06-.12,1.16-.24S13.58,24,13,23.85a6.7,6.7,0,0,1-2.16-2.28c0-.27,1.8.24,2,.38s.79.1.89-.24-3-.58-4.57-1.75S7,17.29,7.1,17s1.32.39,1.8.6,1.82.6,2.06.34-1.73-.72-2.45-1.2a18.24,18.24,0,0,1-3.17-2.19c-.93-1-3.07-3.89-2.9-4.27s2.33,1.66,3,2.09,3.84,1.94,4.2,1.75-2.07-1.34-3.53-2.28A19.35,19.35,0,0,1,2.63,9.2,27,27,0,0,1,.3,5C.18,4.52-.16,3.31.08,3.24S2,5.55,2.41,6s2,1.42,2.33,1.73a15.67,15.67,0,0,0,1.64.82c.4.24,1.77,1.6,2,1.39a16.37,16.37,0,0,0-.77-3.75,12.5,12.5,0,0,1-.79-2.83c.11-.22.69.53,1.15,1s5.38,5.66,5.59,5.74a24.67,24.67,0,0,1,4.32,2.57,9.64,9.64,0,0,1,2.45,3.62,5.66,5.66,0,0,0,3,1c.79,0,1.68,0,2.06-.6A4.31,4.31,0,0,0,26,15.25,2,2,0,0,0,25.85,14.7Z"/><path d="M12.34,154a1.59,1.59,0,0,0,.22.4.94.94,0,0,0,.7.45h9.08l-7.54,7.27h6.62a.93.93,0,0,0,.7-.44,1.64,1.64,0,0,0,.22-.41v2.87a1.59,1.59,0,0,0-.22-.4.94.94,0,0,0-.7-.45H12.34L20,156H13.26a.93.93,0,0,0-.7.44,1.64,1.64,0,0,0-.22.41Z"/><path d="M21.42,151a1,1,0,0,0,.7-.44,1.84,1.84,0,0,0,.22-.41V153a1.59,1.59,0,0,0-.22-.4.94.94,0,0,0-.7-.45H13.26a.94.94,0,0,0-.7.45,1.59,1.59,0,0,0-.22.4v-2.86a1.84,1.84,0,0,0,.22.41,1,1,0,0,0,.7.44Z"/><path d="M18.19,142.7a.29.29,0,0,0-.25.07,1.67,1.67,0,0,0-.48.94v-3.2a1.63,1.63,0,0,0,.48.94.26.26,0,0,0,.25.07h3.46a2.61,2.61,0,0,1,.34.71,7,7,0,0,1,.35,2.34,6,6,0,0,1-1.19,3.93,4.84,4.84,0,0,1-4,1.67,4.61,4.61,0,0,1-2.4-.57q-2.4-1.26-2.4-4.71a22.28,22.28,0,0,1,.42-3.47l2.21.33a2.62,2.62,0,0,0-1.09.53,3,3,0,0,0-1.1,2.5,4.24,4.24,0,0,0,1.16,3.14,4.38,4.38,0,0,0,3.22,1.16,4.23,4.23,0,0,0,3.33-1.59,4.87,4.87,0,0,0,1.26-3.25,2.08,2.08,0,0,0-.46-1.54Z"/><path d="M21.42,131.85a1,1,0,0,0,.7-.44,1.84,1.84,0,0,0,.22-.41v2.87a1.64,1.64,0,0,0-.22-.41.93.93,0,0,0-.7-.44H17.2v5.5h4.22a1,1,0,0,0,.7-.44,1.84,1.84,0,0,0,.22-.41v2.86a1.59,1.59,0,0,0-.22-.4.94.94,0,0,0-.7-.45H13.26a.94.94,0,0,0-.7.45,1.59,1.59,0,0,0-.22.4v-2.86a1.84,1.84,0,0,0,.22.41,1,1,0,0,0,.7.44h3.25V133H13.26a.93.93,0,0,0-.7.44,1.64,1.64,0,0,0-.22.41V131a1.84,1.84,0,0,0,.22.41,1,1,0,0,0,.7.44Z"/><path d="M12.34,122.26l1.83.38a1.24,1.24,0,0,0-.55.16.92.92,0,0,0-.54.88v1.89h8.34a1,1,0,0,0,.7-.44,1.64,1.64,0,0,0,.22-.41v2.87a1.64,1.64,0,0,0-.22-.41,1,1,0,0,0-.7-.45H13.08v1.88a.94.94,0,0,0,.54.89,1.58,1.58,0,0,0,.55.16l-1.83.37.18-.37v-7Z"/><path d="M19.85,121.67a1.69,1.69,0,0,0,1.47-.71,2.06,2.06,0,0,0,.38-1.22,2.26,2.26,0,0,0-.41-1.24,1.39,1.39,0,0,0-1.17-.72,2.33,2.33,0,0,0-1.4.58,13,13,0,0,0-1.38,1.4A11.27,11.27,0,0,1,16,121.13a2.38,2.38,0,0,1-1.47.55A1.93,1.93,0,0,1,13,121a2.89,2.89,0,0,1-.66-2,4.89,4.89,0,0,1,.19-1.58.62.62,0,0,1,.19-.32l1.73.31a1.76,1.76,0,0,0-1,.35,1.44,1.44,0,0,0-.62,1.2,2.06,2.06,0,0,0,.33,1.26,1.1,1.1,0,0,0,.92.41c.65,0,1.44-.57,2.38-1.7a13.32,13.32,0,0,1,1.26-1.4,2.67,2.67,0,0,1,1.74-.74,2.55,2.55,0,0,1,2.23,1.27,3.81,3.81,0,0,1,.66,2.12,2.12,2.12,0,0,1-.36,1.23,1.47,1.47,0,0,1-.36.38A5.84,5.84,0,0,1,19.85,121.67Z"/><path d="M20,104,13.26,101a.94.94,0,0,0-.7.45,1.84,1.84,0,0,0-.22.41V99a1,1,0,0,0,.17.34,1.06,1.06,0,0,0,.7.43l9.13,4.15h-.09l.09,0L17,106.45l5.36,2.48-.09,0h.09l-9.13,4.16a1,1,0,0,0-.7.42,1,1,0,0,0-.17.34V111a1.84,1.84,0,0,0,.22.41.94.94,0,0,0,.7.45L20,108.93l-4.34-1.88-1.5-.6,1.5-.61Z"/><path d="M22.34,96.31a1.32,1.32,0,0,1-.48-.77l-3.31,1.29v2.76l3.16,1c.19,0,.35-.13.49-.39a1.74,1.74,0,0,0,.14-.38v2.93a1.57,1.57,0,0,0-.51-1,1.22,1.22,0,0,0-.41-.25l-9.08-3.43q8.49-3.48,9.16-3.83a1.65,1.65,0,0,0,.67-.69,2.07,2.07,0,0,0,.17-.44ZM18,97l-3.38,1.2,3.37,1.25Z"/><path d="M12.34,86.84l1.83.37a1.58,1.58,0,0,0-.55.16.94.94,0,0,0-.54.89v1.89h8.34a.94.94,0,0,0,.7-.45,1.59,1.59,0,0,0,.22-.4v2.86a1.84,1.84,0,0,0-.22-.41,1,1,0,0,0-.7-.44H13.08v1.89a.94.94,0,0,0,.54.89,1.37,1.37,0,0,0,.55.15l-1.83.38.18-.38V87.21Z"/><path d="M21.56,78.43a2.92,2.92,0,0,1,.39.76,6.79,6.79,0,0,1,.39,2.4v.32a5.88,5.88,0,0,1-1.28,3.72,4.91,4.91,0,0,1-3.92,1.56,4.61,4.61,0,0,1-2.4-.57q-2.4-1.28-2.4-4.71a22.48,22.48,0,0,1,.42-3.48l2.21.34a2.4,2.4,0,0,0-1.09.53,3,3,0,0,0-1.1,2.5,4.21,4.21,0,0,0,1.16,3.13,4.34,4.34,0,0,0,3.22,1.16,4.23,4.23,0,0,0,3.33-1.59,4.87,4.87,0,0,0,1.26-3.25,2.93,2.93,0,0,0-.24-.85,4.33,4.33,0,0,0-1.44-1.71Z"/><path d="M21.42,69.5a.93.93,0,0,0,.7-.44,1.64,1.64,0,0,0,.22-.41v2.87a1.84,1.84,0,0,0-.22-.41,1,1,0,0,0-.7-.44H17.2v5.5h4.22a1,1,0,0,0,.7-.44,1.84,1.84,0,0,0,.22-.41v2.87a1.64,1.64,0,0,0-.22-.41.93.93,0,0,0-.7-.44H13.26a.93.93,0,0,0-.7.44,1.64,1.64,0,0,0-.22.41V75.32a1.84,1.84,0,0,0,.22.41,1,1,0,0,0,.7.44h3.25v-5.5H13.26a1,1,0,0,0-.7.44,1.84,1.84,0,0,0-.22.41V68.65a1.64,1.64,0,0,0,.22.41.93.93,0,0,0,.7.44Z"/><path d="M38.23,158.05a3.67,3.67,0,0,1,1.16-.72,4.2,4.2,0,0,1,1.49-.26,4,4,0,0,1,1.5.27,3.33,3.33,0,0,1,1.15.73,3.11,3.11,0,0,1,.72,1.06,3.21,3.21,0,0,1,.26,1.27,3.12,3.12,0,0,1-.28,1.34,3.06,3.06,0,0,1-.75,1,3.16,3.16,0,0,1-1.15.69,4.05,4.05,0,0,1-1.45.25,3.93,3.93,0,0,1-1.5-.26,3.42,3.42,0,0,1-1.15-.73,3.1,3.1,0,0,1-.73-1.06,3.26,3.26,0,0,1,.73-3.63Zm4.91.73a3.18,3.18,0,0,0-1-.4,6.67,6.67,0,0,0-2.57,0,3.44,3.44,0,0,0-1,.41,2,2,0,0,0-.65.68,1.87,1.87,0,0,0-.23.92,1.76,1.76,0,0,0,.27,1,2.11,2.11,0,0,0,.72.67,3.46,3.46,0,0,0,1,.36,6,6,0,0,0,1.21.12,6.16,6.16,0,0,0,1.27-.12,3.39,3.39,0,0,0,1-.4,2,2,0,0,0,.67-.67,1.82,1.82,0,0,0,.24-1,1.81,1.81,0,0,0-.93-1.62Z"/><path d="M41.93,151.24a2.56,2.56,0,0,1,1.82.69,2.09,2.09,0,0,1,.74,1.58,2.28,2.28,0,0,1-.13.78A3.35,3.35,0,0,1,44,155l.56.37-.07.3-.87,0H37.91a.8.8,0,0,0-.33.08.52.52,0,0,0-.24.19.8.8,0,0,0-.1.31c0,.15,0,.26,0,.35h-.31l-.11-1.77.07-.06H40v0a2,2,0,0,1-.49-.66,1.83,1.83,0,0,1-.16-.71,1.87,1.87,0,0,1,.71-1.48A2.73,2.73,0,0,1,41.93,151.24Zm0,1a3.89,3.89,0,0,0-.74.08,2.1,2.1,0,0,0-.65.25,1.35,1.35,0,0,0-.46.43,1.15,1.15,0,0,0-.17.65,1.25,1.25,0,0,0,.13.59,1.79,1.79,0,0,0,.36.47h2.81a1.18,1.18,0,0,0,.27-.12,1.5,1.5,0,0,0,.3-.23,1.46,1.46,0,0,0,.22-.33,1.08,1.08,0,0,0,.09-.46,1.13,1.13,0,0,0-.58-1A3,3,0,0,0,42,152.26Z"/><path d="M44.25,145.77c.06.15.1.29.14.4a1.62,1.62,0,0,1,0,.4.93.93,0,0,1-.18.6.77.77,0,0,1-.52.29v0a2.78,2.78,0,0,1,.54.68,2,2,0,0,1,.18.88,1.24,1.24,0,0,1-.33.89,1.12,1.12,0,0,1-.87.35,1.35,1.35,0,0,1-.5-.08,1.18,1.18,0,0,1-.39-.23,1,1,0,0,1-.26-.32,3.36,3.36,0,0,1-.19-.38c-.05-.15-.16-.44-.3-.89a6,6,0,0,0-.36-.91h-.48l-.24,0a1.12,1.12,0,0,0-.35.12.88.88,0,0,0-.31.27.84.84,0,0,0-.13.51,1.16,1.16,0,0,0,.07.42.83.83,0,0,0,.16.27,1.45,1.45,0,0,0,.29,0,1.48,1.48,0,0,1,.35-.05.4.4,0,0,1,.31.16.56.56,0,0,1,.14.42.38.38,0,0,1-.17.36.67.67,0,0,1-.39.12.74.74,0,0,1-.43-.16,1.61,1.61,0,0,1-.36-.41,2.73,2.73,0,0,1-.24-.54,2.15,2.15,0,0,1-.09-.61,3.69,3.69,0,0,1,.06-.71,1.17,1.17,0,0,1,.24-.56,1.09,1.09,0,0,1,.49-.37,2,2,0,0,1,.8-.13h1.23l1.18,0a.68.68,0,0,0,.31-.07.61.61,0,0,0,.19-.2.49.49,0,0,0,0-.24c0-.1,0-.21,0-.32Zm-2.58,1.7.24.73a2.89,2.89,0,0,0,.3.58,1.32,1.32,0,0,0,.39.39,1,1,0,0,0,.54.14.78.78,0,0,0,.6-.21.76.76,0,0,0,.19-.54,1.12,1.12,0,0,0-.17-.61,1.58,1.58,0,0,0-.4-.45Z"/><path d="M44.34,139.78v2.35H44c0-.08,0-.16,0-.25a1.09,1.09,0,0,0,0-.22.32.32,0,0,0-.16-.2.47.47,0,0,0-.28-.07H41a1.18,1.18,0,0,0-.79.24.79.79,0,0,0-.28.59,1.46,1.46,0,0,0,.08.48,2.69,2.69,0,0,0,.2.38,1.54,1.54,0,0,0,.24.26l.21.14h2.77a.54.54,0,0,0,.27-.07.44.44,0,0,0,.17-.21A.81.81,0,0,0,44,143a1.87,1.87,0,0,0,0-.25h.32v2.36H44c0-.07,0-.15,0-.23a1.12,1.12,0,0,0,0-.21.38.38,0,0,0-.15-.2.62.62,0,0,0-.29-.07h-3a.61.61,0,0,0-.3.08.54.54,0,0,0-.23.19.73.73,0,0,0-.09.22,2.4,2.4,0,0,0,0,.28h-.33l-.1-1.6.07-.07h.67v0l-.28-.29a3.08,3.08,0,0,1-.26-.33,1.71,1.71,0,0,1-.2-.43,2,2,0,0,1-.08-.56,1.21,1.21,0,0,1,.44-1,1.83,1.83,0,0,1,1.15-.34h2.5a.7.7,0,0,0,.28-.05.39.39,0,0,0,.16-.21A1,1,0,0,0,44,140s0-.13,0-.23Z"/><path d="M41.11,131.33a1.73,1.73,0,0,1,.54-.5,1.57,1.57,0,0,1,.81-.2,1.64,1.64,0,0,1,.84.21,1.79,1.79,0,0,1,.58.55,2.4,2.4,0,0,1,.34.74,3,3,0,0,1,.12.85v3.28H44a3.26,3.26,0,0,0,0-.34,1.19,1.19,0,0,0-.07-.32.46.46,0,0,0-.19-.22.6.6,0,0,0-.29-.06h-5a.94.94,0,0,0-.3.05.46.46,0,0,0-.2.23,1,1,0,0,0-.11.32,1.32,1.32,0,0,0-.05.31h-.35V133a4,4,0,0,1,.07-.71,2.27,2.27,0,0,1,.26-.65,1.41,1.41,0,0,1,.47-.47,1.23,1.23,0,0,1,.71-.19,1.51,1.51,0,0,1,.65.13,1.38,1.38,0,0,1,.49.37,2.3,2.3,0,0,1,.33.52,2.91,2.91,0,0,1,.21.63h0a5.57,5.57,0,0,1,.15-.67A2.7,2.7,0,0,1,41.11,131.33Zm-1,1.18a1.3,1.3,0,0,0-.46-.25,2.6,2.6,0,0,0-.6-.07,1.25,1.25,0,0,0-.89.31,1.31,1.31,0,0,0-.33,1c0,.1,0,.23,0,.39s0,.29,0,.4h2.67v-.62a2.29,2.29,0,0,0-.1-.69A1.17,1.17,0,0,0,40.07,132.51Zm2.21-.67a1.31,1.31,0,0,0-1,.41,1.65,1.65,0,0,0-.4,1.18c0,.21,0,.38,0,.53s0,.25,0,.32h2.44a.54.54,0,0,0,.47-.25,1.36,1.36,0,0,0,.15-.69,1.45,1.45,0,0,0-.42-1.12A1.78,1.78,0,0,0,42.28,131.84Z"/><path d="M44.25,125.07c.06.16.1.29.14.41a1.48,1.48,0,0,1,0,.39,1,1,0,0,1-.18.61.82.82,0,0,1-.52.29v0a2.61,2.61,0,0,1,.54.68,1.93,1.93,0,0,1,.18.87,1.26,1.26,0,0,1-.33.9,1.15,1.15,0,0,1-.87.34,1.59,1.59,0,0,1-.5-.07,1.21,1.21,0,0,1-.39-.24,1,1,0,0,1-.26-.32,2.69,2.69,0,0,1-.19-.38c-.05-.14-.16-.44-.3-.89a5.73,5.73,0,0,0-.36-.9h-.48l-.24,0a1.12,1.12,0,0,0-.35.12,1,1,0,0,0-.31.27.84.84,0,0,0-.13.51,1.16,1.16,0,0,0,.07.42.66.66,0,0,0,.16.27,1.45,1.45,0,0,0,.29-.05,1.45,1.45,0,0,1,.35,0,.42.42,0,0,1,.31.15.57.57,0,0,1,.14.43.4.4,0,0,1-.17.36.74.74,0,0,1-.39.11.68.68,0,0,1-.43-.16,1.45,1.45,0,0,1-.36-.41,2.91,2.91,0,0,1-.24-.53,2.25,2.25,0,0,1-.09-.61,3.73,3.73,0,0,1,.06-.72,1.14,1.14,0,0,1,.24-.55,1.1,1.1,0,0,1,.49-.38,2,2,0,0,1,.8-.13h1.23l1.18,0a.57.57,0,0,0,.31-.07.61.61,0,0,0,.19-.2.47.47,0,0,0,0-.23c0-.11,0-.22,0-.33Zm-2.58,1.71.24.72a3,3,0,0,0,.3.59,1.28,1.28,0,0,0,.39.38,1,1,0,0,0,.54.14.78.78,0,0,0,.6-.21.76.76,0,0,0,.19-.54,1.14,1.14,0,0,0-.17-.61,1.68,1.68,0,0,0-.4-.44Z"/><path d="M45.91,124.76a.6.6,0,0,1-.4-.13.43.43,0,0,1-.15-.34.6.6,0,0,1,.06-.27,1,1,0,0,1,.15-.2.86.86,0,0,1,.2-.15,1.35,1.35,0,0,1,.21-.13,2,2,0,0,0-.69-.59,5.93,5.93,0,0,0-1-.49l-2.07.84-1.88.79a.66.66,0,0,0-.35.31,1.12,1.12,0,0,0-.16.44h-.32v-2.2h.34a1.22,1.22,0,0,0,.06.35c0,.14.08.21.13.21l.1,0,.14-.06,1.39-.56,1.46-.59-1.08-.46L40.75,121l-.26-.1a.83.83,0,0,0-.28-.06c-.09,0-.16.08-.24.22a1.24,1.24,0,0,0-.13.43h-.31v-1.79h.3a1.17,1.17,0,0,0,.17.38.88.88,0,0,0,.4.36c.9.39,1.72.73,2.46,1s1.28.53,1.63.69a8.52,8.52,0,0,1,1.07.55,3.58,3.58,0,0,1,.6.47,1.42,1.42,0,0,1,.28.41,1.22,1.22,0,0,1,.07.38.89.89,0,0,1-.18.59A.52.52,0,0,1,45.91,124.76Z"/><path d="M44.34,109.79v1.86c-.65.42-1.21.79-1.68,1.12s-1,.7-1.46,1.09v.71h2.2a.73.73,0,0,0,.3-.06.39.39,0,0,0,.2-.23A1.92,1.92,0,0,0,44,114a2.87,2.87,0,0,0,0-.38h.35v2.93H44a2.92,2.92,0,0,0,0-.34,2.11,2.11,0,0,0-.06-.31.55.55,0,0,0-.19-.21.71.71,0,0,0-.31-.06h-5a.67.67,0,0,0-.3,0,.32.32,0,0,0-.2.22c0,.09-.06.19-.09.32a2.43,2.43,0,0,0,0,.33h-.35v-3.19a3.64,3.64,0,0,1,.09-.83,2.3,2.3,0,0,1,.29-.7,1.47,1.47,0,0,1,.51-.48,1.53,1.53,0,0,1,.76-.18,2,2,0,0,1,.71.12,1.47,1.47,0,0,1,.53.36,2.37,2.37,0,0,1,.37.53,3.85,3.85,0,0,1,.26.68c.45-.34.83-.63,1.14-.85l1.13-.84a2.13,2.13,0,0,0,.43-.39,1.85,1.85,0,0,0,.23-.34,1.12,1.12,0,0,0,.09-.32,1.31,1.31,0,0,0,0-.31Zm-5.16,2.56a1.28,1.28,0,0,0-1.37,1.39v.83h3v-.64a1.51,1.51,0,0,0-1.6-1.58Z"/><path d="M43.21,105.17a2.49,2.49,0,0,1,.92.81,2.1,2.1,0,0,1,.34,1.16,2.32,2.32,0,0,1-.21,1,2,2,0,0,1-.55.72,2.57,2.57,0,0,1-.82.43,3.66,3.66,0,0,1-1,.13,3.21,3.21,0,0,1-.92-.14,2.65,2.65,0,0,1-.81-.44,2.21,2.21,0,0,1-.56-.69,2.05,2.05,0,0,1-.21-.93,2.23,2.23,0,0,1,.16-.9,1.7,1.7,0,0,1,.46-.61,2,2,0,0,1,.64-.34,3,3,0,0,1,.81-.11h.32v3.19a3.72,3.72,0,0,0,.86-.09,2,2,0,0,0,.68-.28,1.44,1.44,0,0,0,.45-.5,1.54,1.54,0,0,0,.16-.73,1.32,1.32,0,0,0-.2-.75,1.93,1.93,0,0,0-.73-.61Zm-1.84,1.08a4,4,0,0,0-.58,0,1.69,1.69,0,0,0-.52.15,1.12,1.12,0,0,0-.37.31.87.87,0,0,0-.14.5,1,1,0,0,0,.43.85,2,2,0,0,0,1.18.37Z"/><path d="M42,101.23a1.39,1.39,0,0,1,.41-.31,1.49,1.49,0,0,1,1.65.4,1.88,1.88,0,0,1,.43,1.29,2,2,0,0,1-.15.78,2.32,2.32,0,0,1-.28.5l.31.1v.37l-1.67,0v-.34a1.83,1.83,0,0,0,.45-.17,2.06,2.06,0,0,0,.46-.31,1.62,1.62,0,0,0,.36-.45,1.21,1.21,0,0,0,.15-.6,1.1,1.1,0,0,0-.22-.72.74.74,0,0,0-.61-.26.75.75,0,0,0-.35.08.85.85,0,0,0-.26.24,1.66,1.66,0,0,0-.21.4c-.06.15-.12.33-.18.52a4,4,0,0,1-.18.51,2.17,2.17,0,0,1-.28.48,1.57,1.57,0,0,1-.42.35,1.25,1.25,0,0,1-.59.14,1.33,1.33,0,0,1-1-.44,1.68,1.68,0,0,1-.41-1.18,2.36,2.36,0,0,1,.07-.58,2.2,2.2,0,0,1,.18-.48l-.26-.11v-.35l1.55-.07v.33a1.59,1.59,0,0,0-.84.44,1.16,1.16,0,0,0-.33.83.93.93,0,0,0,.2.63.62.62,0,0,0,.49.23.74.74,0,0,0,.36-.07.61.61,0,0,0,.25-.23,1.81,1.81,0,0,0,.19-.37c0-.15.12-.33.19-.55a5.53,5.53,0,0,1,.24-.61A2.11,2.11,0,0,1,42,101.23Z"/><path d="M43.21,95.61a2.49,2.49,0,0,1,.92.81,2.11,2.11,0,0,1,.34,1.17,2.32,2.32,0,0,1-.21,1,2,2,0,0,1-.55.72,2.36,2.36,0,0,1-.82.42,3.66,3.66,0,0,1-1,.14,2.91,2.91,0,0,1-.92-.15,2.45,2.45,0,0,1-.81-.44,2,2,0,0,1-.56-.69,2,2,0,0,1-.21-.92,2.28,2.28,0,0,1,.16-.91,1.67,1.67,0,0,1,1.1-.94,3,3,0,0,1,.81-.11h.32v3.19a3.72,3.72,0,0,0,.86-.09,2,2,0,0,0,.68-.29,1.36,1.36,0,0,0,.45-.5,1.51,1.51,0,0,0,.16-.73,1.32,1.32,0,0,0-.2-.75A2,2,0,0,0,43,96Zm-1.84,1.08a4.13,4.13,0,0,0-.58,0,1.69,1.69,0,0,0-.52.15,1,1,0,0,0-.37.3.88.88,0,0,0-.14.51,1,1,0,0,0,.43.85,2,2,0,0,0,1.18.37Z"/><path d="M40.15,91.17a.83.83,0,0,1,.44.12.41.41,0,0,1,.19.38.56.56,0,0,1-.14.41.43.43,0,0,1-.31.15l-.2,0-.17,0a1.14,1.14,0,0,0,.18.54,1.55,1.55,0,0,0,.53.52h2.8a.47.47,0,0,0,.28-.07.41.41,0,0,0,.16-.2,1.27,1.27,0,0,0,.07-.32c0-.13,0-.24,0-.33h.32v2.54H44c0-.08,0-.16,0-.24a.88.88,0,0,0,0-.2.41.41,0,0,0-.15-.21.62.62,0,0,0-.29-.06h-3a.66.66,0,0,0-.3.07.59.59,0,0,0-.32.42,2,2,0,0,0,0,.27h-.33l-.1-1.6.07-.07h.67v0a2.22,2.22,0,0,1-.6-.67,1.49,1.49,0,0,1-.2-.68.65.65,0,0,1,.2-.5A.73.73,0,0,1,40.15,91.17Z"/><path d="M39.82,85.8a1.26,1.26,0,0,0,.16.42,1,1,0,0,0,.42.34l1.37.6,1.49.64.53.2.59.21v.38l-2.09.85-1.93.81a.73.73,0,0,0-.35.32,1.08,1.08,0,0,0-.16.43h-.32V88.77h.34a1.48,1.48,0,0,0,.06.37c0,.15.09.22.15.22l.08,0a.46.46,0,0,1,.14,0l1.39-.57,1.44-.59-1.05-.44-1.39-.58L40.44,87a.62.62,0,0,0-.23,0,.17.17,0,0,0-.15.08.68.68,0,0,0-.11.19,1,1,0,0,0-.08.22q0,.11,0,.18h-.31V85.8Z"/><path d="M43.21,81.12a2.49,2.49,0,0,1,.92.81,2.08,2.08,0,0,1,.34,1.16,2.32,2.32,0,0,1-.21,1,2,2,0,0,1-.55.72,2.36,2.36,0,0,1-.82.42,3.31,3.31,0,0,1-1,.14,2.91,2.91,0,0,1-.92-.15,2.43,2.43,0,0,1-.81-.43,2.21,2.21,0,0,1-.56-.69,2.05,2.05,0,0,1-.21-.93,2.23,2.23,0,0,1,.16-.9,1.7,1.7,0,0,1,.46-.61,2,2,0,0,1,.64-.34,3,3,0,0,1,.81-.11h.32v3.19a3.72,3.72,0,0,0,.86-.09,2,2,0,0,0,.68-.28,1.44,1.44,0,0,0,.45-.5,1.54,1.54,0,0,0,.16-.73,1.29,1.29,0,0,0-.2-.75,1.93,1.93,0,0,0-.73-.61Zm-1.84,1.07a4.13,4.13,0,0,0-.58,0,1.69,1.69,0,0,0-.52.15,1.12,1.12,0,0,0-.37.31.87.87,0,0,0-.14.5,1,1,0,0,0,.43.85,2,2,0,0,0,1.18.37Z"/><path d="M29.81,69.43q.61,11.83.83,23.68c.17,7.89.21,15.78.23,23.67s-.06,15.78-.23,23.67-.42,15.78-.83,23.68q-.61-11.85-.83-23.68c-.17-7.89-.21-15.78-.23-23.67S28.82,101,29,93.11,29.4,77.32,29.81,69.43Z"/></svg>