<svg id="Ebene_2" data-name="Ebene 2" xmlns="http://www.w3.org/2000/svg" viewBox="0 0 56.69 170.08"><path d="M24.34,38.85c-.11-1-.22-2-.32-2.91,0-.31-.09-.62-.11-.93a2.41,2.41,0,0,0-1.4-1.88l-.68.17-.27-1.22a1.56,1.56,0,0,0-1.38.21c0-.12,0-.22,0-.32-.07-.64-.11-1.3-.23-1.93a.65.65,0,0,0-.8-.5l-.49-1c.14-.73.14-.73-.74-1,.06-.43.17-.9-.44-1.11.22-.76-.17-1.22-.81-1.56,0-.48-.18-.86-.76-.9A1.25,1.25,0,0,0,14.8,23c-.11-.74-.35-1.11-1.43-1.23-.47-.84-.73-.93-1.64-.6l-.69.27-.23-.29a.59.59,0,0,0-.75.36A1,1,0,0,1,9.4,22a3.59,3.59,0,0,0-.78.45c-.34.24-.67.52-1,.77L5.88,24.52l.64.17a3.28,3.28,0,0,1-.25.26c-.51.36-.58.54-.42,1.12.47.08.65-.42,1.11-.47a7.64,7.64,0,0,1-.5.72c-.39.43-.6.84-.23,1.4a2.1,2.1,0,0,1,.18.7l-.65.11a.8.8,0,0,1-1.13.28L5,28.39l-.33-.19-.21-.91.24-.17c-.45-.22-.24-.52-.13-.79-.23-.19-.35,0-.41.13a5.09,5.09,0,0,0-.23,1c-.06.72,0,1.44-.11,2.15a1.63,1.63,0,0,1-2.37,1.23l-.2-.14.44-.24-.37-.58.75.17a.8.8,0,0,0,1-.42,2.22,2.22,0,0,0,.28-1.74H2.76l.49.44H2.49l.43.56a1.89,1.89,0,0,1-.41-.06l-1-.38a.55.55,0,0,1-.25-.93,2.87,2.87,0,0,0,.59-1.73,1.79,1.79,0,0,1,.59-1.26c0-.07,0-.12,0-.14a.88.88,0,0,1-.27-1.27c.26-.49.51-1,.82-1.46a4,4,0,0,0,1-2.18,1.82,1.82,0,0,1,.56-1.3,2.41,2.41,0,0,0,.38-.77,4.07,4.07,0,0,1,.38-.82A2.07,2.07,0,0,1,4.64,19V20.5c.54-.41,1.22-.61,1.55-1.35a2,2,0,0,1,1.3-1l-.78,1h.57l.12.44a5.52,5.52,0,0,0,1.67-1.17c.17-.22.51-.3.77-.45l.08.09-.36.59c.59-.19,1.08-.11,1.54-.4A2.2,2.2,0,0,1,13,18l-.78.62.06.12a2.35,2.35,0,0,1,2.06-.28l-.57.36c1.19.46,2.51.44,3.41,1.45l-.91-.36,0,.08c.51.46,1,.91,1.51,1.39a8.39,8.39,0,0,1,.91,1c.32.4.57.87.89,1.27a9.36,9.36,0,0,0,.86.92c.33.33.67.63,1,.93a1.45,1.45,0,0,0,.35.18c.51.32,1,.66,1.52.94a3.67,3.67,0,0,0,1.27.52c1.67.18,3.35.37,5,.4a8.47,8.47,0,0,1,3.82.81,4,4,0,0,0,3.31.21,5,5,0,0,0,2.69-1.93,17.89,17.89,0,0,0,.88-1.88c.07-.15.13-.31.21-.5a3,3,0,0,1,1.64.57,16,16,0,0,1,3.24,3.63,39.91,39.91,0,0,1,3.18,5.67A15.15,15.15,0,0,1,50,40.89a17,17,0,0,1-2.87,8.78,11.32,11.32,0,0,1-1.83,2.46c-.76.7-1.52,1.39-2.29,2.06a20.32,20.32,0,0,1-11.57,4.92c-2,.21-4.1.29-6.14.41a5.24,5.24,0,0,1-.79-.05v-.12c.94-.16,1.89-.34,2.83-.49a23.12,23.12,0,0,0,6.81-2A20.58,20.58,0,0,0,36,55.7a3.36,3.36,0,0,0,1.21-1.45c.07-.16.16-.31.2-.39l2.09-.74a2.14,2.14,0,0,0,1-.81c.23-.33.49-.64.73-1A3,3,0,0,0,42,48.69a10.33,10.33,0,0,0,2.37-3.8,3.45,3.45,0,0,0,.16-2.06c-.11-.43-.31-.75-.82-.73a.3.3,0,0,1-.17,0c0-1.22,0-2.42,0-3.61a.89.89,0,0,0-.42-.87l-.68.79c.42,1,.42,1,.31,1.48l-.66-.32c-.16.82.74,1.36.36,2.23l-.4-.69-.19.11-.38,1.76a2.36,2.36,0,0,1,.14,3.12l-.27-1-.46.59c.33,1.45.1,2.3-.81,2.95L40,47.87a2.74,2.74,0,0,0-.65,1.35,1.3,1.3,0,0,1-.31.72,10.18,10.18,0,0,1-1,.94l-.11-.38s-.08,0-.1,0A2.25,2.25,0,0,0,37,51.78c-.11.61-.6,1-1.24,1.25l.34-.93c-.5.29-.92.52-1.32.78a.79.79,0,0,0-.29.4,3.21,3.21,0,0,1-1.61,1.64l.57-1.34-.1-.06a2.49,2.49,0,0,0-.32.2,4.84,4.84,0,0,1-1.9,1.1.55.55,0,0,0-.3.16c-.37.51-1,.59-1.48.85l-.25-.65c-1.25.61-2.33,1.58-3.86,1.14l.1-.37H23.24a1.08,1.08,0,0,0-.44.09A1.62,1.62,0,0,1,21,56l.17-.22s-.06-.07-.09-.08c-.44-.06-.88-.14-1.32-.17s-.6,0-.91,0l-1.51,0,.21-.4.17-.31c-.06-.07-.1-.18-.15-.19a8.56,8.56,0,0,0-2.21-.33,2.92,2.92,0,0,1-2.45-.75c.43-.17.95,0,1.24-.48l-1.31-.64a.53.53,0,0,0-.28,0,2.43,2.43,0,0,1-2.22-1.06h1l0-.16a2.88,2.88,0,0,0-1.1-.57A3.24,3.24,0,0,1,7.94,49.2l1.13.19.07-.13c-.47-.36-.72-1-1.39-1.09a2.58,2.58,0,0,1-1.69-1.44c.5.18.84.56,1.38.31l-.79-1.15c-1.26-.41-1.92-1-2.17-1.93.22.21.37.36.54.51s.42.34.67.16.14-.48,0-.67a6.64,6.64,0,0,0-1.14-1.11,2,2,0,0,1-.88-1.24l.82.55.08-.09a1.62,1.62,0,0,0-.71-1A2.1,2.1,0,0,1,2.91,40l.8.29-.5-1.21A1.88,1.88,0,0,1,2.1,37.81l.76.33c-.1-.53-.11-1-.59-1.34a1.65,1.65,0,0,1-.66-1.19l.53.17c0-.06.06-.12,0-.16A6.14,6.14,0,0,0,2,34.88a2.69,2.69,0,0,0-.27-.6,1.88,1.88,0,0,1-.32-1.44l.47.63L2,32.12l1-.27a2.73,2.73,0,0,1,.1.44c.08.81.09,1.63.24,2.42a25.39,25.39,0,0,0,2,6.37A25.42,25.42,0,0,0,8,45.24a20.7,20.7,0,0,0,4.2,4.16,11.09,11.09,0,0,0,3.15,1.71,40.25,40.25,0,0,0,6.5,1.76,13.67,13.67,0,0,0,7.46-.8,18,18,0,0,0,2.29-1,23.1,23.1,0,0,0,2.3-1.66s.08-.08.13-.11a7.06,7.06,0,0,0,2.62-4.94,5.93,5.93,0,0,0-.09-2.87,1.77,1.77,0,0,1,0-.33,7.36,7.36,0,0,0,2.69-2.93,9.9,9.9,0,0,0,.45-1.43c.22-.75.41-1.49.61-2.22a1.54,1.54,0,0,0-2-.44,4.75,4.75,0,0,0-3.39-2.39,18.92,18.92,0,0,0-2.72-.13c-.79,0-1.58.1-2.46.16a9.69,9.69,0,0,0,.56,1.07,1.46,1.46,0,0,1,.09,1.48c-.4,1-.74,2.08-1.09,3.05a2.5,2.5,0,0,0-.61.34,19,19,0,0,0-2.52,3.39,2.34,2.34,0,0,1-2.32,1.38l.74-1.41a15.68,15.68,0,0,1-4.7-2.88c-1.27-1.26-2.47-2.59-3.68-3.86,0,.38,0,.8,0,1.22a1.1,1.1,0,0,1-.32.95.25.25,0,0,0-.08.15.63.63,0,0,1-.47.71,1.35,1.35,0,0,1-1.21-.12l.29-.23a.56.56,0,0,0,.18-.77.94.94,0,0,1,0-1,3.46,3.46,0,0,0-.07-2.82.85.85,0,0,0-.29-.36c-.5-.42-1-.83-1.54-1.23a1.21,1.21,0,0,0-.47-.23,1.07,1.07,0,0,1-1.06-.79L10,30a1.58,1.58,0,0,1,1-1.51,1.79,1.79,0,0,1,2.18.5,3.15,3.15,0,0,0,.52.35c-.25-.55-.48-1.14-1.25-1.14a1.23,1.23,0,0,0-.8-1,3.69,3.69,0,0,1,2.16.15,1.64,1.64,0,0,1,.53.65,7.42,7.42,0,0,0,.46.88c-.08-.33-.17-.66-.25-1s-.09-.6-.17-.89a3.5,3.5,0,0,0-.24-.56,1.44,1.44,0,0,1,1.48,1.33c.25,1.05.51,2.1.73,3.17a8.49,8.49,0,0,0,4.15,5.55c1.1.69,2.18,1.4,3.28,2.11Zm-21.15-13,.14.06.58-1.05-.1-.08-.6.62a.9.9,0,0,1,0,.23A1.7,1.7,0,0,1,3.19,25.88Zm-.37,1.41.51.39C3.36,27.25,3.2,27.2,2.82,27.29Zm.33-1.07-.06.07.1.11s.05,0,.05,0,0-.07,0-.08A.54.54,0,0,0,3.15,26.22Zm.05.63h0l0,0Z"/><path d="M10.45,12.34,10,12.19l.22.71-.63-.47.34.84-.08.1-.81-.43.07.49a.85.85,0,0,1,0,.42,2.2,2.2,0,0,1-.31-.3c-.2-.28-.39-.57-.57-.86a.71.71,0,0,1,.55-1.15,1.13,1.13,0,0,0,.75-.37c.52-.48,1.06-.95,1.63-1.47-.13-.68.34-1,.93-1.26.94-.4,1.88-.81,2.81-1.23A1.27,1.27,0,0,0,15.31,7a7.7,7.7,0,0,1,2.14-1.47c.33-.15.63-.36,1.05-.6a4.53,4.53,0,0,1-.14,1,1.11,1.11,0,0,0,.07,1,4.39,4.39,0,0,0,1.74.67,3.22,3.22,0,0,1,.92.4l0,.12-.55.21a2.83,2.83,0,0,1,2,1.36l-1-.09-.08.13a2.27,2.27,0,0,0,.49.39,2.76,2.76,0,0,1,1.46,1.81l-.83-.53.11.92a2.22,2.22,0,0,1,1.05,2.23c-.3-.32-.38-.81-.9-.92V15L23,15c.17.37.35.74.5,1.13s.14.53.55.56l-.44.39-.68-.56-.14.62.34.49c.72-.23,1.09-.65,1.57-1.78l-.38-.89a1.16,1.16,0,0,0,1.54-.64,3.2,3.2,0,0,1,.49-.5l.11.75a3.07,3.07,0,0,0,1.65-1.82l.24.61c.51,0,.68-.4.87-.7a6.18,6.18,0,0,0,.45-1.12l.31.59.39-1.24a6.2,6.2,0,0,0,.62.37,2.82,2.82,0,0,0,.52.09l.1-.13-.82-1.35,1.33.45c.23-.3.07-.47-.08-.65a3.23,3.23,0,0,1-.48-.57,1.19,1.19,0,0,1-.14-.52,1.13,1.13,0,0,0-.66-.94c-.42-.18-.82-.4-1.22-.59l0,.32h0c-.38-.18-.76-.36-1.15-.52s-.39-.13-.76.1l.56.77c-.61-.18-1.1-.42-1.54.12l.35.52c-.52-.09-.95-.3-1.41,0s-.42.82-.5,1.42l-.55-.67.09.8-.13.06a2.59,2.59,0,0,1-.6-1.19c-.17-.43-.56-.77-.52-1.35L24,7.9,24,7l.1,0,.29.37.13-.68.44.62.15-.84.33.53.1-.69.4.21V6l-1,.16c-.84.14-1.67.3-2.52.41a1.7,1.7,0,0,1-1.77-1,4.77,4.77,0,0,1-.45-1l.63.75.35-.51a.64.64,0,0,1,.06.1,1.09,1.09,0,0,0,1.12,1.07,10.71,10.71,0,0,0,1.79-.14,13.34,13.34,0,0,0,1.64-.36c.28-.08.67-.13.63-.56l-.72.07-.18.19L25.22,5l-.29.36-.24-.19-.24.54-.15-.36-.23.29-.24-.36-.19.5-.25-.73-.22.67a2.44,2.44,0,0,1-.3-1.7.66.66,0,0,1,.9-.42,2.46,2.46,0,0,0,2.21,0c.21-.11.53,0,.86.05a1.36,1.36,0,0,1,1.71-.36l.89-.47c.89.81,2,.39,3,.52l3.34.41c-.1.11-.16.22-.24.25-.56.21-1.12.42-1.7.59a1,1,0,0,1-.56,0,2.92,2.92,0,0,0-1.8.07l1.1,1.31c2.13.66,2.6,1.07,2.58,2.35l-.11.11-.33-.66-.11.11.24,1.45-.1,0-.48-.57,0,0,0,0,.4,2-.36.18a3.5,3.5,0,0,1-1.14,2.2l0-.62a2.43,2.43,0,0,0-.79,1,1.68,1.68,0,0,1-1,1.11l-.15-.3c-.05,0-.1,0-.12,0a2.85,2.85,0,0,0-.78,1.33,1.53,1.53,0,0,1-1.17,1.14,2,2,0,0,0,.44-1.49l-.87.49a2.5,2.5,0,0,1-1.2,1.84V16.9c-.85.21-1.12.89-1.47,1.68L26,18.23c-.44.67-1,1.15-.88,2h-.37a2.93,2.93,0,0,0-.53,1.22c0,.24-.3.48-.35.8a1.26,1.26,0,0,0,.23,1.14,2,2,0,0,1,.23.48l-.29.09c.2,1,1,1.25,1.86,1.52l0,.12-.36.16,0,.13,2.27.89c-2.66.39-6.61-1.68-8.46-4.54l.57.21c-.06-.35-.06-.35-.51-.86,0,0,.05-.09.09-.11a.86.86,0,0,1,.21,0L19.44,21a3.06,3.06,0,0,0,.2-2.28l.32-.06c.05-.32.1-.64.14-1,.07-.56.2-1.13-.35-1.6l.64.06c.14-1,.1-1.14-.6-2.21l.7.2a1.45,1.45,0,0,0-.42-1,7.89,7.89,0,0,1-.57-.7l.07-.11.5.14a.58.58,0,0,0-.28-.87c-.26-.15-.49-.34-.76-.53l.24-.39A2.63,2.63,0,0,0,18,9.7a.61.61,0,0,0-.44,0,5.39,5.39,0,0,1-2.3.54,5.73,5.73,0,0,0-.62.09l1.8,1.23a.66.66,0,0,1-.67.24,5.43,5.43,0,0,1-.68-.13,1.17,1.17,0,0,0-1.21.39l.72.46-.12.19-1.34.32.82.48,0,.1H12.58l-.44,1.21.53.69-.05.08L12,15.32l.46.94-.08.08c-.64-.61-1.49-.94-2.08-1.61l.07-.1.7.18-.41-.66.53.14.22-.24-.2-.38.35-.09-.15-.37h.37l-.18-.47.43-.09-.15-.43c.34,0,.34,0,.38-.4l-.37.41a1.78,1.78,0,0,0-.44.32c-.38.43-.73.9-1.12,1.33a2.74,2.74,0,0,1-3.37.64,2.91,2.91,0,0,1-.33-.26l.63-.07-.14-.51.07-.06c.2.16.4.33.61.48.66.47,1,.41,1.67-.06a18.88,18.88,0,0,0,2.17-2.39,8.17,8.17,0,0,0,.6-.7v0a1.89,1.89,0,0,0-1.27.83l-.28-.1,0,.34-.22,0,0,.3ZM26.24,6.09l0,0,.1.09,0,0Z"/><path d="M50.56,48.13c.16-.51.32-1,.47-1.53a30.18,30.18,0,0,0,1.66-8.41,13,13,0,0,0-2-7.46l-.13-.2c-.36-.53-.78-.94-1.41-.69l-2-3.51a4.41,4.41,0,0,0-1.42-1.43.89.89,0,0,0-1.48.35l-.09.16c-.71-.52-1.4-1.05-2.11-1.53a3.7,3.7,0,0,0-1.1-.52c-.91-.24-1.47.23-1.45,1.18v.61a3.28,3.28,0,0,0-2.54-.73,2,2,0,0,0-2.27,2,1.84,1.84,0,0,0-2,.43,5.93,5.93,0,0,0-3.4-.28,2,2,0,0,1,.05-.49,2.73,2.73,0,0,0,0-1.93,18.9,18.9,0,0,0-1.64-3.46c-.08-.13-.14-.27-.22-.42A6.34,6.34,0,0,1,28.94,19a9.33,9.33,0,0,1,4-1.47,22.78,22.78,0,0,1,7.64.05,16,16,0,0,1,5.5,1.95,12.85,12.85,0,0,1,4.36,4.19,27.83,27.83,0,0,1,3.76,10,16.05,16.05,0,0,1-.4,7.19,39.69,39.69,0,0,1-1.91,5.18,24.16,24.16,0,0,1-1.16,2.12Z"/><path d="M22.06,47.61A3.9,3.9,0,0,1,23,49.46c.17.83-.11,1.27-1,1.48l.13-.37a.57.57,0,0,0-.21-.76,1.83,1.83,0,0,1-.75-1.26,5.44,5.44,0,0,0-.35-1,1.62,1.62,0,0,0-1.46-1,10.62,10.62,0,0,0-3.23-.15.8.8,0,0,1-.34,0c-.82-.23-1.16,0-1.4.78a1.56,1.56,0,0,1,.36-2.27,1.88,1.88,0,0,1,1.44-.23,6.14,6.14,0,0,0,.75.08l.05-.13c-.19-.08-.37-.18-.56-.25a1.84,1.84,0,0,1-1-.59.84.84,0,0,0-.9-.25l-.58.13a1.66,1.66,0,0,1,2.26-.94c.86-.76,1.27.26,1.89.47a2.22,2.22,0,0,0-1.86-1.62c.42-.87,1.21-.76,2.12.32l.43,0c.06.05.12.08.14.13a8.16,8.16,0,0,0,3.37,2.85,14.25,14.25,0,0,0,5.85,1.61,4.65,4.65,0,0,0,1.34-.28c.3-.08.58-.2.9-.31L31,44.43,30,42A6.45,6.45,0,0,1,29.65,38a17.57,17.57,0,0,1,2.05-5.16,1.18,1.18,0,0,1,1.09-.7,8.2,8.2,0,0,1,2.37.07A3.83,3.83,0,0,1,38,34.94a3.85,3.85,0,0,1,.82-.34,3.26,3.26,0,0,1,.84.06c0,.13.09.17.08.2A9.06,9.06,0,0,1,38,39a19.63,19.63,0,0,1-2,1.82A8,8,0,0,0,33.67,44a4.47,4.47,0,0,0,0,2.24,11.81,11.81,0,0,1,.07,1.68,3.32,3.32,0,0,1-.26.83l-.14,0c0-.1,0-.21-.07-.31a.85.85,0,0,0-.89-.68,20.34,20.34,0,0,0-3.82.18A19.78,19.78,0,0,1,24.2,48C23.51,47.86,22.83,47.74,22.06,47.61Z"/><path d="M54.73,23.47l.49.23c.18,3.09.42,6.17.31,9.26l-.16,0a2.33,2.33,0,0,1-.14-.33,25.9,25.9,0,0,0-1.71-5.24c-.28-.57-.64-1.11-1-1.66-.1-.18-.22-.35-.39-.63l.87.13A2.4,2.4,0,0,0,52.35,24c-.29-.38-.59-.75-1-1.2l.75-.14L50.62,21l.68-.09-2.38-2.18h.78l-2.24-2.06.65-.07-2.19-1.44.86-.43a2.09,2.09,0,0,0-.24-.31c-1.13-1-2.23-2-3.38-2.93a4.5,4.5,0,0,0-3.63-1,1.6,1.6,0,0,0-1.42,2.09,8,8,0,0,0,.38,1.2,1.49,1.49,0,0,0,1.83.73,1.4,1.4,0,0,0,.93-1.56,5.85,5.85,0,0,0-.43-1.19c-.07-.17-.17-.33-.31-.59a3,3,0,0,1,.68,0c.3.06.59.2.89.28A1.15,1.15,0,0,1,43,12.5a1.1,1.1,0,0,0,.24.45,2,2,0,0,1-.44,2.62l-.18-1.12a1.08,1.08,0,0,0-.41.92,1.26,1.26,0,0,1-1.08,1.52,4.07,4.07,0,0,1-.8.2l.83-.85a1.64,1.64,0,0,0-1.22.13,2.05,2.05,0,0,1-2.8-.35c.34-.08.76.15,1-.31-.65-.17-1.38-.17-1.81-.78a2.86,2.86,0,0,1-.61-1.65l1,1,.1-.08a2.77,2.77,0,0,0-.56-1.14,1.54,1.54,0,0,1-.48-1.26,2.53,2.53,0,0,1,.54-1.51l.16.94c.28-.48.47-.87.71-1.23a2.67,2.67,0,0,1,2.1-1.09,14.71,14.71,0,0,1,2.2,0A4.38,4.38,0,0,1,44,10.12c.94.78,1.86,1.59,2.78,2.38l.59.46.45-.86c.38.05.42.39.58.61.52.74,1,1.5,1.57,2.31l.34-.43,1.27,2.94.28-.61L53,20.17l.55-.45A14.24,14.24,0,0,1,53.79,22l.8-.41Z"/><path d="M6,33.16v1.17l.12.06,1.4-1.71.12.08-.38,1,.1.11c.73-.51,1.62-.31,2.41-.7S11.13,33,11.7,34l-1.09.15,0,.15c.42.25.83.51,1.26.74.59.31,1.19.61,1.2,1.41a1.23,1.23,0,0,1,0,.21l-.53-.3a1,1,0,0,0,.22,1,3.22,3.22,0,0,1,.6,2.15l-.72-1a.87.87,0,0,0-.09.87,2.46,2.46,0,0,1-.8,2.47,2.55,2.55,0,0,1-.36.17l.29-1-.11-.08c-.52,1-1.05,1.93-2.37,1.91.06-.11.13-.22.18-.33a2.48,2.48,0,0,0,.12-.38,7.89,7.89,0,0,1-1.06.06c-.34,0-.69-.11-1.07-.17l-.52.42L6.7,41.9c-1.14-.29-1.11-1.43-1.52-2.31a4.05,4.05,0,0,1,.35.21,4.55,4.55,0,0,0,4.84.24l.2-.13a2.91,2.91,0,0,0,.09-4.1,2.7,2.7,0,0,0-3.09-.18,3.17,3.17,0,0,0-1.65,3.11c0,.22.08.44.13.7a2.73,2.73,0,0,1-1.16-3.39,3.51,3.51,0,0,0,.38-1.38A2.31,2.31,0,0,1,6,33.16Z"/><path d="M37.55,6.6l1.7.89c1.32-.46,1.84-.34,2.3.56l-1.43-.19.37.51c-.31,0-.54,0-.76.06-.49.07-1,.15-1.49.21a.74.74,0,0,1-.39,0c-.75-.31-1.48-.64-2.11-.92L35,6.2l1.38.29c.74-.43,1.5-.92,2.37-.14l-1.2.08Z"/><path d="M29.52,7.35h0a.06.06,0,0,1,0,0l0,0Z"/><polygon points="10.44 12.35 10.47 12.37 10.45 12.34 10.44 12.35"/><path d="M12.32,156.3l1.83.37a1.41,1.41,0,0,0-.55.17.92.92,0,0,0-.54.88v1.89H21.4a.94.94,0,0,0,.7-.45,1.59,1.59,0,0,0,.22-.4v2.86a1.84,1.84,0,0,0-.22-.41,1,1,0,0,0-.7-.44H13.06v1.88a.94.94,0,0,0,.54.89,1.37,1.37,0,0,0,.55.15l-1.83.38.18-.38v-7.05Z"/><path d="M22.32,151.29a1.35,1.35,0,0,1-.48-.77l-3.31,1.29v2.75l3.15,1.06c.2,0,.36-.13.5-.39a1.74,1.74,0,0,0,.14-.38v2.93a1.61,1.61,0,0,0-.51-1,1.08,1.08,0,0,0-.41-.25l-9.08-3.43q8.49-3.48,9.15-3.83a1.64,1.64,0,0,0,.68-.7,2,2,0,0,0,.17-.43Zm-4.4.67-3.37,1.2,3.36,1.25Z"/><path d="M19.11,141.32A12.87,12.87,0,0,0,21,139.83a2.4,2.4,0,0,0,.91-2.09.53.53,0,0,1,.21.26,2.76,2.76,0,0,1,.22,1.26q0,.84-1.44,2a10.79,10.79,0,0,1-1.45,1,2.23,2.23,0,0,0-.68.64,3.44,3.44,0,0,0-.7,2.19H21.4a.94.94,0,0,0,.7-.44,1.84,1.84,0,0,0,.22-.41v2.85a1.64,1.64,0,0,0-.22-.41.94.94,0,0,0-.7-.44H13.3a1,1,0,0,0-.7.44,1.64,1.64,0,0,0-.22.41v-2a5.71,5.71,0,0,1,0-2.1A2.26,2.26,0,0,1,14.79,141a2.48,2.48,0,0,1,.89.14,4.62,4.62,0,0,1,2,1.38A8,8,0,0,1,19.11,141.32Zm-1.76,2.17a1.23,1.23,0,0,0-.26-.69,2,2,0,0,0-1.68-.68,2.88,2.88,0,0,0-2,.7,1.74,1.74,0,0,0-.6,1.28,4.52,4.52,0,0,0,0,.8c.06.14.27.22.63.22l3.91,0Z"/><path d="M18.17,132.23a.31.31,0,0,0-.26.07,1.73,1.73,0,0,0-.47.94V130a1.66,1.66,0,0,0,.47.94.26.26,0,0,0,.26.07h3.46a2.61,2.61,0,0,1,.34.71,7.09,7.09,0,0,1,.35,2.35A6.08,6.08,0,0,1,21.13,138a4.86,4.86,0,0,1-4,1.67,4.61,4.61,0,0,1-2.4-.57q-2.4-1.27-2.4-4.72a22.28,22.28,0,0,1,.42-3.47l2.21.33a2.53,2.53,0,0,0-1.09.54,3,3,0,0,0-1.1,2.5,4.17,4.17,0,0,0,1.16,3.13,4.34,4.34,0,0,0,3.22,1.16A4.23,4.23,0,0,0,20.47,137a4.87,4.87,0,0,0,1.26-3.25,2,2,0,0,0-.47-1.54Z"/><path d="M22.32,124.8a1.32,1.32,0,0,1-.48-.77l-3.31,1.29v2.76l3.15,1c.2,0,.36-.13.5-.38a2,2,0,0,0,.14-.39v2.93a1.61,1.61,0,0,0-.51-1,1.22,1.22,0,0,0-.41-.25l-9.08-3.43q8.49-3.48,9.15-3.83a1.62,1.62,0,0,0,.68-.69,2.07,2.07,0,0,0,.17-.44Zm-4.4.67-3.37,1.2,3.36,1.25Z"/><path d="M19.11,114.83A12.22,12.22,0,0,0,21,113.34a2.4,2.4,0,0,0,.91-2.09.53.53,0,0,1,.21.26,2.76,2.76,0,0,1,.22,1.26q0,.84-1.44,2a10.79,10.79,0,0,1-1.45,1,2.23,2.23,0,0,0-.68.64,3.44,3.44,0,0,0-.7,2.19H21.4a.94.94,0,0,0,.7-.44,1.64,1.64,0,0,0,.22-.41v2.85a1.84,1.84,0,0,0-.22-.41.94.94,0,0,0-.7-.44H13.3a1,1,0,0,0-.7.44,1.84,1.84,0,0,0-.22.41v-2a5.71,5.71,0,0,1,0-2.1,2.26,2.26,0,0,1,2.36-2.11,2.48,2.48,0,0,1,.89.14,4.62,4.62,0,0,1,2,1.38A8.44,8.44,0,0,1,19.11,114.83ZM17.35,117a1.23,1.23,0,0,0-.26-.69,2,2,0,0,0-1.68-.68,2.88,2.88,0,0,0-2,.7,1.74,1.74,0,0,0-.6,1.28,4.52,4.52,0,0,0,0,.8c.06.14.27.22.63.22l3.91,0Z"/><path d="M12.32,105.22a1,1,0,0,0,.17.35,1,1,0,0,0,.7.43l4.25,2.67h4a.94.94,0,0,0,.7-.45,1.59,1.59,0,0,0,.22-.4v2.86a1.78,1.78,0,0,0-.22-.4.94.94,0,0,0-.7-.45H17.48l-4.29,2.68a1,1,0,0,0-.7.43,1,1,0,0,0-.17.34v-2.89a1.84,1.84,0,0,0,.22.41,1,1,0,0,0,.7.45l3.38-2-3.38-2a.92.92,0,0,0-.7.45,1.49,1.49,0,0,0-.22.41Z"/><path d="M12.5,99.37,12.32,99l1.83.38a1.24,1.24,0,0,0-.55.16.92.92,0,0,0-.54.88v1.9H16.8v-2.09a1.57,1.57,0,0,0-.34-1l2,.25a1,1,0,0,0-.53.17,1.15,1.15,0,0,0-.53,1.07v1.6h3.71a2.13,2.13,0,0,0,.42-.46,2.21,2.21,0,0,0,.42-1.29,1.78,1.78,0,0,0-.66-1.31,3.13,3.13,0,0,0-.65-.46l1.72.2v5.33a1.75,1.75,0,0,0-.23-.42.94.94,0,0,0-.76-.43H13.17a1.52,1.52,0,0,0-.67,1Z"/><path d="M12.32,87.89a1.59,1.59,0,0,0,.22.4.94.94,0,0,0,.7.45h9.08L14.78,96H21.4a1,1,0,0,0,.7-.44,1.64,1.64,0,0,0,.22-.41V98a1.64,1.64,0,0,0-.22-.41,1,1,0,0,0-.7-.44H12.32L20,89.9H13.24a.94.94,0,0,0-.7.45,1.59,1.59,0,0,0-.22.4Z"/><path d="M44.48,160.6a3,3,0,0,1-.24,1.19,3.12,3.12,0,0,1-.7,1,3.61,3.61,0,0,1-1.12.7,4.63,4.63,0,0,1-3,0,3.51,3.51,0,0,1-1.17-.7,3.12,3.12,0,0,1-1-2.34,3,3,0,0,1,.13-.93,3.28,3.28,0,0,1,.35-.79l-.33-.2v-.39l2.47,0v.41a6,6,0,0,0-.78.23,3.45,3.45,0,0,0-.72.36,2,2,0,0,0-.52.56,1.51,1.51,0,0,0-.19.74,1.9,1.9,0,0,0,.21.88,2.05,2.05,0,0,0,.62.7,3.15,3.15,0,0,0,1,.45,5.7,5.7,0,0,0,1.36.16,4.23,4.23,0,0,0,1.22-.17,3.09,3.09,0,0,0,1-.48,2.4,2.4,0,0,0,.65-.74,2,2,0,0,0,.23-.95,2.11,2.11,0,0,0-.12-.73,1.94,1.94,0,0,0-.33-.58,2.9,2.9,0,0,0-.49-.43,2.8,2.8,0,0,0-.6-.3l.18-.36A3,3,0,0,1,44,159,3,3,0,0,1,44.48,160.6Z"/><path d="M44.23,152.59c.06.16.1.29.14.4a1.62,1.62,0,0,1,.05.4,1,1,0,0,1-.18.61.86.86,0,0,1-.52.29v0a2.45,2.45,0,0,1,.54.68,1.93,1.93,0,0,1,.18.87,1.24,1.24,0,0,1-.33.89,1.12,1.12,0,0,1-.87.35,1.55,1.55,0,0,1-.5-.07,1.21,1.21,0,0,1-.39-.24,1.24,1.24,0,0,1-.27-.32c-.07-.14-.13-.26-.18-.38s-.16-.44-.31-.89a5.57,5.57,0,0,0-.35-.9h-.48l-.24,0a1,1,0,0,0-.35.12.88.88,0,0,0-.31.27.84.84,0,0,0-.14.51,1.16,1.16,0,0,0,.08.42.74.74,0,0,0,.16.27,1.58,1.58,0,0,0,.29,0,1.48,1.48,0,0,1,.35-.05.43.43,0,0,1,.31.16.57.57,0,0,1,.14.43.39.39,0,0,1-.17.35.69.69,0,0,1-.39.12.68.68,0,0,1-.43-.16,1.64,1.64,0,0,1-.37-.41,2.91,2.91,0,0,1-.23-.53,2.25,2.25,0,0,1-.09-.61,4.87,4.87,0,0,1,.05-.72,1.25,1.25,0,0,1,.25-.55,1,1,0,0,1,.49-.38,2,2,0,0,1,.79-.13h1.24l1.18,0a.6.6,0,0,0,.3-.07.47.47,0,0,0,.24-.43c0-.11,0-.22,0-.33Zm-2.58,1.71c.08.27.16.52.24.72a2.65,2.65,0,0,0,.3.58,1.21,1.21,0,0,0,.39.39,1,1,0,0,0,.54.14.78.78,0,0,0,.6-.21.76.76,0,0,0,.19-.54,1.14,1.14,0,0,0-.17-.61,1.7,1.7,0,0,0-.4-.44Z"/><path d="M40.12,148.23a.84.84,0,0,1,.45.12.43.43,0,0,1,.19.37.57.57,0,0,1-.14.42.43.43,0,0,1-.31.15l-.2,0-.18,0a1.1,1.1,0,0,0,.19.53,1.58,1.58,0,0,0,.53.53h2.8a.58.58,0,0,0,.28-.07.39.39,0,0,0,.16-.21,1.1,1.1,0,0,0,.07-.31c0-.13,0-.24,0-.34h.32v2.54H44a1.64,1.64,0,0,1,0-.23,1.12,1.12,0,0,0,0-.21.35.35,0,0,0-.16-.2.55.55,0,0,0-.28-.06h-3a.66.66,0,0,0-.3.07.54.54,0,0,0-.23.19.85.85,0,0,0-.09.22,1.27,1.27,0,0,0,0,.28h-.33l-.1-1.6.06-.07h.68v0a2.22,2.22,0,0,1-.6-.67,1.49,1.49,0,0,1-.2-.68.63.63,0,0,1,.2-.5A.72.72,0,0,1,40.12,148.23Z"/><path d="M44.23,142.34l.11,1.69-.07.07h-.45v0a2,2,0,0,1,.46.63,1.75,1.75,0,0,1,.19.77,1.87,1.87,0,0,1-.19.79,2,2,0,0,1-.51.66,2.67,2.67,0,0,1-.81.46,3.21,3.21,0,0,1-1.05.17,2.72,2.72,0,0,1-1-.18,2.62,2.62,0,0,1-.82-.5,2.16,2.16,0,0,1-.52-.73,2.13,2.13,0,0,1-.2-.88,2.5,2.5,0,0,1,.09-.66,2.42,2.42,0,0,1,.22-.56H38a1,1,0,0,0-.38.07.62.62,0,0,0-.25.19.84.84,0,0,0-.14.37,3.61,3.61,0,0,0-.06.5h-.3l-.11-2,.07-.08h6.49a.62.62,0,0,0,.29-.06.66.66,0,0,0,.21-.2.74.74,0,0,0,.07-.26c0-.12,0-.23,0-.33Zm-.84,1.77H40.57a1.11,1.11,0,0,0-.27.13,1.13,1.13,0,0,0-.27.22,1.33,1.33,0,0,0-.21.33,1.19,1.19,0,0,0-.08.44,1,1,0,0,0,.15.54,1.67,1.67,0,0,0,.44.44,2.17,2.17,0,0,0,.7.28,3.83,3.83,0,0,0,.93.11,3.52,3.52,0,0,0,.75-.08,2,2,0,0,0,.62-.26,1.42,1.42,0,0,0,.44-.44,1.18,1.18,0,0,0,.16-.63,1.11,1.11,0,0,0-.17-.65A2.25,2.25,0,0,0,43.39,144.11Z"/><path d="M44.32,136.44v2.36H44a1.69,1.69,0,0,1,0-.25,1.09,1.09,0,0,0,0-.22.32.32,0,0,0-.16-.2.47.47,0,0,0-.28-.07H41a1.18,1.18,0,0,0-.79.24.79.79,0,0,0-.28.59,1.51,1.51,0,0,0,.08.48,1.94,1.94,0,0,0,.2.38.89.89,0,0,0,.25.26l.2.14h2.77a.54.54,0,0,0,.27-.07.42.42,0,0,0,.17-.2.94.94,0,0,0,.07-.22,1.78,1.78,0,0,0,0-.26h.32v2.36H44a1.64,1.64,0,0,1,0-.23c0-.08,0-.15,0-.2a.37.37,0,0,0-.16-.21.55.55,0,0,0-.28-.07H37.89a.8.8,0,0,0-.33.08.57.57,0,0,0-.25.2.63.63,0,0,0-.09.31c0,.15,0,.27,0,.36h-.31l-.11-1.79.07-.06h3.36v0l-.28-.3a1.67,1.67,0,0,1-.26-.34,1.78,1.78,0,0,1-.2-.44,2,2,0,0,1-.08-.57,1.23,1.23,0,0,1,.41-1,1.76,1.76,0,0,1,1.17-.35h2.51a.51.51,0,0,0,.27-.06.38.38,0,0,0,.17-.2c0-.08.05-.15.07-.21s0-.14,0-.23Z"/><path d="M44.23,130.49l.11,1.58-.07.07h-.61v0l.26.26a2.34,2.34,0,0,1,.45.76,1.79,1.79,0,0,1,.07.58,1.15,1.15,0,0,1-.42,1,1.84,1.84,0,0,1-1.21.34h-2.3a.67.67,0,0,0-.3.06.76.76,0,0,0-.2.2.63.63,0,0,0-.09.22,1.27,1.27,0,0,0,0,.28h-.33l-.11-1.61.06-.07h3.35a1.15,1.15,0,0,0,.78-.23.74.74,0,0,0,.27-.57,1.4,1.4,0,0,0-.08-.47,1.54,1.54,0,0,0-.2-.36,2.39,2.39,0,0,0-.22-.23.91.91,0,0,0-.21-.15H40.48a.54.54,0,0,0-.29.07.63.63,0,0,0-.21.19.54.54,0,0,0-.07.26c0,.11,0,.24,0,.39h-.33l-.11-1.76.06-.07h3.82a.54.54,0,0,0,.29-.07.71.71,0,0,0,.2-.19.65.65,0,0,0,.07-.21,2.13,2.13,0,0,0,0-.27Z"/><path d="M41.56,120.26a2.39,2.39,0,0,0,0,.31,1,1,0,0,0,.09.32.43.43,0,0,0,.21.21.75.75,0,0,0,.31.06h1.67a8.25,8.25,0,0,1,.45,1.29,5.57,5.57,0,0,1,.15,1.27,3.5,3.5,0,0,1-.24,1.28,3.39,3.39,0,0,1-.71,1.07,3.57,3.57,0,0,1-1.13.74,3.92,3.92,0,0,1-1.49.27,4.21,4.21,0,0,1-1.47-.26,3.38,3.38,0,0,1-1.17-.74,3.18,3.18,0,0,1-.76-1.11,3.68,3.68,0,0,1-.13-2.39,4.24,4.24,0,0,1,.34-.77l-.33-.2v-.39l2.42,0v.4a8,8,0,0,0-.79.25,2.58,2.58,0,0,0-.69.39,1.74,1.74,0,0,0-.68,1.41,2,2,0,0,0,.22.93,2,2,0,0,0,.63.72,3,3,0,0,0,1,.46,5.15,5.15,0,0,0,1.35.16,4.6,4.6,0,0,0,1.25-.16,3.35,3.35,0,0,0,1-.46,2.15,2.15,0,0,0,.68-.76,2.07,2.07,0,0,0,.25-1,2.22,2.22,0,0,0-.13-.79,1.5,1.5,0,0,0-.28-.5,4.38,4.38,0,0,0-.51,0h-.82a1.06,1.06,0,0,0-.37.06.37.37,0,0,0-.23.23,1.66,1.66,0,0,0-.11.43c0,.19,0,.33,0,.44H41.2v-3Z"/><path d="M41.86,114.94a3.43,3.43,0,0,1,1,.16,2.29,2.29,0,0,1,.83.46,2.15,2.15,0,0,1,.58.78,2.48,2.48,0,0,1,.2,1,2.2,2.2,0,0,1-.18.88,2.25,2.25,0,0,1-.5.74,2.41,2.41,0,0,1-.8.5,2.78,2.78,0,0,1-1.06.19,2.59,2.59,0,0,1-1.84-.66,2.22,2.22,0,0,1-.72-1.72,2.19,2.19,0,0,1,.68-1.67A2.49,2.49,0,0,1,41.86,114.94Zm0,1a4.29,4.29,0,0,0-.77.08,2.43,2.43,0,0,0-.69.22,1.31,1.31,0,0,0-.49.41,1,1,0,0,0-.18.62,1.12,1.12,0,0,0,.18.64,1.43,1.43,0,0,0,.51.43,2.37,2.37,0,0,0,.68.23,4.71,4.71,0,0,0,.74.06,4.77,4.77,0,0,0,.87-.08,2.58,2.58,0,0,0,.71-.24,1.44,1.44,0,0,0,.49-.42,1.1,1.1,0,0,0,.17-.62,1.08,1.08,0,0,0-.59-1A3.1,3.1,0,0,0,41.87,116Z"/><path d="M44.32,111.79v2.35H44a1.66,1.66,0,0,1,0-.24c0-.08,0-.15,0-.21a.32.32,0,0,0-.16-.2.47.47,0,0,0-.28-.07H37.92a.72.72,0,0,0-.33.07.69.69,0,0,0-.24.2,1,1,0,0,0-.11.32c0,.16-.05.29-.06.38h-.31l-.11-1.81.07-.07h6.61a.58.58,0,0,0,.28-.06.41.41,0,0,0,.17-.21A.86.86,0,0,0,44,112a1.5,1.5,0,0,0,0-.24Z"/><path d="M44.23,105.71l.11,1.69-.07.07h-.45v0a2,2,0,0,1,.46.63,1.75,1.75,0,0,1,.19.77,1.87,1.87,0,0,1-.19.79,2,2,0,0,1-.51.66,2.67,2.67,0,0,1-.81.46,3.21,3.21,0,0,1-1.05.17,2.72,2.72,0,0,1-1-.18,2.62,2.62,0,0,1-.82-.5,2.16,2.16,0,0,1-.52-.73,2.13,2.13,0,0,1-.2-.88,2.5,2.5,0,0,1,.09-.66,2.42,2.42,0,0,1,.22-.56H38a1,1,0,0,0-.38.07.62.62,0,0,0-.25.19.84.84,0,0,0-.14.37,3.61,3.61,0,0,0-.06.5h-.3l-.11-2,.07-.08h6.49a.62.62,0,0,0,.29-.06.66.66,0,0,0,.21-.2.74.74,0,0,0,.07-.26c0-.12,0-.23,0-.33Zm-.84,1.77H40.57a1.11,1.11,0,0,0-.27.13,1.13,1.13,0,0,0-.27.22,1.33,1.33,0,0,0-.21.33,1.19,1.19,0,0,0-.08.44,1,1,0,0,0,.15.54,1.67,1.67,0,0,0,.44.44,2.17,2.17,0,0,0,.7.28A3.83,3.83,0,0,0,42,110a3.52,3.52,0,0,0,.75-.08,2,2,0,0,0,.62-.26,1.42,1.42,0,0,0,.44-.44,1.18,1.18,0,0,0,.16-.63,1.11,1.11,0,0,0-.17-.65A2.25,2.25,0,0,0,43.39,107.48Z"/><path d="M44.32,95.56v1.86c-.65.42-1.21.79-1.68,1.12s-1,.7-1.46,1.09v.71h2.2a.73.73,0,0,0,.3-.06.35.35,0,0,0,.19-.23,1,1,0,0,0,.07-.3,2.86,2.86,0,0,0,0-.37h.35v2.93H44c0-.08,0-.2,0-.34a1,1,0,0,0-.07-.31.44.44,0,0,0-.18-.22.71.71,0,0,0-.31-.06h-5a.75.75,0,0,0-.31.05.39.39,0,0,0-.2.23,2.7,2.7,0,0,0-.08.31,2.38,2.38,0,0,0,0,.34h-.35v-3.2a3.64,3.64,0,0,1,.09-.83,2.41,2.41,0,0,1,.29-.7,1.47,1.47,0,0,1,.51-.48,1.5,1.5,0,0,1,.76-.18,2,2,0,0,1,.71.12,1.47,1.47,0,0,1,.53.36,2.25,2.25,0,0,1,.36.53,4.19,4.19,0,0,1,.27.68c.45-.34.83-.63,1.14-.85l1.13-.84a2.48,2.48,0,0,0,.43-.38,2.33,2.33,0,0,0,.23-.35,1.14,1.14,0,0,0,.09-.31,1.45,1.45,0,0,0,0-.32Zm-5.16,2.57a1.36,1.36,0,0,0-1,.36,1.35,1.35,0,0,0-.37,1v.83h3V99.7a1.51,1.51,0,0,0-1.6-1.57Z"/><path d="M43.19,90.94a2.38,2.38,0,0,1,.91.81,2,2,0,0,1,.35,1.17,2.38,2.38,0,0,1-.21,1,2,2,0,0,1-.56.72,2.54,2.54,0,0,1-.82.42,3.53,3.53,0,0,1-1,.14,2.91,2.91,0,0,1-.92-.15,2.65,2.65,0,0,1-.81-.44,2.1,2.1,0,0,1-.56-.69,2,2,0,0,1-.21-.93,2.23,2.23,0,0,1,.16-.9A1.67,1.67,0,0,1,40,91.5a1.77,1.77,0,0,1,.64-.33,2.65,2.65,0,0,1,.81-.11h.32v3.19a3.76,3.76,0,0,0,.86-.1,2,2,0,0,0,.68-.28,1.36,1.36,0,0,0,.45-.5,1.51,1.51,0,0,0,.16-.73,1.32,1.32,0,0,0-.2-.75,2.12,2.12,0,0,0-.73-.61ZM41.35,92a4,4,0,0,0-.58,0,2.63,2.63,0,0,0-.53.15,1.08,1.08,0,0,0-.36.31.87.87,0,0,0-.14.5,1.06,1.06,0,0,0,.42.86,2.05,2.05,0,0,0,1.19.37Z"/><path d="M42,87a1.21,1.21,0,0,1,.41-.3,1.33,1.33,0,0,1,.56-.11,1.38,1.38,0,0,1,1.09.5,2.08,2.08,0,0,1,.27,2.07,2.51,2.51,0,0,1-.27.51l.31.09v.37l-1.67.05v-.34a1.64,1.64,0,0,0,.44-.17,1.83,1.83,0,0,0,.46-.3,1.67,1.67,0,0,0,.37-.46,1.21,1.21,0,0,0,.14-.6,1.1,1.1,0,0,0-.21-.72.74.74,0,0,0-.61-.25.68.68,0,0,0-.36.08.92.92,0,0,0-.26.23,2.13,2.13,0,0,0-.2.4c-.06.16-.12.33-.18.52a4.18,4.18,0,0,1-.19.51,1.6,1.6,0,0,1-.28.48,1.26,1.26,0,0,1-1,.49,1.33,1.33,0,0,1-1-.44,1.62,1.62,0,0,1-.41-1.18,2.28,2.28,0,0,1,.07-.57,1.86,1.86,0,0,1,.18-.48l-.26-.12v-.35l1.55-.07v.33a1.56,1.56,0,0,0-.85.45,1.16,1.16,0,0,0-.32.82.93.93,0,0,0,.2.63.61.61,0,0,0,.49.23.77.77,0,0,0,.36-.07A.68.68,0,0,0,41,89a1.81,1.81,0,0,0,.19-.37c.05-.15.12-.33.19-.55a5.36,5.36,0,0,1,.24-.6A2,2,0,0,1,42,87Z"/><path d="M43.19,81.38a2.56,2.56,0,0,1,.91.81,2,2,0,0,1,.35,1.17,2.32,2.32,0,0,1-.21,1,2,2,0,0,1-.56.72,2.2,2.2,0,0,1-.82.42,3.53,3.53,0,0,1-1,.14,2.91,2.91,0,0,1-.92-.15,2.62,2.62,0,0,1-.81-.43,2.14,2.14,0,0,1-.56-.7,2,2,0,0,1-.21-.92,2.23,2.23,0,0,1,.16-.9A1.59,1.59,0,0,1,40,82a2,2,0,0,1,.64-.34,3,3,0,0,1,.81-.11h.32v3.19a3.79,3.79,0,0,0,.86-.09,2,2,0,0,0,.68-.29,1.33,1.33,0,0,0,.45-.49,1.55,1.55,0,0,0,.16-.74,1.32,1.32,0,0,0-.2-.75,2,2,0,0,0-.73-.6Zm-1.84,1.08a4,4,0,0,0-.58.05,1.76,1.76,0,0,0-.53.15,1,1,0,0,0-.36.31.85.85,0,0,0-.14.5,1,1,0,0,0,.42.85,2,2,0,0,0,1.19.37Z"/><path d="M40.12,76.94a.84.84,0,0,1,.45.12.43.43,0,0,1,.19.38.61.61,0,0,1-.14.42.46.46,0,0,1-.31.14l-.2,0-.18,0a1.17,1.17,0,0,0,.19.54,1.55,1.55,0,0,0,.53.52h2.8a.58.58,0,0,0,.28-.06.49.49,0,0,0,.16-.21,1.18,1.18,0,0,0,.07-.32c0-.13,0-.24,0-.33h.32v2.54H44a1.79,1.79,0,0,1,0-.23,1.12,1.12,0,0,0,0-.21.37.37,0,0,0-.16-.21.55.55,0,0,0-.28-.06h-3a.66.66,0,0,0-.3.07.56.56,0,0,0-.23.2.63.63,0,0,0-.09.22,1.12,1.12,0,0,0,0,.27h-.33l-.1-1.6.06-.07h.68v0a2.25,2.25,0,0,1-.6-.68,1.46,1.46,0,0,1-.2-.68.65.65,0,0,1,.2-.5A.76.76,0,0,1,40.12,76.94Z"/><path d="M39.8,71.58A1.29,1.29,0,0,0,40,72a.93.93,0,0,0,.42.34l1.37.6,1.49.64.53.2.59.21v.38l-2.09.85L40.33,76a.82.82,0,0,0-.35.32,1.21,1.21,0,0,0-.15.44H39.5V74.55h.35a1.34,1.34,0,0,0,.06.36c0,.15.09.22.15.22l.08,0,.13,0,1.4-.56,1.43-.6-1-.44-1.39-.57-.25-.1a.62.62,0,0,0-.23,0,.19.19,0,0,0-.15.08.88.88,0,0,0-.12.19c0,.08-.05.15-.07.22a.67.67,0,0,0,0,.18H39.5V71.58Z"/><path d="M43.19,66.89a2.38,2.38,0,0,1,.91.81,2,2,0,0,1,.35,1.17,2.31,2.31,0,0,1-.21,1,2,2,0,0,1-.56.72,2.37,2.37,0,0,1-.82.43,3.53,3.53,0,0,1-1,.14A2.91,2.91,0,0,1,41,71a2.65,2.65,0,0,1-.81-.44,2.21,2.21,0,0,1-.56-.69,2.05,2.05,0,0,1-.21-.93,2.23,2.23,0,0,1,.16-.9,1.67,1.67,0,0,1,.46-.61,2,2,0,0,1,.64-.34,3,3,0,0,1,.81-.11h.32v3.19a3.79,3.79,0,0,0,.86-.09,2,2,0,0,0,.68-.28,1.44,1.44,0,0,0,.45-.5,1.54,1.54,0,0,0,.16-.73,1.32,1.32,0,0,0-.2-.75,2,2,0,0,0-.73-.61ZM41.35,68a4,4,0,0,0-.58,0,1.76,1.76,0,0,0-.53.15,1.08,1.08,0,0,0-.36.31.87.87,0,0,0-.14.5,1,1,0,0,0,.42.85,2,2,0,0,0,1.19.37Z"/><path d="M29.54,87.34q.62,9.6.83,19.2c.17,6.4.21,12.8.23,19.19s-.06,12.8-.23,19.2-.42,12.8-.83,19.2q-.62-9.6-.83-19.2c-.17-6.4-.21-12.8-.23-19.2s.07-12.79.23-19.19S29.13,93.74,29.54,87.34Z"/></svg>