<svg id="Ebene_2" data-name="Ebene 2" xmlns="http://www.w3.org/2000/svg" viewBox="0 0 56.69 170.08"><path d="M50.23,21.05l.4.14c.23-.69.35-2.14-1.42-4.13-2.77-2.82-6.86-2.65-7.74-2.58a16.11,16.11,0,0,0-3.1-5C36.5,7.69,33.79,7,32.78,7.7a1.47,1.47,0,0,0-.55,1.76l.39-.15A1.06,1.06,0,0,1,33,8.05c.76-.5,3.27,0,5,1.77a16.33,16.33,0,0,1,3.06,5l.06.15.17,0s4.65-.51,7.54,2.43C50.52,19.18,50.43,20.45,50.23,21.05Z"/><path d="M53,27a7,7,0,0,1,.41,5.38c-1,2.79-4.14,5.26-4.17,5.28l-.11.09,0,.13c0,.05,1.11,4.5.7,6.41s-2.19,4.92-2.81,4.92h-.8v.43h.8c1,0,2.83-3.42,3.23-5.26s-.49-5.69-.68-6.47a15,15,0,0,0,4.2-5.38,7.35,7.35,0,0,0-.43-5.74Z"/><path d="M55.18,23.85c.45-.34,1-.91,1-1.22a.22.22,0,0,0-.13-.2,3,3,0,0,0-1.37,0,5.93,5.93,0,0,0,0-.61.18.18,0,0,0-.07-.15.2.2,0,0,0-.15-.06,5.28,5.28,0,0,0-1.84.45,4.93,4.93,0,0,0,0-.59.21.21,0,0,0-.08-.16.2.2,0,0,0-.17-.05,2.52,2.52,0,0,0-.64.21,2.32,2.32,0,0,0,.07-.77c-.07-1.17-1-4.47-7.87-9.85C37.91,6.06,34.47,6.4,33,7a3.38,3.38,0,0,0-1.25.87,4.19,4.19,0,0,0-.25-1.64.2.2,0,0,0-.15-.13.19.19,0,0,0-.19,0,2.87,2.87,0,0,1-.31.2,4.83,4.83,0,0,0-.24-2.14.2.2,0,0,0-.13-.12.19.19,0,0,0-.18,0,1.58,1.58,0,0,0-.53.68A9.44,9.44,0,0,0,28.65,2.7a.21.21,0,0,0-.16-.08.19.19,0,0,0-.17.08,8,8,0,0,0-1,2.3,2.24,2.24,0,0,0-.66-.49.22.22,0,0,0-.18,0,.19.19,0,0,0-.11.14,9,9,0,0,0,0,2.31,2.76,2.76,0,0,0-.57-.29.18.18,0,0,0-.16,0,.16.16,0,0,0-.11.13,3.09,3.09,0,0,0,.08,1c-2.55-2.07-10,2.17-12.54,4h0c-.29.22-7.19,5.34-7.45,8.83a2.39,2.39,0,0,0,.17,1.08,1.32,1.32,0,0,0-.89.13.2.2,0,0,0-.09.21,1.61,1.61,0,0,1,0,.38,3.43,3.43,0,0,0-2-.29.2.2,0,0,0-.15.25,1.32,1.32,0,0,0,.26.5.44.44,0,0,1,.08.11,3.2,3.2,0,0,0-2.47.69.23.23,0,0,0,0,.25A6.13,6.13,0,0,0,2,25.2a1.77,1.77,0,0,0-.76.72.21.21,0,0,0,.05.26,5.28,5.28,0,0,0,1.91.39,1.34,1.34,0,0,0-.56.69.21.21,0,0,0,.12.25,4.52,4.52,0,0,0,1.41.18,2.13,2.13,0,0,0-.64.66c-1.28,1.94-.93,7,.88,13,2.05,6.71,5.86,9.42,7.78,9.13l.08,0a9.43,9.43,0,0,0-.67,1.24.22.22,0,0,0,.08.25,1.54,1.54,0,0,0,.61.22A4.48,4.48,0,0,0,11.49,54a.2.2,0,0,0,.14.19.84.84,0,0,0,.62,0,5,5,0,0,0-.35,2,.28.28,0,0,0,.11.15l.1,0a.15.15,0,0,0,.09,0A7,7,0,0,0,14,55.22c0,.05,0,.1,0,.15a1.29,1.29,0,0,0,.09.45.23.23,0,0,0,.23.13,3.6,3.6,0,0,0,1.52-1.24.35.35,0,0,0,.06.14.22.22,0,0,0,.22.09A2.56,2.56,0,0,0,17.35,54c.22,2.41,4.16,3.63,12.38,3.84h.71c5.55,0,9.12-1.73,10.63-3.39a3,3,0,0,0,.7-1.17c.36.37,1,.82,1.36.76a.22.22,0,0,0,.16-.15.5.5,0,0,0,0-.16,2.8,2.8,0,0,0,1.28.9h0a.21.21,0,0,0,.19-.13c.07-.15.16-.28.23-.4l0-.05c.35.25,1.05.7,1.51.54a.21.21,0,0,0,.14-.18,3,3,0,0,0-.22-1.3.83.83,0,0,0,.36,0,.33.33,0,0,0,.2-.2.21.21,0,0,0,0-.11,5.34,5.34,0,0,0-.85-1.54c-.06-.09-.11-.18-.17-.26a.69.69,0,0,0,.32-.05.21.21,0,0,0,.11-.18.8.8,0,0,0,0-.26,1.44,1.44,0,0,0,.84-.12c1.91-.81,5-5.06,6.77-10.79,1.59-5.75,1.59-11.11,0-13.08a.26.26,0,0,0,0-.1v-.23a4,4,0,0,0,0-.85,5.14,5.14,0,0,0,1.56-.76.23.23,0,0,0,0-.24A1.49,1.49,0,0,0,55.18,23.85Zm-23.75-10a.2.2,0,0,0-.21.06.15.15,0,0,1-.06,0,16,16,0,0,0,.64-2.09.22.22,0,0,0-.07-.2.2.2,0,0,0-.21,0,1.64,1.64,0,0,1-.27.06,8.28,8.28,0,0,0,.45-1.12A3.68,3.68,0,0,1,32.4,13a3.15,3.15,0,0,1-1.09,2.11,3.68,3.68,0,0,0,.28-1.1A.19.19,0,0,0,31.43,13.89Zm-5-6.32a.21.21,0,0,0,.25.08c.18-.06.17-.14.13-.69a10.88,10.88,0,0,1,0-1.91,1.17,1.17,0,0,1,.45.54.22.22,0,0,0,.21.14.19.19,0,0,0,.19-.16,12.94,12.94,0,0,1,.88-2.36,10.34,10.34,0,0,1,1,2.24.21.21,0,0,0,.18.16.21.21,0,0,0,.21-.11c.06-.1.11-.21.17-.33a2.14,2.14,0,0,1,.24-.45,3.86,3.86,0,0,1,0,2,.21.21,0,0,0,.26.27,2.49,2.49,0,0,0,.59-.29,4.49,4.49,0,0,1,.09,1.77.21.21,0,0,0,0,.14,2.13,2.13,0,0,0-.15.56,1.74,1.74,0,0,0,.29,1s0,0,0,.06a7.22,7.22,0,0,1-.67,1.68.2.2,0,0,0,0,.21.27.27,0,0,0,.18.11,2.54,2.54,0,0,0,.41,0,14.76,14.76,0,0,1-.71,2.11.2.2,0,0,0,0,.22.21.21,0,0,0,.21.07l.24-.07a3.86,3.86,0,0,1-.43,1.07.16.16,0,0,0,0,.1,4.25,4.25,0,0,1-1.46.44,3.27,3.27,0,0,0-.19-.55,2.19,2.19,0,0,1-.27-.83,2.53,2.53,0,0,1,.23-1,3.63,3.63,0,0,0,.27-1.16,3.63,3.63,0,0,0-.33-1.25A3.77,3.77,0,0,1,28.5,10a3.22,3.22,0,0,1,.32-1.15,3.61,3.61,0,0,0,.35-1.47,7.6,7.6,0,0,0-.29-1.82l-.4.12a7.7,7.7,0,0,1,.27,1.71,3.09,3.09,0,0,1-.33,1.3A3.48,3.48,0,0,0,28.08,10a4.19,4.19,0,0,0,.37,1.46,3.22,3.22,0,0,1,.3,1.08,3.15,3.15,0,0,1-.24,1,3,3,0,0,0-.25,1.15,2.62,2.62,0,0,0,.3,1c.07.16.12.29.16.41h-.07a3.58,3.58,0,0,1-2.34-1,.2.2,0,0,0,0-.15,2.08,2.08,0,0,1-.11-.41c.35,0,.42,0,.46-.1a.27.27,0,0,0,0-.26A7,7,0,0,1,26,12.43l.29.08a.21.21,0,0,0,.22-.34,9.51,9.51,0,0,1-.61-1.6s0,0-.05-.06c.37-.78.64-1.57.18-2.23a.2.2,0,0,0,0-.15C26,7.82,26,7.46,26,7.21A1.7,1.7,0,0,1,26.42,7.57ZM25.64,11c.09.29.23.66.35,1l-.07,0a.23.23,0,0,0-.27,0c-.22.21.22,1.44.52,2.1l-.16,0a.18.18,0,0,0-.18,0,.18.18,0,0,0-.07.17s0,.1,0,.22a3.1,3.1,0,0,1-.68-1.78A4.19,4.19,0,0,1,25.64,11ZM4,26.59a.2.2,0,0,0,.11-.24.19.19,0,0,0-.2-.16,11.53,11.53,0,0,1-2.18-.26,1.21,1.21,0,0,1,.8-.45.2.2,0,0,0,.19-.16.21.21,0,0,0-.1-.24A7.1,7.1,0,0,1,1,23.86a3.49,3.49,0,0,1,2.25-.34.25.25,0,0,0,.17,0,.24.24,0,0,0,.09-.15.84.84,0,0,0-.25-.65l-.08-.13A3,3,0,0,1,4.89,23a.21.21,0,0,0,.34-.17c0-.09,0-.18,0-.26a2.47,2.47,0,0,0,0-.39,1,1,0,0,1,.9.15h0l.1.12a3,3,0,0,0,1.87.76.23.23,0,0,0,.11.13,4.92,4.92,0,0,1,1.16.8.22.22,0,0,0,.24.06.21.21,0,0,0,.13-.2.52.52,0,0,1,.11-.35,9.62,9.62,0,0,1,1.36,1.06.18.18,0,0,0,.15.07h.06a.23.23,0,0,0,.15-.17c0-.07,0-.17,0-.28a2.59,2.59,0,0,1,.12-.78l.26.19A3.33,3.33,0,0,1,13.2,26.8c0,.11,0,.22,0,.34-.06,0-.82-.53-1.22-.74a8.43,8.43,0,0,0-2.51,0,12.24,12.24,0,0,1-1.4,0,5.35,5.35,0,0,1-.9-.73,6.43,6.43,0,0,0-1.08-.88,4.11,4.11,0,0,0-1.88-.06,3.3,3.3,0,0,1-.63,0c-.15,0-.33-.27-.39-.38l-.37.2a1.26,1.26,0,0,0,.66.6,3.19,3.19,0,0,0,.78,0,4.24,4.24,0,0,1,1.64,0,6.83,6.83,0,0,1,1,.81,3.58,3.58,0,0,0,1.09.83,8,8,0,0,0,1.52,0,12.06,12.06,0,0,1,2.29,0c.39.2,1.18.71,1.19.72l.22-.35a3.49,3.49,0,0,1-.94,1.94h0a16.32,16.32,0,0,1-2.36.22A1.43,1.43,0,0,1,10,29a.23.23,0,0,0,0-.24.2.2,0,0,0-.23-.06,10.57,10.57,0,0,1-2.08.08h0l-.08-.09A2.88,2.88,0,0,0,5.2,27.39.21.21,0,0,0,5,27.27a11,11,0,0,1-1.85-.09A2.79,2.79,0,0,1,4,26.59Zm4.86-3.36.52,0a4.29,4.29,0,0,1,2,.16,2.47,2.47,0,0,0-.17.76,6.09,6.09,0,0,0-1.31-.92.2.2,0,0,0-.23.06,1.07,1.07,0,0,0-.23.34A4.53,4.53,0,0,0,8.89,23.23Zm.51,6.26a.32.32,0,0,0,.22.2,2,2,0,0,0,.38,0,15.32,15.32,0,0,0,1.63-.13,3,3,0,0,1-1.45.46,2.74,2.74,0,0,1-2.13-.89c.52,0,1,0,1.37,0A.56.56,0,0,0,9.4,29.49Zm6.78,25a2.35,2.35,0,0,1,0-.46.21.21,0,0,0-.19-.23.22.22,0,0,0-.23.17,4.09,4.09,0,0,1-1.36,1.51.37.37,0,0,1,0-.11,1.17,1.17,0,0,0-.23-.67.2.2,0,0,0-.19-.08.21.21,0,0,0-.16.13,4,4,0,0,1-1.5,1,7.85,7.85,0,0,1,.41-1.7c.13-.39.17-.49,0-.59a.21.21,0,0,0-.27,0,1.15,1.15,0,0,1-.52.3,6.93,6.93,0,0,1,1-1.83.2.2,0,0,0,0-.28.21.21,0,0,0-.28,0,.74.74,0,0,1-.53,0c.2-.41.66-1.16.85-1.45,0,0,0-.06,0-.1a5.33,5.33,0,0,0,1.2-2.33,4,4,0,0,1,1.42-1.11c.32-.18.42-.24.39-.41a.27.27,0,0,0-.22-.18,1,1,0,0,1-.48-.18,3.58,3.58,0,0,1,1.31-.58l.15,0a.21.21,0,0,0,.15-.22,2.83,2.83,0,0,1,.26-.77,4,4,0,0,1,2.59.66l.12.09a5.37,5.37,0,0,0-1.77,1.39,3.38,3.38,0,0,0-.33,1.34,2.93,2.93,0,0,1-.46,1.55,2.26,2.26,0,0,1-1,.56,2.78,2.78,0,0,0-1.3.76,2.33,2.33,0,0,0-.32,1.58,2.19,2.19,0,0,1-.05.7l0,.05a1.07,1.07,0,0,1-.67.4l.06.42a1.5,1.5,0,0,0,1-.57c.19-.2.18-.56.17-1a2.15,2.15,0,0,1,.22-1.29,2.37,2.37,0,0,1,1.12-.63,2.78,2.78,0,0,0,1.21-.68,3.25,3.25,0,0,0,.56-1.79,3.19,3.19,0,0,1,.27-1.16,5.46,5.46,0,0,1,1.65-1.27l-.15-.29a3.6,3.6,0,0,1,1.29,1.58s0,.05,0,.08a6.2,6.2,0,0,1-.1,1,1.22,1.22,0,0,1-.28-.16.22.22,0,0,0-.38.16,5.64,5.64,0,0,1-.21,1.92.54.54,0,0,1-.19,0,.89.89,0,0,0-.33,0,.2.2,0,0,0-.17.23,3.63,3.63,0,0,1-.07,1.07,5.3,5.3,0,0,0-2,2.28.2.2,0,0,0-.15.12A2.81,2.81,0,0,1,16.18,54.46ZM14.8,45.92a.71.71,0,0,0,.42.44,6.91,6.91,0,0,0-.78.5C14.55,46.53,14.67,46.21,14.8,45.92Zm.14-.29a2.51,2.51,0,0,1,.34-.54,3.27,3.27,0,0,1,1.34-.72,3.45,3.45,0,0,0-.16.52h0A3.47,3.47,0,0,0,14.94,45.63Zm6.53,2.79c0,.81-.73,1.45-1.52,2.09,0-.16,0-.33,0-.47a.58.58,0,0,0,.56-.08l.06-.07a5.43,5.43,0,0,0,.29-1.79,1.16,1.16,0,0,0,.31.11.21.21,0,0,0,.2-.09.58.58,0,0,0,.08-.21A4.3,4.3,0,0,1,21.47,48.42Zm25.15,4.27a1.51,1.51,0,0,1-.42-.1.23.23,0,0,0-.25.06.23.23,0,0,0,0,.26,2.67,2.67,0,0,1,.37,1.29,2.86,2.86,0,0,1-1.15-.63.23.23,0,0,0-.21,0,.18.18,0,0,0-.14.14,1.53,1.53,0,0,1-.13.21l-.17.29a4.25,4.25,0,0,1-1.35-1.32.21.21,0,0,0-.28-.09.2.2,0,0,0-.11.26,1.88,1.88,0,0,1,.13.57,2.63,2.63,0,0,1-1-.78.14.14,0,0,0-.11-.09,2.12,2.12,0,0,0-1.16-1.38.18.18,0,0,0,0-.1A7.86,7.86,0,0,1,40,49.72a.22.22,0,0,0-.2-.16.17.17,0,0,0-.19.13,3.51,3.51,0,0,1-.26.25A11.12,11.12,0,0,1,38.88,48a.21.21,0,0,0-.2-.19.21.21,0,0,0-.22.17,1.1,1.1,0,0,1-.21.5,15.52,15.52,0,0,1-.44-1.73s0-.06-.05-.08a5.35,5.35,0,0,1,.78-1.44,5,5,0,0,0,.93,1.33,11.07,11.07,0,0,0,1,.75,7.53,7.53,0,0,1,1.25,1,3.52,3.52,0,0,1,.39,1.3,4.94,4.94,0,0,0,.32,1.19,5.3,5.3,0,0,0,1.46,1.29,4.83,4.83,0,0,1,.74.57l.31-.29a5.56,5.56,0,0,0-.8-.63,5.14,5.14,0,0,1-1.33-1.14,4.8,4.8,0,0,1-.28-1.07,3.68,3.68,0,0,0-.48-1.49A7.68,7.68,0,0,0,40.72,47a11.87,11.87,0,0,1-1-.72A4.5,4.5,0,0,1,38.87,45l-.09,0a3.68,3.68,0,0,1,1.62-.85s0,.06.07.08c.41.19,1.05.52,1.44.75l-.08,0-.32.12a.2.2,0,0,0-.15.23.21.21,0,0,0,.21.18,6.54,6.54,0,0,1,2,.92,2.38,2.38,0,0,1-.48.12.2.2,0,0,0-.18.19.23.23,0,0,0,.14.23,3.36,3.36,0,0,1,1.36,1l.21.21,0,0a2.75,2.75,0,0,0,1.24,2,1.78,1.78,0,0,1,.12.33l-.34,0a.21.21,0,0,0-.2.08.2.2,0,0,0,0,.22,6,6,0,0,0,.4.64A9.15,9.15,0,0,1,46.62,52.69Zm-9.09-5.21A6.16,6.16,0,0,0,38,48.9a.22.22,0,0,0,.18.1.56.56,0,0,0,.42-.21A13.59,13.59,0,0,0,39,50.36a3.6,3.6,0,0,1-1.29-1.31A2.17,2.17,0,0,1,37.53,47.48ZM40,51l0,0-.76-.44s.09,0,.13,0l.33-.29C39.76,50.45,39.88,50.72,40,51Zm2.27-5.68.14,0a.19.19,0,0,0,.14-.15.21.21,0,0,0,0-.2,6.29,6.29,0,0,0-1.32-.8,3.3,3.3,0,0,1,2.12,1,4,4,0,0,1,.87,1.23A8.29,8.29,0,0,0,42.27,45.29Zm1.95,1.18a5.67,5.67,0,0,1,.3,1,4,4,0,0,0-.75-.63l.34-.12a.21.21,0,0,0,.14-.15S44.23,46.51,44.22,46.47Zm9.45-7C51.91,45,48.91,49.2,47.14,50a.89.89,0,0,1-.72,0A2.56,2.56,0,0,1,45,47.79a5.07,5.07,0,0,0-1.42-3,3.51,3.51,0,0,0-2.68-1.17,3.9,3.9,0,0,0-2.62,1.22c-.79.89-1.78,3.13-1,4.39a5.33,5.33,0,0,0,2.43,2.06c.84.46,1.56.85,1.65,1.5a2,2,0,0,1-.66,1.34c-1.51,1.67-5.21,3.39-11,3.25-7.81-.2-11.72-1.32-12-3.42.57,1.26,2.31,2,5.06,2H23c2.44,0,5.92-1.9,6.57-2.27a17.06,17.06,0,0,0,6.81,2h.08c3.16,0,4.74-2,4.74-2.48a2.59,2.59,0,0,0-.23-.83l-.39.18a2.23,2.23,0,0,1,.19.64,4.88,4.88,0,0,1-4.31,2.06h-.08c-3,0-6.67-2-6.71-2l-.11,0-.1.06S25.49,55.61,23,55.61h-.11c-1.86,0-4.2-.43-4.75-1.92l-.34.13c0-1,1-1.82,2-2.62s2.07-1.6,2.14-2.75A4,4,0,0,0,20,44.58a4.48,4.48,0,0,0-2.46-.76,3.73,3.73,0,0,0-2.52,1,7.52,7.52,0,0,0-1.13,2.5C13.44,48.57,13,49.9,12.14,50c-1.53.24-5.27-2.13-7.32-8.84C3.46,36.73,2.93,32.8,3.3,30.37a14.09,14.09,0,0,0,1.8,5.56,30.26,30.26,0,0,0,3.13,3.46c-.07.51-.37,2.66-.37,3.7s.4,4.15,1.14,5a3.25,3.25,0,0,0,2.39,1.52l0-.43c-.92,0-1.44-.59-2.08-1.36s-1-3.57-1-4.78.38-3.72.38-3.75l0-.11-.08-.07a29.55,29.55,0,0,1-3.15-3.47,13.05,13.05,0,0,1-1.74-5.51,1.63,1.63,0,0,1,.77-1.28l-.09-.19-.1-.19a1.88,1.88,0,0,0-.76.82,3.35,3.35,0,0,1,.35-.76,1.59,1.59,0,0,1,1.18-.76c.95-.15,1.52.44,2.17,1.13a3.8,3.8,0,0,0,3,1.53,3.69,3.69,0,0,0,3.41-3.68,3.76,3.76,0,0,0-1.34-3.38,3.69,3.69,0,0,0-2.9-.64,3.46,3.46,0,0,1-2.82-.62,1.72,1.72,0,0,1-.51-1.44c.24-3.3,7.19-8.46,7.27-8.52A30.19,30.19,0,0,1,21.62,8a8.56,8.56,0,0,0-2.95,1.87c-2.59,2.38-3,4.43-3.12,5.07a11.81,11.81,0,0,0-6.18,2c-1.53.94-2.89,2.82-2.89,3.65A3.1,3.1,0,0,0,6.79,22l.38-.19a2.72,2.72,0,0,1-.26-1.14,6.16,6.16,0,0,1,2.7-3.29,11.67,11.67,0,0,1,6.13-2H16v-.21s.09-2.28,3-5A7.1,7.1,0,0,1,23.88,8c.36,0,.79,0,.87.32l.41-.11A.69.69,0,0,0,25,7.93a1.67,1.67,0,0,1,.55.39c.61.56.33,1.26-.2,2.35a4.9,4.9,0,0,0-.67,2.06,3.87,3.87,0,0,0,1.24,2.58,4,4,0,0,0,2.74,1.24h0a4,4,0,0,0,4.15-3.47A4.24,4.24,0,0,0,32,10.31a2.34,2.34,0,0,1-.47-1.13,2.36,2.36,0,0,1,1.57-1.76c1.15-.48,4.48-1.07,10.63,3.73,6.75,5.27,7.64,8.43,7.71,9.54a1.3,1.3,0,0,1-.17.87,8.24,8.24,0,0,1-3.35.65,12.86,12.86,0,0,0-2.76.41,2.12,2.12,0,0,0-1.28,1.65.09.09,0,0,0,0,.05,6.72,6.72,0,0,0,0,2.89,4,4,0,0,0,3.71,2.42c1.18-.11,2.18-1.15,3.06-2.07.69-.72,1.34-1.4,1.89-1.42a1.38,1.38,0,0,1,1.17.56C55,28.26,55.4,33.14,53.67,39.44ZM45.89,23.26a.24.24,0,0,0-.22,0l-1.19.64a1.47,1.47,0,0,1,.83-.86,6.94,6.94,0,0,1,1.46-.27,9.18,9.18,0,0,0-.82.83l0-.1A.21.21,0,0,0,45.89,23.26Zm2.26-.64c-.2.13-.38.27-.52.38,0-.09-.05-.19-.08-.3v0l.42,0Zm-.06,5.66a6.19,6.19,0,0,0,1.29,0,3.36,3.36,0,0,1-1.8,1A2.43,2.43,0,0,1,46.42,29h.34a3.58,3.58,0,0,0,1.35-.2.21.21,0,0,0,.12-.23A.83.83,0,0,0,48.09,28.28Zm5.7-3.35a.23.23,0,0,0-.2.14.2.2,0,0,0,.06.22,3,3,0,0,1,.06.79,1.64,1.64,0,0,0-1.17-.36c-.71,0-1.39.73-2.17,1.54L50,27.7h-.08a5.52,5.52,0,0,1-2.39.08.21.21,0,0,0-.24.16.22.22,0,0,0,.14.25.91.91,0,0,1,.36.32,7.14,7.14,0,0,1-2.18,0h-.05a3.44,3.44,0,0,1-1.08-1.16h.11a5.58,5.58,0,0,0,1.62-.25,3.07,3.07,0,0,0,1.3-1.24c.31-.43.63-.88,1-1A6.11,6.11,0,0,1,50,24.84a4.88,4.88,0,0,0,1.91-.15,1.84,1.84,0,0,0,.74-.63,1,1,0,0,1,.4-.35,1.59,1.59,0,0,1,.93,0l.13-.41a2.09,2.09,0,0,0-1.2,0,1.27,1.27,0,0,0-.59.49,1.48,1.48,0,0,1-.6.51,5.25,5.25,0,0,1-1.7.11,6.27,6.27,0,0,0-1.7.08c-.47.13-.82.62-1.19,1.13s-.69,1-1.08,1.08a5.07,5.07,0,0,1-1.62.23l0,.32a1.11,1.11,0,0,1-.07-.16,6.3,6.3,0,0,1,0-2.62l1.18-.65c0,.28-.08.48-.08.48a.21.21,0,0,0,.13.23.22.22,0,0,0,.25-.06A9.35,9.35,0,0,1,47.18,23a1.1,1.1,0,0,1,0,.46.19.19,0,0,0,.11.21.21.21,0,0,0,.24,0A6.38,6.38,0,0,1,49,22.64a.19.19,0,0,0,.1-.1A6.65,6.65,0,0,0,51.36,22a.2.2,0,0,0,.2,0,5.06,5.06,0,0,1,.71-.32,2.6,2.6,0,0,1-.08.64.21.21,0,0,0,.32.27A4,4,0,0,1,54.3,22a1.43,1.43,0,0,1-.11.6.21.21,0,0,0,0,.27.21.21,0,0,0,.26,0,2.25,2.25,0,0,1,1.22-.14,4,4,0,0,1-1,.9.21.21,0,0,0-.11.19.19.19,0,0,0,.11.18,3,3,0,0,1,.49.32A5.88,5.88,0,0,1,53.79,24.93Z"/><path d="M43.22,35.69a1.6,1.6,0,0,0-.41-.41.18.18,0,0,0,0-.07.29.29,0,0,0,0-.22.18.18,0,0,0-.06-.09,2.76,2.76,0,0,0-.85-.38s0,0,0,0a.2.2,0,0,0,0-.21s0,0,0,0a1.25,1.25,0,0,0,.23-.27c.52-.94.43-3.64-.63-6.54s-2.81-4.95-4.08-5.31c0,0,0,0,0,0A.8.8,0,0,0,37.4,22l-.23-.29a2.41,2.41,0,0,0,.36-.76.22.22,0,0,0-.12-.21.6.6,0,0,0-.25,0h0a1.11,1.11,0,0,0,0-.76.2.2,0,0,0-.22-.08,1.42,1.42,0,0,0-.52.34l-.11-.15a.24.24,0,0,0-.15-.08A.24.24,0,0,0,36,20a2.76,2.76,0,0,0-.53.63l-.09-.11a.19.19,0,0,0-.15-.08.22.22,0,0,0-.17.07l-.12.15a1.67,1.67,0,0,0-.13-.2c-.5-.57-2-1.52-6.3-1.54h-.09c-3.92,0-5.21,1.23-5.63,2a1.6,1.6,0,0,0-.2.55,2.51,2.51,0,0,0-.5-.44.21.21,0,0,0-.19,0,.25.25,0,0,0-.11.12,2.68,2.68,0,0,0-.68-.64.23.23,0,0,0-.18,0,.25.25,0,0,0-.13.14.63.63,0,0,0,0,.27,3.79,3.79,0,0,0-.94-.42.19.19,0,0,0-.18,0,.21.21,0,0,0-.08.17,3.77,3.77,0,0,0,.26,1.11.87.87,0,0,0-.28,0,.22.22,0,0,0-.14.11.21.21,0,0,0,0,.19,4.46,4.46,0,0,0,.6.81l-.14,0a.22.22,0,0,0-.13.12.25.25,0,0,0,0,.17,1,1,0,0,0,.19.24c-1.79.34-3.38,4.67-3.64,5.59-.05.18-1.24,4.42-.24,6a1.18,1.18,0,0,0,.32.31.65.65,0,0,0-.24.3.22.22,0,0,0,0,.23h0a1.78,1.78,0,0,0-.79.51.2.2,0,0,0,0,.29.65.65,0,0,0,.16.09,1.6,1.6,0,0,0-.65,1,.2.2,0,0,0,.16.19,2.93,2.93,0,0,0,.84.05.88.88,0,0,0,0,.42.2.2,0,0,0,.19.18,1.67,1.67,0,0,0,.75-.32.84.84,0,0,0,0,.27.23.23,0,0,0,.2.13h.05a1.89,1.89,0,0,0,.47-.26,1.15,1.15,0,0,0,0,.26c.11,1.47,2.36,3.55,4.43,5a8.18,8.18,0,0,0,4.53,1.73A2.44,2.44,0,0,0,28,45.07a3.81,3.81,0,0,0,.09.53.21.21,0,0,0,.22.14.85.85,0,0,0,.22,0,2.14,2.14,0,0,0,.26.91.2.2,0,0,0,.23.06.42.42,0,0,0,.17-.1,2.22,2.22,0,0,0,.44.78.24.24,0,0,0,.14,0h0a.21.21,0,0,0,.15-.11,4.26,4.26,0,0,0,.34-.81l.12.09a.21.21,0,0,0,.26,0,1.65,1.65,0,0,0,.24-.89.23.23,0,0,0,.17-.08,1.26,1.26,0,0,0,.23-.65c.95.72,2.91,0,6.14-2.42,2.47-1.81,3.45-3.75,3.55-5a1.76,1.76,0,0,0,0-.58H41a.89.89,0,0,0,.61-.17.25.25,0,0,0,.06-.13,1.17,1.17,0,0,0,.7-.08.21.21,0,0,0,.09-.23.69.69,0,0,1,0-.13,1,1,0,0,0,.75-.3A.24.24,0,0,0,43.22,35.69ZM41.16,27.6a13.17,13.17,0,0,1,.9,5,6.81,6.81,0,0,0-.51-2.08,10,10,0,0,0-2.26-2.38,7.82,7.82,0,0,0,0-3.46,3.82,3.82,0,0,0-1.74-2.1C38.54,23.05,40,24.8,41.16,27.6ZM35,21.37a.19.19,0,0,0,.12-.11l.1-.19.06.1a.21.21,0,0,0,.41,0,1.85,1.85,0,0,1,.42-.65.34.34,0,0,1,.05.11.22.22,0,0,0,.18.21.23.23,0,0,0,.23-.13.81.81,0,0,1,.23-.27,1.93,1.93,0,0,1-.1.43.2.2,0,0,0,0,.21.22.22,0,0,0,.2.08l.11,0a2.11,2.11,0,0,1-.28.47.2.2,0,0,0-.06.23.23.23,0,0,0,.15.14l.1.11a.8.8,0,0,0-.44.22c-.32.26-.37.77-.43,1.37,0,.09,0,.18,0,.27h0a2.73,2.73,0,0,1-.9.74A.2.2,0,0,0,35,25a.21.21,0,0,0,.25.12,3.75,3.75,0,0,1-.71.51h0a1.88,1.88,0,0,1-.55-.07,3,3,0,0,0,.5-.54,1.61,1.61,0,0,0,.15-1,1.59,1.59,0,0,1,.06-.63,3.3,3.3,0,0,1,.59-.49,2.43,2.43,0,0,0,.75-.69,1,1,0,0,0,.12-.53.39.39,0,0,1,0-.21.81.81,0,0,1,.33-.25l-.15-.4a1.16,1.16,0,0,0-.53.42.69.69,0,0,0-.11.43.65.65,0,0,1-.07.35,2.54,2.54,0,0,1-.62.54,3.19,3.19,0,0,0-.68.58,1.5,1.5,0,0,0-.14.89,1.39,1.39,0,0,1-.08.71,2.52,2.52,0,0,1-.54.56,3.17,3.17,0,0,1-.66-.86c0-.09.1-.24.17-.39l0,0a.21.21,0,0,0,.24.11.23.23,0,0,0,.16-.21,5.5,5.5,0,0,1,.05-.84h0a.22.22,0,0,0,.22.1.21.21,0,0,0,.18-.17,2.88,2.88,0,0,1,.26-.79.2.2,0,0,0,0-.07A3.39,3.39,0,0,0,35,21.37Zm.84,3.51s0-.05,0-.06l0,0,.12-.1Zm-2.74-1.49a.3.3,0,0,1,.08-.08.17.17,0,0,0,0,.07h-.07ZM20,22.24l.08,0a.21.21,0,0,0,.25,0,.2.2,0,0,0,.06-.24A7.54,7.54,0,0,1,20,21a5,5,0,0,1,.89.51.21.21,0,0,0,.34-.2.4.4,0,0,0,0-.15,1.54,1.54,0,0,1,.37.54.19.19,0,0,0,.17.14.19.19,0,0,0,.2-.08l.11-.19a2.26,2.26,0,0,1,.45.56s0,0,.06.05a1.18,1.18,0,0,0,.12.28,1.06,1.06,0,0,0,.41.31h0a4.37,4.37,0,0,1,.25.87.21.21,0,0,0,.13.16.18.18,0,0,0,.2,0l.06,0a8.54,8.54,0,0,1,.31.91.22.22,0,0,0,.16.16.21.21,0,0,0,.17,0,1.52,1.52,0,0,1,.09.33s0,0,0,.06a2.26,2.26,0,0,1-.35.52,1.32,1.32,0,0,0-.2-.12.94.94,0,0,1-.33-.23,1,1,0,0,1-.19-.42,2,2,0,0,0-.28-.59,1.91,1.91,0,0,0-.54-.42,2,2,0,0,1-.52-.39,1.59,1.59,0,0,1-.21-.53,2,2,0,0,0-.34-.74,3.77,3.77,0,0,0-.7-.66l-.24.35a4.06,4.06,0,0,1,.62.58,1.57,1.57,0,0,1,.25.59,1.8,1.8,0,0,0,.29.67,2,2,0,0,0,.63.49,1.77,1.77,0,0,1,.43.32A1.63,1.63,0,0,1,23,25a1.69,1.69,0,0,0,.28.57,1.32,1.32,0,0,0,.46.33l0,0a1.71,1.71,0,0,1-1.05.23s0,0,0-.05l-.06,0a.23.23,0,0,0,.09-.19.22.22,0,0,0-.13-.2,3.86,3.86,0,0,1-.64-.38.21.21,0,0,0,.11-.2.19.19,0,0,0-.17-.19,7.2,7.2,0,0,1-.71-.44h0a1.17,1.17,0,0,0-.63-.93.13.13,0,0,0-.05-.09l-.16-.16h0a.22.22,0,0,0,.25-.09c.09-.15,0-.24-.17-.44S20.12,22.45,20,22.24Zm4.59,1.9a.22.22,0,0,0-.22,0,7,7,0,0,0-.33-.86.23.23,0,0,0-.18-.12.29.29,0,0,0-.14,0c0-.07,0-.13-.05-.18a1.53,1.53,0,0,1,.78.63,1.46,1.46,0,0,1,.23.65A.36.36,0,0,0,24.55,24.14Zm-3.18,1.14a1.33,1.33,0,0,1-.05-.19l.07.05a.36.36,0,0,0,0,.09S21.37,25.26,21.37,25.28Zm.72.75a1.22,1.22,0,0,1-.54-.38.81.81,0,0,1-.1-.21,2.72,2.72,0,0,0,.68.5.19.19,0,0,0,0,.09Zm-5.42,3.16A16.43,16.43,0,0,1,18,26c0,.16-.08.34-.11.52a4.65,4.65,0,0,0,.29,3,6,6,0,0,0-1.81,2.73,3.71,3.71,0,0,0-.11,2.28C15.59,33,16.66,29.23,16.67,29.19Zm0,5.89a.94.94,0,0,1-.32-.28l-.08-.16.06.11A1.74,1.74,0,0,0,16.7,35.08Zm.64,2.55a.21.21,0,0,0-.26,0,6.84,6.84,0,0,1-.75.47.34.34,0,0,1,.11-.17.21.21,0,0,0,0-.25.22.22,0,0,0-.22-.12,4.2,4.2,0,0,1-.88,0,1.74,1.74,0,0,1,.69-.65.25.25,0,0,0,.12-.13.28.28,0,0,0,0-.18.49.49,0,0,0-.24-.19,1.4,1.4,0,0,1,.6-.21.21.21,0,0,0,.19-.12.2.2,0,0,0,0-.22l-.07-.11-.07-.09a.32.32,0,0,1,.26-.12h0l.07,0a1.51,1.51,0,0,0,1-.27l.06,0h0a2.79,2.79,0,0,1,.68,0,.21.21,0,0,0,.22-.09.23.23,0,0,0,0-.25h0a4.13,4.13,0,0,1,.73,0,.21.21,0,0,0,.21-.32,1.05,1.05,0,0,1-.08-.13,1.57,1.57,0,0,1-.12-.19h0a1.6,1.6,0,0,1,1.34.81c-.17,0-.41,0-.55.07s-.42.22-1.08.78c-.21.18-.47.4-.52.43a2.76,2.76,0,0,1-.55,0,3.63,3.63,0,0,0-.73,0,2,2,0,0,0-.83.58l-.21.2a.4.4,0,0,1-.19,0l-.17.39a.77.77,0,0,0,.33.08.65.65,0,0,0,.2,0,1.49,1.49,0,0,0,.33-.28,2.42,2.42,0,0,1,.62-.48,3.69,3.69,0,0,1,.62,0,1.79,1.79,0,0,0,.74,0,3.45,3.45,0,0,0,.64-.49,6.77,6.77,0,0,1,.87-.69c.22,0,.69-.08.69-.08v0a1.68,1.68,0,0,1,.1.72h0c-.22.23-.55.55-.74.72v0a.21.21,0,0,0-.38-.08,5.08,5.08,0,0,1-.76.63h0a1.62,1.62,0,0,0-1.36.22.21.21,0,0,0-.17,0c-.16.13-.38.29-.56.41l.11-.25A.22.22,0,0,0,17.34,37.63ZM19.2,34.4s0,.07,0,.11H19A1,1,0,0,1,19.2,34.4Zm1.21,3.06a1.78,1.78,0,0,1-.39.07l.22-.18a.27.27,0,0,0,.07.08Zm-1.57,2.87a7.51,7.51,0,0,0,1.77,1,14.07,14.07,0,0,0,2.3.42c.17.29.68,1.17,1,1.57A7.34,7.34,0,0,0,25.7,45a8.8,8.8,0,0,1-3.47-1.57A16.91,16.91,0,0,1,18.84,40.33Zm8.94,4.34a1.11,1.11,0,0,1-.31.2l-.21-.3c-.32.22-.62.2-1.18.08a6.1,6.1,0,0,1-1.85-1.56,18.18,18.18,0,0,1-1-1.62l-.05-.09h-.11A14.9,14.9,0,0,1,20.75,41a6.83,6.83,0,0,1-2.36-1.63.75.75,0,0,1-.09-.66L18,38.52a.66.66,0,0,1,.19-.43.77.77,0,0,1,.61-.25,3.61,3.61,0,0,1,.53,0,1.87,1.87,0,0,0,2-3,1.89,1.89,0,0,0-3.1-.31,1.72,1.72,0,0,1-1.25.6l.16-.33a1.27,1.27,0,0,1-.42-.35,3.19,3.19,0,0,1,.08-2.07,5.9,5.9,0,0,1,1.81-2.65l.17-.12-.12-.17a4,4,0,0,1-.32-2.86,3.57,3.57,0,0,1,1.26-2.34c.15-.12.28-.17.33-.13l.17-.24a.54.54,0,0,1,.18,0c.34,0,.43.3.56.92a2.64,2.64,0,0,0,.39,1.08,2.3,2.3,0,0,0,2.95.31,2.14,2.14,0,0,0,.61-2.82,2.22,2.22,0,0,0-1.23-.91,1.09,1.09,0,0,1-.49-.27A.77.77,0,0,1,23,22a.79.79,0,0,0,.31.32l.21-.36a.43.43,0,0,1-.19-.5,2.72,2.72,0,0,1,2.48-.8,8.32,8.32,0,0,1,2.73,1l.14.09.12-.12a5,5,0,0,1,3.7-1.34c1.21.23,1.52.78,1.6,1l.4-.14c-.13-.37-.55-1-1.94-1.29a5.26,5.26,0,0,0-3.94,1.35,8.19,8.19,0,0,0-2.76-1,4,4,0,0,0-2.22.39c.65-.56,2-1.21,4.87-1.2,4.32,0,5.63,1,6,1.41a.92.92,0,0,1,.19.3,4.41,4.41,0,0,1-1.12,1.26,6.28,6.28,0,0,0-1,1c-.55.83.5,2,.94,2.38a2.11,2.11,0,0,0,2.38-.19,2.91,2.91,0,0,0,.62-1.85c.05-.46.1-.94.28-1.09a.54.54,0,0,1,.5-.11l-.15.34a3.43,3.43,0,0,1,1.78,2,7.44,7.44,0,0,1,0,3.37l0,.13.11.09a10.51,10.51,0,0,1,2.25,2.32,5,5,0,0,1,.43,2.72l-.32.25.19.26a1.3,1.3,0,0,1-1-.44,2.7,2.7,0,0,0-1.55-.78,1.92,1.92,0,0,0-1.52.38,2.13,2.13,0,0,0-.71,1.39c0,.63.28,1.9,1,2.16a2.7,2.7,0,0,0,1.68.08,2.37,2.37,0,0,1,.82,0l-.16.32a1.21,1.21,0,0,1,.22.14,2.4,2.4,0,0,1-1.06,2.05,8.5,8.5,0,0,1-3.3,1.29l-.12,0,0,.11a8.61,8.61,0,0,1-1.9,2.91c-.74.54-1.76,1.1-2.39.71l-.09.14a2,2,0,0,1,0-1.55,2.27,2.27,0,0,0,0-1.86,2.1,2.1,0,0,0-2.07-1,2.17,2.17,0,0,0-2,1.73,3.64,3.64,0,0,0,.33,1.39C27.82,43.76,28.05,44.39,27.78,44.67ZM39.1,33.24l-.44.07a.11.11,0,0,0,0-.05s-.07-.07-.12-.1l.32,0A2.27,2.27,0,0,1,39.1,33.24ZM38,36.34s.07,0,.09,0a.52.52,0,0,0,.1-.11l.27.22A1.87,1.87,0,0,1,38,36.34Zm-7,4.95s0,0,0,0h0a.78.78,0,0,1,.12.4,3.79,3.79,0,0,0-.2-.34Zm-3.1,0-.05.07a.3.3,0,0,0,0-.08Zm2.95,3.74,0,0a.21.21,0,0,0-.37.21,1.93,1.93,0,0,1,0,.78.63.63,0,0,0-.27-.14.19.19,0,0,0-.2.06.22.22,0,0,0-.06.19,1.41,1.41,0,0,1-.18.64,5,5,0,0,1-.25-.62c-.07-.2-.13-.32-.29-.31A.22.22,0,0,0,29,46a4,4,0,0,1-.09-.73.22.22,0,0,0-.19-.22.2.2,0,0,0-.22.16.15.15,0,0,1-.06,0c0-.21-.06-.51-.08-.71,0,0,0,0,0,0a2.88,2.88,0,0,0-.25-1.32,2.05,2.05,0,0,1,.22-.83c.08-.18.13-.3,0-.4a.24.24,0,0,0-.27,0l0,0a3.22,3.22,0,0,1,.27-.43l.05-.07a.23.23,0,0,0,0-.26,1.28,1.28,0,0,1-.1-.29,1.89,1.89,0,0,1,1-.46,2.49,2.49,0,0,0-.22,1,2,2,0,0,0,.3.69,1.5,1.5,0,0,1,.29.7,1.08,1.08,0,0,1-.23.5,1.58,1.58,0,0,0-.3.76,1.25,1.25,0,0,0,.38.81l.18.21v.07a.43.43,0,0,1-.12.28l.31.29a.82.82,0,0,0,.23-.6c0-.17-.11-.32-.27-.52s-.3-.38-.29-.51a1.08,1.08,0,0,1,.24-.55,1.43,1.43,0,0,0,.29-.7,1.8,1.8,0,0,0-.34-1,1.42,1.42,0,0,1-.24-.51,2.56,2.56,0,0,1,.26-1h0a1.63,1.63,0,0,1,.69.19s0,0,0,0,.14.2.19.28a.21.21,0,0,0-.21.11.21.21,0,0,0,0,.25,2.93,2.93,0,0,1,.46.72.41.41,0,0,0-.17.11.22.22,0,0,0,0,.3,1.78,1.78,0,0,1,.27.38,2.78,2.78,0,0,0-.1,1.55.2.2,0,0,0,0,.11A1.43,1.43,0,0,1,30.83,45.06Zm6.34-2.91a14.56,14.56,0,0,1-4.52,2.55,5.52,5.52,0,0,0,1.44-.79,8.39,8.39,0,0,0,2-3,8.65,8.65,0,0,0,3.38-1.36,3.53,3.53,0,0,0,.63-.66A9.36,9.36,0,0,1,37.17,42.15Zm5.07-6.36a.24.24,0,0,0-.18.09.23.23,0,0,0,0,.2.64.64,0,0,1,0,.09v.08a2.19,2.19,0,0,1-.79-.12.22.22,0,0,0-.27.09.21.21,0,0,0,.06.28l.05,0a.85.85,0,0,1-.35,0h-.08a1.18,1.18,0,0,0-.91-.21s0,0,0,0a4.4,4.4,0,0,1-.72-.39.21.21,0,0,0-.25,0,.18.18,0,0,0-.08.2,4.31,4.31,0,0,1-.6-.52.21.21,0,0,0-.28,0,.22.22,0,0,0-.08.24c-.15-.11-.32-.26-.47-.39h0a2.64,2.64,0,0,1-.11-.59,2,2,0,0,0,.67.19,3.6,3.6,0,0,0,.65,0,4,4,0,0,1,.79,0,1.93,1.93,0,0,1,.51.37,2.69,2.69,0,0,0,.52.4,1.54,1.54,0,0,0,.61.09l.43,0h.46l.06-.42a3.17,3.17,0,0,0-.54,0,2.74,2.74,0,0,1-.84,0A2.75,2.75,0,0,1,40,35a1.91,1.91,0,0,0-.7-.48,3.72,3.72,0,0,0-.9,0c-.22,0-.45,0-.6,0a2.41,2.41,0,0,1-.67-.21,1.71,1.71,0,0,1,.32-.63s0,0,0,0c.19,0,.41-.09.59-.11a.21.21,0,0,0,0,.26.22.22,0,0,0,.28,0,2.56,2.56,0,0,1,.8-.22.23.23,0,0,0,0,.26.22.22,0,0,0,.18.1l.07,0a1.71,1.71,0,0,1,.81,0l.15,0a1.49,1.49,0,0,0,1.1.4h0a.21.21,0,0,0-.11.19.22.22,0,0,0,.12.18l.38.14.46.17a.2.2,0,0,0-.13.19.21.21,0,0,0,.14.21,1.21,1.21,0,0,1,.41.26A1.36,1.36,0,0,1,42.24,35.79Z"/><path d="M26.91,33.16a.2.2,0,0,1-.2-.15,2.75,2.75,0,0,1,1-2.94,2.4,2.4,0,0,1,3,.4.22.22,0,0,1,0,.3.21.21,0,0,1-.3,0,2,2,0,0,0-2.5-.34,2.3,2.3,0,0,0-.78,2.47.22.22,0,0,1-.15.26Z"/><path d="M29.16,34.51A4.08,4.08,0,0,1,27.27,34a.22.22,0,0,1-.07-.3.21.21,0,0,1,.29-.07,3,3,0,0,0,2.77.17A2.08,2.08,0,0,0,31,31.66a.21.21,0,0,1,.15-.26.21.21,0,0,1,.26.15,2.51,2.51,0,0,1-.88,2.58A2.48,2.48,0,0,1,29.16,34.51Z"/><path d="M38,28.63a.22.22,0,0,0-.28-.12l-4.17,1.74,3-1.71a.21.21,0,0,0,.08-.29.22.22,0,0,0-.29-.08l-3,1.71,1.46-1.37a.21.21,0,0,0,0-.3.22.22,0,0,0-.3,0L32.57,30v0a3.77,3.77,0,0,0-.26-.39l1-1.22a.22.22,0,0,0,0-.3.21.21,0,0,0-.3,0L32,29.31a3.68,3.68,0,0,0-1-.79l.48-.64a.21.21,0,0,0-.05-.3.2.2,0,0,0-.29.05l-.51.69-.09,0h0l.7-1.53a.22.22,0,0,0-.1-.28.22.22,0,0,0-.29.1l-.7,1.53s0,0,0,.06-.23-.08-.36-.1l.23-2.9a.21.21,0,0,0-.19-.23.21.21,0,0,0-.23.19L29.4,28h-.16l0-4.83a.21.21,0,0,0-.21-.21h0a.21.21,0,0,0-.21.21l0,4.83a4.06,4.06,0,0,0-3.36,2.09.21.21,0,0,0-.15-.22L24,29.56a.21.21,0,0,0-.26.16.2.2,0,0,0,.16.25l1.26.31h.05a.21.21,0,0,0,.11,0A4,4,0,0,0,26,34.84a.17.17,0,0,0-.11.06l-2.28,2.91a.21.21,0,0,0,0,.3.24.24,0,0,0,.13,0,.21.21,0,0,0,.17-.08l2.28-2.92s0,0,0-.07l.22.19a.19.19,0,0,0-.11.07L23.81,39a.22.22,0,0,0,.06.3.17.17,0,0,0,.12,0,.2.2,0,0,0,.17-.09L26.43,36l-1.38,3a.21.21,0,0,0,.11.28l.09,0a.22.22,0,0,0,.19-.13L27,35.69s0,0,0,0l.28.15a.18.18,0,0,0-.11.1l-.7,1.66a.22.22,0,0,0,.11.28l.09,0a.21.21,0,0,0,.19-.13l.7-1.67a.17.17,0,0,0,0-.14,4.15,4.15,0,0,0,1.45.27A4,4,0,0,0,31,35.7l2.24,3.49a.22.22,0,0,0,.18.1.27.27,0,0,0,.12,0,.22.22,0,0,0,.06-.3l-2.23-3.47.06,0s0,0,0,0l3.09,3.71a.2.2,0,0,0,.29,0,.2.2,0,0,0,0-.3l-3.08-3.71s0,0,0,0l.06,0,0,0,1.48,1.32a.24.24,0,0,0,.14.05.2.2,0,0,0,.16-.07.21.21,0,0,0,0-.3l-1.48-1.32h0l.14-.16,1.4,1.15a.22.22,0,0,0,.13,0,.21.21,0,0,0,.17-.07.22.22,0,0,0,0-.3l-1.41-1.15a4.08,4.08,0,0,0,.7-2.29A3.87,3.87,0,0,0,33,31l4.92-2.06A.21.21,0,0,0,38,28.63Zm-9,7.16a3.7,3.7,0,1,1,3.7-3.7A3.7,3.7,0,0,1,29,35.79Zm3.81-5.25h0Z"/><path d="M25,30.85a.2.2,0,0,0,.2-.16.22.22,0,0,0-.15-.26L20.57,29.3a.21.21,0,0,0-.26.16.21.21,0,0,0,.16.25l4.44,1.14Z"/><path d="M12.28,156.3l1.83.37a1.41,1.41,0,0,0-.55.17.92.92,0,0,0-.54.88v1.89h8.34a.94.94,0,0,0,.7-.45,1.59,1.59,0,0,0,.22-.4v2.86a1.84,1.84,0,0,0-.22-.41,1,1,0,0,0-.7-.44H13v1.88a.94.94,0,0,0,.54.89,1.37,1.37,0,0,0,.55.15l-1.83.38.17-.38v-7.05Z"/><path d="M12.28,147.27a1,1,0,0,0,.17.34,1,1,0,0,0,.7.43l4.25,2.67h4a1,1,0,0,0,.7-.44,1.64,1.64,0,0,0,.22-.41v2.87a1.64,1.64,0,0,0-.22-.41,1,1,0,0,0-.7-.44H17.44l-4.29,2.67a1,1,0,0,0-.7.43,1,1,0,0,0-.17.34v-2.89a1.84,1.84,0,0,0,.22.41.94.94,0,0,0,.7.45l3.38-2-3.38-2a.94.94,0,0,0-.7.45,1.64,1.64,0,0,0-.22.41Z"/><path d="M19.07,140.55a12.92,12.92,0,0,0,1.87-1.48,2.42,2.42,0,0,0,.91-2.09.49.49,0,0,1,.21.26,2.76,2.76,0,0,1,.22,1.26c0,.55-.48,1.24-1.44,2a11.77,11.77,0,0,1-1.45,1,2.24,2.24,0,0,0-.69.64,3.44,3.44,0,0,0-.69,2.18h3.35a.94.94,0,0,0,.7-.44,1.64,1.64,0,0,0,.22-.41v2.85a1.59,1.59,0,0,0-.22-.4.91.91,0,0,0-.7-.44h-8.1a.93.93,0,0,0-.7.44,1.59,1.59,0,0,0-.22.4v-2a5.71,5.71,0,0,1,.05-2.1,2.27,2.27,0,0,1,2.36-2.11,2.32,2.32,0,0,1,.89.15,4.51,4.51,0,0,1,2,1.37A8,8,0,0,1,19.07,140.55Zm-1.76,2.17a1.18,1.18,0,0,0-.26-.68,1.92,1.92,0,0,0-1.68-.68,2.88,2.88,0,0,0-2,.69,1.75,1.75,0,0,0-.6,1.28,4.43,4.43,0,0,0,0,.8c.06.15.27.22.63.22l3.91,0Z"/><path d="M12.45,131.6l-.17-.38,1.83.38a1.24,1.24,0,0,0-.55.16.92.92,0,0,0-.54.88v1.9h3.74v-2.09a1.54,1.54,0,0,0-.34-1l2,.24a1.1,1.1,0,0,0-.53.17,1.16,1.16,0,0,0-.53,1.07v1.6H21a2.13,2.13,0,0,0,.42-.46,2.21,2.21,0,0,0,.42-1.29,1.78,1.78,0,0,0-.66-1.31,3.13,3.13,0,0,0-.65-.46l1.72.2v5.33a1.75,1.75,0,0,0-.23-.42.94.94,0,0,0-.76-.43H13.13a1.56,1.56,0,0,0-.68,1Z"/><path d="M21.86,126.25a1.8,1.8,0,0,0-.66-1.33,3.29,3.29,0,0,0-.67-.47l1.75.2v5.43a1.55,1.55,0,0,0-.24-.43.93.93,0,0,0-.76-.44l-8.31,0a1.57,1.57,0,0,0-.69,1V127a1.64,1.64,0,0,0,.66,1H21a2,2,0,0,0,.43-.47A2.24,2.24,0,0,0,21.86,126.25ZM13,128.05l8.31,0-8.34,0Z"/><path d="M21.86,119.78a1.8,1.8,0,0,0-.66-1.33,3.29,3.29,0,0,0-.67-.47l1.75.2v5.43a1.55,1.55,0,0,0-.24-.43.93.93,0,0,0-.76-.44l-8.31,0a1.57,1.57,0,0,0-.69,1v-3.24a1.64,1.64,0,0,0,.66,1H21a1.82,1.82,0,0,0,.43-.47A2.24,2.24,0,0,0,21.86,119.78ZM13,121.58l8.31,0-8.34,0Z"/><path d="M44.45,160.6a3.06,3.06,0,0,1-.25,1.19,3.12,3.12,0,0,1-.7,1,3.61,3.61,0,0,1-1.12.7,4.63,4.63,0,0,1-3,0,3.51,3.51,0,0,1-1.17-.7,3.12,3.12,0,0,1-1-2.34,3,3,0,0,1,.13-.93,3.28,3.28,0,0,1,.35-.79l-.33-.2v-.39l2.47,0v.41a6,6,0,0,0-.78.23,3.45,3.45,0,0,0-.72.36,2,2,0,0,0-.52.56,1.51,1.51,0,0,0-.19.74,1.9,1.9,0,0,0,.21.88,2,2,0,0,0,.63.7,3,3,0,0,0,1,.45,5.72,5.72,0,0,0,1.37.16,4.21,4.21,0,0,0,1.21-.17,3.09,3.09,0,0,0,1-.48,2.4,2.4,0,0,0,.65-.74,1.88,1.88,0,0,0,.23-.95,2.11,2.11,0,0,0-.12-.73,1.94,1.94,0,0,0-.33-.58,2.9,2.9,0,0,0-.49-.43,3,3,0,0,0-.59-.3l.17-.36A3,3,0,0,1,44,159,3,3,0,0,1,44.45,160.6Z"/><path d="M44.28,154.9v2.35H44a1.94,1.94,0,0,1,0-.24,2,2,0,0,0,0-.21.37.37,0,0,0-.16-.21.55.55,0,0,0-.28-.07H37.88a.73.73,0,0,0-.33.08.59.59,0,0,0-.24.2.81.81,0,0,0-.11.32c0,.15-.05.28-.06.37h-.31l-.11-1.81.07-.07H43.4a.58.58,0,0,0,.28-.06.42.42,0,0,0,.17-.2,1.11,1.11,0,0,0,.07-.22,1.57,1.57,0,0,0,0-.23Z"/><path d="M45.85,154.46a.61.61,0,0,1-.4-.14.43.43,0,0,1-.15-.33.57.57,0,0,1,.06-.27,1,1,0,0,1,.15-.2,1.26,1.26,0,0,1,.2-.16l.2-.13a1.9,1.9,0,0,0-.68-.58,5.23,5.23,0,0,0-1-.49l-2.07.84-1.89.78a.7.7,0,0,0-.34.32,1.07,1.07,0,0,0-.16.44h-.33v-2.2h.35a1.34,1.34,0,0,0,.06.35c0,.14.08.2.13.2a.18.18,0,0,0,.09,0l.15-.05,1.39-.56c.61-.26,1.09-.45,1.45-.59L42,151.21c-.37-.16-.81-.34-1.32-.53l-.25-.1a.83.83,0,0,0-.28-.06c-.09,0-.17.07-.24.22a1.26,1.26,0,0,0-.13.42h-.32v-1.79h.31a1,1,0,0,0,.17.39.88.88,0,0,0,.4.36l2.46,1c.74.3,1.28.53,1.63.69a8.68,8.68,0,0,1,1.07.54,3.59,3.59,0,0,1,.6.48,1,1,0,0,1,.35.78.91.91,0,0,1-.18.6A.55.55,0,0,1,45.85,154.46Z"/><path d="M44.28,143.65V146H44a2,2,0,0,1,0-.25,1.09,1.09,0,0,0,0-.22.32.32,0,0,0-.16-.2.47.47,0,0,0-.28-.07H41a1.18,1.18,0,0,0-.79.24.77.77,0,0,0-.28.59,1.51,1.51,0,0,0,.08.48,1.94,1.94,0,0,0,.2.38,1.44,1.44,0,0,0,.24.25l.21.14h2.77a.54.54,0,0,0,.27-.06.51.51,0,0,0,.17-.21.81.81,0,0,0,.07-.22,1.87,1.87,0,0,0,0-.25h.32V149H44a1.79,1.79,0,0,1,0-.23,1.12,1.12,0,0,0,0-.21.35.35,0,0,0-.15-.2.52.52,0,0,0-.29-.07h-3a.82.82,0,0,0-.31.07.7.7,0,0,0-.22.2.73.73,0,0,0-.09.22,1.24,1.24,0,0,0,0,.27h-.33l-.1-1.6.06-.07h.68v0l-.28-.29a1.81,1.81,0,0,1-.26-.34,1.56,1.56,0,0,1-.2-.43,1.89,1.89,0,0,1-.08-.56,1.23,1.23,0,0,1,.44-1,1.82,1.82,0,0,1,1.14-.33h2.51a.58.58,0,0,0,.28-.06.37.37,0,0,0,.16-.2l.07-.2q0-.09,0-.24Z"/><path d="M43.15,138.58a2.56,2.56,0,0,1,.91.81,2,2,0,0,1,.35,1.17,2.32,2.32,0,0,1-.21,1,2,2,0,0,1-.56.72,2.2,2.2,0,0,1-.82.42,3.53,3.53,0,0,1-1,.14,2.91,2.91,0,0,1-.92-.15,2.62,2.62,0,0,1-.81-.43,2.14,2.14,0,0,1-.56-.7,2,2,0,0,1-.21-.92,2.23,2.23,0,0,1,.16-.9,1.52,1.52,0,0,1,.46-.61,1.79,1.79,0,0,1,.64-.34,3,3,0,0,1,.81-.11h.32v3.19a3.79,3.79,0,0,0,.86-.09,2,2,0,0,0,.68-.29,1.33,1.33,0,0,0,.45-.49,1.55,1.55,0,0,0,.16-.74,1.32,1.32,0,0,0-.2-.75,2,2,0,0,0-.73-.6Zm-1.84,1.08a4,4,0,0,0-.58.05,1.76,1.76,0,0,0-.53.15,1,1,0,0,0-.36.31.85.85,0,0,0-.14.5,1,1,0,0,0,.42.85,2,2,0,0,0,1.19.37Z"/><path d="M44.28,135.57v2.35H44a1.79,1.79,0,0,1,0-.24c0-.08,0-.15,0-.21a.32.32,0,0,0-.16-.2.47.47,0,0,0-.28-.07H37.88a.72.72,0,0,0-.33.07.68.68,0,0,0-.24.2,1,1,0,0,0-.11.32c0,.16-.05.28-.06.38h-.31l-.11-1.81.07-.07H43.4a.58.58,0,0,0,.28-.06.45.45,0,0,0,.17-.21.86.86,0,0,0,.07-.21,1.5,1.5,0,0,0,0-.24Z"/><path d="M37.51,133a.72.72,0,0,1,.48.18.6.6,0,0,1,.21.46.58.58,0,0,1-.2.43.64.64,0,0,1-.45.18.69.69,0,0,1-.47-.18.58.58,0,0,1-.2-.43.59.59,0,0,1,.19-.46A.62.62,0,0,1,37.51,133Zm6.77-.61v2.33H44a1.94,1.94,0,0,1,0-.24,1,1,0,0,0,0-.2.41.41,0,0,0-.15-.21.62.62,0,0,0-.29-.06h-3a.59.59,0,0,0-.29.07.66.66,0,0,0-.21.2.69.69,0,0,0-.1.27,1.25,1.25,0,0,0,0,.32h-.33l-.1-1.7.06-.07H43.4a.49.49,0,0,0,.28-.07.38.38,0,0,0,.17-.2,1.72,1.72,0,0,0,.07-.21,1.37,1.37,0,0,0,0-.23Z"/><path d="M41.92,128.46a1.12,1.12,0,0,1,.41-.31,1.33,1.33,0,0,1,.56-.11,1.38,1.38,0,0,1,1.09.5,2,2,0,0,1,.43,1.3,1.77,1.77,0,0,1-.16.77,2.26,2.26,0,0,1-.27.51l.31.1v.36l-1.67,0v-.34a1.76,1.76,0,0,0,.45-.16,2.47,2.47,0,0,0,.46-.31,1.84,1.84,0,0,0,.36-.46,1.15,1.15,0,0,0,.15-.59,1.12,1.12,0,0,0-.22-.73.74.74,0,0,0-.61-.25.72.72,0,0,0-.35.08.76.76,0,0,0-.27.24,2,2,0,0,0-.2.39c-.06.16-.12.33-.18.52a3.14,3.14,0,0,1-.18.51,2.52,2.52,0,0,1-.28.49,1.57,1.57,0,0,1-.42.35,1.25,1.25,0,0,1-.59.13,1.29,1.29,0,0,1-1-.44,1.61,1.61,0,0,1-.41-1.17,2.36,2.36,0,0,1,.07-.58,1.86,1.86,0,0,1,.18-.48l-.26-.11v-.36l1.55-.07v.34a1.49,1.49,0,0,0-.84.44,1.15,1.15,0,0,0-.33.83,1,1,0,0,0,.2.63.65.65,0,0,0,.49.23.77.77,0,0,0,.36-.08.68.68,0,0,0,.25-.23,1.71,1.71,0,0,0,.19-.36l.19-.55a4.84,4.84,0,0,1,.24-.61A1.9,1.9,0,0,1,41.92,128.46Z"/><path d="M44.28,121.88v2.36H44a1.66,1.66,0,0,1,0-.24,1.07,1.07,0,0,0,0-.23.32.32,0,0,0-.16-.2.47.47,0,0,0-.28-.07H41a1.18,1.18,0,0,0-.79.24.79.79,0,0,0-.28.59,1.51,1.51,0,0,0,.08.48,2.38,2.38,0,0,0,.2.39,1.18,1.18,0,0,0,.25.25l.2.14h2.77a.54.54,0,0,0,.27-.07.42.42,0,0,0,.17-.2.94.94,0,0,0,.07-.22,1.78,1.78,0,0,0,0-.26h.32v2.36H44a1.64,1.64,0,0,1,0-.23c0-.08,0-.15,0-.2a.37.37,0,0,0-.16-.21.55.55,0,0,0-.28-.06H37.85a.78.78,0,0,0-.33.07.57.57,0,0,0-.25.2.77.77,0,0,0-.09.31c0,.15,0,.27,0,.36h-.31l-.11-1.78.07-.07h3.36v0l-.28-.3a2.13,2.13,0,0,1-.26-.34,1.78,1.78,0,0,1-.2-.44,2,2,0,0,1-.08-.57,1.23,1.23,0,0,1,.41-1,1.76,1.76,0,0,1,1.17-.35h2.51a.58.58,0,0,0,.28-.06.41.41,0,0,0,.16-.2c0-.08,0-.15.07-.21s0-.14,0-.23Z"/><path d="M44.28,111.61v1.86c-.65.42-1.21.79-1.68,1.12s-1,.7-1.46,1.09v.71h2.2a.73.73,0,0,0,.3-.06.35.35,0,0,0,.19-.23,1,1,0,0,0,.07-.3,2.86,2.86,0,0,0,0-.37h.35v2.93h-.35c0-.08,0-.2,0-.34a1,1,0,0,0-.07-.31.44.44,0,0,0-.18-.22.71.71,0,0,0-.31-.06h-5a.75.75,0,0,0-.31,0,.39.39,0,0,0-.2.23,2.7,2.7,0,0,0-.08.31,2.38,2.38,0,0,0,0,.34h-.35v-3.2a3.64,3.64,0,0,1,.09-.83,2.41,2.41,0,0,1,.29-.7,1.47,1.47,0,0,1,.51-.48A1.5,1.5,0,0,1,39,113a2,2,0,0,1,.71.12,1.47,1.47,0,0,1,.53.36,2.62,2.62,0,0,1,.37.53,5.36,5.36,0,0,1,.26.68c.45-.34.83-.63,1.14-.85l1.13-.84a2.48,2.48,0,0,0,.43-.38,2.33,2.33,0,0,0,.23-.35,1.12,1.12,0,0,0,.09-.32,1.31,1.31,0,0,0,0-.31Zm-5.16,2.57a1.36,1.36,0,0,0-1,.36,1.35,1.35,0,0,0-.37,1v.83h3v-.64a1.52,1.52,0,0,0-.43-1.12A1.55,1.55,0,0,0,39.12,114.18Z"/><path d="M43.15,107a2.38,2.38,0,0,1,.91.81,2,2,0,0,1,.35,1.17,2.31,2.31,0,0,1-.21,1,1.84,1.84,0,0,1-.56.72,2.37,2.37,0,0,1-.82.43,3.53,3.53,0,0,1-1,.14,2.91,2.91,0,0,1-.92-.15,2.65,2.65,0,0,1-.81-.44,2.21,2.21,0,0,1-.56-.69,2,2,0,0,1-.21-.93,2.23,2.23,0,0,1,.16-.9,1.67,1.67,0,0,1,.46-.61,2,2,0,0,1,.64-.34,3,3,0,0,1,.81-.1h.32v3.18a3.79,3.79,0,0,0,.86-.09,2,2,0,0,0,.68-.28,1.36,1.36,0,0,0,.45-.5,1.54,1.54,0,0,0,.16-.73,1.32,1.32,0,0,0-.2-.75,2.12,2.12,0,0,0-.73-.61Zm-1.84,1.08a4,4,0,0,0-.58,0,1.76,1.76,0,0,0-.53.15,1.08,1.08,0,0,0-.36.31.87.87,0,0,0-.14.5,1.06,1.06,0,0,0,.42.86,2.05,2.05,0,0,0,1.19.36Z"/><path d="M41.92,103.05a1.21,1.21,0,0,1,.41-.3,1.19,1.19,0,0,1,.56-.11,1.35,1.35,0,0,1,1.09.5,1.93,1.93,0,0,1,.43,1.29,1.85,1.85,0,0,1-.16.78,2.38,2.38,0,0,1-.27.5l.31.1v.37l-1.67,0v-.34a1.83,1.83,0,0,0,.45-.17,2,2,0,0,0,.46-.3,1.84,1.84,0,0,0,.36-.46,1.21,1.21,0,0,0,.15-.6,1.1,1.1,0,0,0-.22-.72.74.74,0,0,0-.61-.26.63.63,0,0,0-.35.09.83.83,0,0,0-.27.23,2.13,2.13,0,0,0-.2.4c-.06.15-.12.33-.18.52a4,4,0,0,1-.18.51,2.17,2.17,0,0,1-.28.48,1.57,1.57,0,0,1-.42.35,1.25,1.25,0,0,1-.59.14,1.33,1.33,0,0,1-1-.44,1.63,1.63,0,0,1-.41-1.18,2.28,2.28,0,0,1,.07-.57,2.11,2.11,0,0,1,.18-.49l-.26-.11V103l1.55-.07v.33a1.5,1.5,0,0,0-.84.45,1.12,1.12,0,0,0-.33.82.93.93,0,0,0,.2.63.62.62,0,0,0,.49.23.77.77,0,0,0,.36-.07.68.68,0,0,0,.25-.23,1.81,1.81,0,0,0,.19-.37c.05-.15.12-.33.19-.55a5.53,5.53,0,0,1,.24-.61A2.11,2.11,0,0,1,41.92,103.05Z"/><path d="M43.15,97.43a2.56,2.56,0,0,1,.91.81,2,2,0,0,1,.35,1.17,2.32,2.32,0,0,1-.21,1,2,2,0,0,1-.56.72,2.2,2.2,0,0,1-.82.42,3.53,3.53,0,0,1-1,.14,2.91,2.91,0,0,1-.92-.15,2.62,2.62,0,0,1-.81-.43,2.14,2.14,0,0,1-.56-.7,2,2,0,0,1-.21-.92,2.23,2.23,0,0,1,.16-.9A1.52,1.52,0,0,1,40,98a1.79,1.79,0,0,1,.64-.34,3,3,0,0,1,.81-.11h.32v3.19a3.79,3.79,0,0,0,.86-.09,2,2,0,0,0,.68-.29,1.33,1.33,0,0,0,.45-.49,1.55,1.55,0,0,0,.16-.74,1.32,1.32,0,0,0-.2-.75,2,2,0,0,0-.73-.6Zm-1.84,1.08a4,4,0,0,0-.58,0,1.76,1.76,0,0,0-.53.15,1,1,0,0,0-.36.31.85.85,0,0,0-.14.5,1.06,1.06,0,0,0,.42.85,2,2,0,0,0,1.19.37Z"/><path d="M40.08,93a.84.84,0,0,1,.45.12.41.41,0,0,1,.19.38.61.61,0,0,1-.14.42.46.46,0,0,1-.31.14l-.2,0-.18,0a1.17,1.17,0,0,0,.19.54,1.55,1.55,0,0,0,.53.52h2.8a.58.58,0,0,0,.28-.06.49.49,0,0,0,.16-.21,1.18,1.18,0,0,0,.07-.32c0-.13,0-.24,0-.33h.32v2.54H44a1.94,1.94,0,0,1,0-.24,1.18,1.18,0,0,0,0-.2.41.41,0,0,0-.15-.21.62.62,0,0,0-.29-.06h-3a.66.66,0,0,0-.3.07.56.56,0,0,0-.23.2.63.63,0,0,0-.09.22,1.12,1.12,0,0,0,0,.27h-.33l-.1-1.6.06-.07h.68v0a2.37,2.37,0,0,1-.6-.68,1.46,1.46,0,0,1-.2-.68.65.65,0,0,1,.2-.5A.72.72,0,0,1,40.08,93Z"/><path d="M39.76,87.62a1.26,1.26,0,0,0,.16.42.93.93,0,0,0,.42.34l1.37.6,1.49.64.53.2.59.21v.38l-2.09.85-1.94.81a.75.75,0,0,0-.34.32,1.08,1.08,0,0,0-.16.43h-.33V90.6h.35a1.41,1.41,0,0,0,.06.36c0,.15.09.22.15.22l.08,0,.14,0,1.39-.57L43.06,90l-1-.44-1.39-.58-.25-.09a.62.62,0,0,0-.23,0,.17.17,0,0,0-.15.08.88.88,0,0,0-.12.19c0,.08-.05.15-.07.22a.67.67,0,0,0,0,.18h-.32V87.62Z"/><path d="M43.15,82.94a2.38,2.38,0,0,1,.91.81,2,2,0,0,1,.35,1.16,2.32,2.32,0,0,1-.21,1,2,2,0,0,1-.56.72,2.37,2.37,0,0,1-.82.43,3.54,3.54,0,0,1-1,.13,3.21,3.21,0,0,1-.92-.14,2.65,2.65,0,0,1-.81-.44,2.21,2.21,0,0,1-.56-.69,2.05,2.05,0,0,1-.21-.93,2.23,2.23,0,0,1,.16-.9A1.59,1.59,0,0,1,40,83.5a2,2,0,0,1,.64-.34,3,3,0,0,1,.81-.11h.32v3.19a3.79,3.79,0,0,0,.86-.09,2,2,0,0,0,.68-.28,1.44,1.44,0,0,0,.45-.5,1.54,1.54,0,0,0,.16-.73,1.32,1.32,0,0,0-.2-.75,2,2,0,0,0-.73-.61ZM41.31,84a4,4,0,0,0-.58,0,1.76,1.76,0,0,0-.53.15,1.08,1.08,0,0,0-.36.31.87.87,0,0,0-.14.5,1,1,0,0,0,.42.85,2,2,0,0,0,1.19.37Z"/><path d="M29.45,116.78c.44,4,.67,7.89.82,11.84s.22,7.89.24,11.83-.07,7.89-.24,11.84-.38,7.89-.82,11.84c-.45-3.95-.68-7.9-.83-11.84s-.22-7.89-.24-11.84.07-7.89.24-11.83S29,120.73,29.45,116.78Z"/></svg>